<?xml version="1.0" encoding="UTF-8"?>
<svg viewBox="0 0 248.29236 2165.5266" xmlns="http://www.w3.org/2000/svg">
 <g transform="translate(271.67 577.05)">
  <path d="m-130.39 1587.6c-2.9938-2.0018-11.976-3.4906-24.865-4.1212-6.6-0.323-20.55-0.9895-31-1.4813-19.224-0.9045-30.086-2.3631-41-5.5054-7.7099-2.2198-9.5-3.8312-9.5-8.5515 0-3.2478-0.39196-3.8838-2.9411-4.7724-3.2827-1.1444-3.4722-1.8025-4.6557-16.17-1.1497-13.957-1.2398-22.025-0.34601-31 0.51949-5.2164 0.45019-11.784-0.17937-17-1.5284-12.664-1.5666-45.318-0.0856-73 0.72094-13.475 1.3196-25.175 1.3304-26s-0.69481-3.975-1.568-7-1.35-6.625-1.0595-8 0.58019-22.075 0.64383-46c0.0692-26.012 0.51547-44.606 1.1101-46.251 0.71264-1.9715 0.65065-3.1651-0.21882-4.2127-0.92391-1.1132-1.0417-7.6665-0.49397-27.484 0.55016-19.906 0.42554-26.731-0.5302-29.038-0.85191-2.0566-0.92787-3.4137-0.23877-4.2654 1.6931-2.0925 2.5956-15.459 1.2614-18.68-0.79999-1.9313-0.8865-3.9391-0.26765-6.2114 0.63955-2.3483 0.52587-4.2595-0.37816-6.3577-0.71094-1.65-1.3129-4.0446-1.3377-5.3214s-0.74598-3.0223-1.6026-3.879-1.2759-2.2848-0.92984-3.1785 1.1452-3.8711 1.7777-6.6211 2.0472-5.7346 3.1439-6.6325c1.7334-1.4193 1.8352-1.9807 0.77982-4.2971-0.66772-1.4655-1.214-4.638-1.214-7.0501 0-3.5073-0.40052-4.5126-2-5.0203-1.8221-0.5783-2-1.513-2-10.508 0-5.6477 0.43757-10.144 1.0224-10.505 0.63723-0.3939 0.80517-3.555 0.4458-8.3916-0.46942-6.3179-0.28547-8.0013 0.98997-9.0599 0.95823-0.7952 1.2295-1.7339 0.69862-2.4174-2.0647-2.658-2.0756-6.0748-0.0263-8.2562 1.883-2.0044 1.9456-2.5087 0.72905-5.8731-0.78709-2.1766-2.4603-4.2644-4.0952-5.1099-1.5204-0.7862-2.7643-2.0779-2.7643-2.8704 0-1.7403-6.5711-8.5015-8.2833-8.523-0.66917-0.01-1.8206-0.3981-2.5588-0.866-1.1202-0.71-1.1214-1.2041-7e-3 -2.9881 1.5828-2.5345 0.24865-5.4264-2.7577-5.9777-3.2226-0.5908-3.8698-1.9684-1.9312-4.1105 1.5299-1.6905 1.6062-2.2557 0.48654-3.6048-1.0345-1.2465-1.0688-2.0148-0.15514-3.4778 0.99344-1.5908 1.4522-7.602 1.1706-15.34-0.0672-1.8458 1.7853-6.616 4.5379-11.685 1.7455-3.2145 3.8273-23.029 2.9593-28.167-0.45839-2.7132-0.18194-4.5448 0.94572-6.2658 0.8764-1.3376 1.5935-3.6241 1.5935-5.0811s1.1153-7.2104 2.4785-12.785 2.4746-12.836 2.4699-16.136c-5e-3 -3.3 0.34244-14.695 0.77148-25.323 0.68091-16.866 1.0026-19.447 2.5301-20.3 2.1126-1.1796 2.2238-2.6843 0.35439-4.799-2.1086-2.3853-0.9711-11.828 1.5202-12.618 2.2736-0.7217 2.334-1.673 0.34977-5.5102-1.3553-2.6207-1.3593-3.272-0.0363-5.8305 1.2128-2.3453 1.2974-4.0633 0.45543-9.25-0.56868-3.5034-0.89387-9.1638-0.72263-12.579 0.18586-3.7065-0.14559-6.6658-0.82239-7.3426-0.84498-0.845-0.81043-1.7569 0.13563-3.5805 1.8392-3.545 1.8236-17.334-0.0452-40.006-1.1858-14.386-1.4203-23.446-0.8506-32.862 0.43258-7.15 0.84608-15.475 0.91889-18.5 0.0728-3.025 0.73115-10.76 1.463-17.189 1.0735-9.4299 1.0934-13.425 0.10304-20.672-0.82597-6.0442-0.90336-9.5885-0.23656-10.834 1.4924-2.7885 5.2396-39.22 7.1799-69.805 0.4885-7.7 1.1797-16.925 1.536-20.5s0.71523-18.95 0.79762-34.167 0.44616-27.963 0.8084-28.325 0.3103-1.8731-0.1154-3.3574-0.41631-5.388 0.0209-8.6747 1.295-15.201 1.9062-26.476 1.3615-23.45 1.6672-27.056-0.0135-13.281-0.70945-21.5-1.3385-17.381-1.428-20.359c-0.13605-4.5299-0.51064-5.5443-2.2905-6.2027-1.1703-0.4329-3.288-2.9459-4.7058-5.5845s-3.4586-6.1843-4.5349-7.8795c-4.4821-7.0594-4.478-22.803 7e-3 -28.406 3.9928-4.9876 4.9219-7.858 6.0196-18.596 1.056-10.33 1.6336-12.875 5.6562-24.916 0.98635-2.9524 1.7807-9.0131 1.9397-14.8 0.20699-7.532 0.71567-10.556 2.1983-13.069 3.876-6.5694 5.2308-13.06 6.1962-29.686 0.5252-9.0446 1.4067-19.37 1.9588-22.945 1.1495-7.4424 0.45294-30.254-1.0745-35.188-0.56378-1.8214-1.2338-9.5632-1.4888-17.204s-0.87409-14.659-1.3756-15.596-1.1799-8.8606-1.5075-17.608-0.98556-17.479-1.4622-19.404-1.3284-7.688-1.8926-12.807c-0.68036-6.1718-1.704-10.382-3.0388-12.5-1.1071-1.7563-3.9045-6.3432-6.2164-10.193s-5.8494-9.025-7.8611-11.5c-2.5784-3.1723-4.1286-6.4924-5.2542-11.252-1.5665-6.6245-1.5492-6.9088 0.91262-15 1.3801-4.5361 3.0993-9.3725 3.8203-10.748 0.87946-1.6771 1.3255-6.8114 1.3552-15.599 0.0322-9.5221 0.48763-14.3 1.668-17.5 0.89304-2.4207 2.0432-6.4263 2.5558-8.9013s1.8282-5.7193 2.9235-7.2095 1.9914-3.1226 1.9914-3.6276 0.74813-1.5356 1.6625-2.2905 2.4706-3.195 3.4584-5.4226c1.7541-3.956 1.7464-4.1844-0.33264-9.8282-1.5352-4.1676-3.3428-6.8015-6.4849-9.4499-8.8067-7.4227-20.319-19.388-20.907-21.728-0.33242-1.3245-0.13076-4.5536 0.44813-7.1758 3.4099-15.446 4.1331-22.191 4.5318-42.268 0.2712-13.657 0.0581-21.95-0.58428-22.734-0.68669-0.83831-0.60031-3.2453 0.26916-7.5 2.0087-9.8294 2.6647-25.813 1.5296-37.266-0.38157-3.85-0.83883-9.925-1.0161-13.5-0.23005-4.6383-1.0421-7.7889-2.8352-11-3.491-6.2519-5.457-13.223-6.1695-21.876-0.33405-4.0566-0.93646-7.8816-1.3387-8.5s-1.2566-4.7243-1.8986-9.1243-1.9097-10.7-2.8172-14c-2.6154-9.5107-3.3558-46.213-1.0556-52.329 0.7595-2.0193 1.6585-5.3399 1.9979-7.3792s1.2724-4.9643 2.0734-6.5 1.4592-3.51 1.4626-4.3872 0.87581-2.382 1.9387-3.344 1.6941-2.3703 1.4027-3.1296c-0.81941-2.1354 1.5218-18.237 3.625-24.931 1.0368-3.3 2.1823-8.7 2.5456-12s1.5802-9.375 2.7042-13.5 2.4157-9.075 2.8704-11c1.5941-6.7495 3.4959-12.91 4.2044-13.618 0.39332-0.39331 0.71512-1.707 0.71512-2.9193 0-2.5116 5.4784-15.628 8.1932-19.617 0.99372-1.4599 1.8068-2.9471 1.8068-3.3049 0-0.60028 2.8239-7.3254 5.0559-12.041 1.4725-3.1108 3.9212-11.787 3.9333-13.936 6e-3 -1.0646 0.8656-2.8646 1.9103-4s3.2512-6.3394 4.9033-11.564c7.2636-22.972 13.136-36.575 19.338-44.798 2.198-2.9141 4.4526-6.7391 5.01-8.5s1.3862-4.1017 1.8416-5.2017 1.3591-5.15 2.0082-9 1.4192-8.35 1.7114-10 1.1163-3.675 1.8314-4.5c0.71516-0.825 1.5987-2.85 1.9634-4.5s1.308-4.7172 2.0962-6.8159 1.206-4.1834 0.9284-4.6325 0.38922-1.9529 1.4817-3.3418 1.9864-3.1565 1.9864-3.9279c0-2.019 4.7326-13.805 6.2997-15.689 1.475-1.773 3.9277-7.5125 5.8087-13.593 1.3672-4.4196 1.4549-4.9554 2.4549-15 0.75103-7.5437 1.6726-9.5 4.4751-9.5 1.6296 0 7.9616 6.7748 7.9616 8.5185 0 1.3626 10.054 10.482 11.557 10.482 0.82113 0 1.9297 1.1488 2.4636 2.5528s2.2727 4.2166 3.8642 6.25 3.6372 6.0067 4.546 8.8296 2.5338 5.9301 3.6111 6.905c1.0827 0.97979 1.9587 3.0629 1.9587 4.6574s0.9 4.649 2 6.8052 2 4.7598 2 5.7858 1.1688 2.9565 2.5973 4.2898 3.5121 4.2243 4.6301 6.4243 2.6066 4.336 3.308 4.7467 2.6996 4.2357 4.4406 8.5 4.2307 10.003 5.5326 12.753c2.3278 4.9169 4.7489 11.148 9.7135 25 3.7734 10.528 4.5385 13.442 5.2521 20 0.4951 4.5503 1.5132 7.2693 4.2136 11.254 2.8186 4.1586 3.4361 5.8769 2.9626 8.2442-0.43922 2.1961 0.0342 3.9222 1.7821 6.498 1.3091 1.9291 2.6949 5.8692 3.0795 8.7558s1.8322 8.3984 3.2168 12.248c7.7134 21.447 8.8548 25.706 11.792 44 1.5626 9.7334 2.1908 12.963 5.362 27.574 1.1429 5.2655 2.3218 13.816 2.6199 19 0.61278 10.66 1.2658 14.582 2.8497 17.119 0.85128 1.3631 0.73403 2.0444-0.52196 3.0328-1.066 0.83893-1.5704 2.6425-1.475 5.2748 0.11888 3.2839 0.50287 4.0006 2.1448 4.0032 1.8033 3e-3 1.9771 0.59313 1.767 6-0.12817 3.2982-0.51465 7.6821-0.85885 9.7419s-0.26427 4.5348 0.1776 5.5 0.84695 7.4802 0.90019 14.478c0.0726 9.5449-0.22578 12.847-1.1946 13.219-1.663 0.63816-1.7316 10.699-0.10357 15.201 0.98756 2.731 0.92618 3.5859-0.36413 5.071-0.85356 0.98243-1.6215 3.3612-1.7065 5.2862-0.45977 10.411-3.496 28.664-5.2396 31.5-0.33818 0.55-0.91836 2.8-1.2893 5s-1.3171 6.025-2.1025 8.5c-0.78546 2.475-3.0492 9.9-5.0306 16.5-4.4707 14.892-7.8996 23.419-11.365 28.263-1.4705 2.0555-3.4552 6.1909-4.4104 9.1898s-2.4501 6.2409-3.3221 7.2044c-1.3424 1.4834-1.3958 2.2569-0.34809 5.0474 0.68051 1.8126 1.5838 8.2456 2.0072 14.296s1.5738 13.475 2.5562 16.5 1.9083 8.7422 2.0575 12.705 0.91924 8.4627 1.7112 10c0.80011 1.553 1.7661 7.6065 2.1737 13.622 0.56291 8.3067 1.1393 11.217 2.4759 12.5 2.4345 2.3376 3.1287 10.5 1.3697 16.104-0.94961 3.0255-1.5742 10.911-1.8492 23.346-0.38257 17.3-0.58611 19.018-2.5862 21.826-4.2788 6.0091-5.643 14.959-3.6153 23.718 1.3779 5.952 2.4391 17.586 3.2546 35.678 0.14873 3.3 0.50478 7.003 0.79121 8.229s0.79453 7.7509 1.1291 14.5c0.69724 14.064 2.1818 24.079 4.1451 27.963 0.75882 1.5011 1.7891 8.8 2.3292 16.5 1.4944 21.308-1.0246 40.038-6.1248 45.541-2.779 2.9986-7.0126 14.14-6.1888 16.287 0.3156 0.82245-0.16324 2.6203-1.0641 3.9952-1.4082 2.1492-1.4817 3.3968-0.52401 8.8963 0.96228 5.5259 0.88744 6.7422-0.54982 8.9357-1.581 2.4129-1.5604 2.6277 0.41406 4.3182 2.4937 2.1352 2.6185 3.651 0.47679 5.7927-1.1389 1.1389-1.3858 2.3862-0.85542 4.3215 2.1771 7.9439 3.4875 20.862 3.3698 33.22-0.0903 9.4899-0.44828 12.055-2.0478 14.677-1.8479 3.0287-1.8914 4.1948-0.93201 25 0.55348 12.003 1.2289 33.373 1.501 47.49 0.60342 31.31 1.1433 34.028 8.7067 43.833 3.3185 4.302 6.5302 18.799 6.7569 30.5 0.10577 5.4577 0.75022 9.2712 2.0279 12 3.2363 6.9119 4.0726 10.888 4.1163 19.571 0.0523 10.403 2.0491 24.42 3.7161 26.087 0.68286 0.6829 1.2416 3.3156 1.2416 5.8505s0.63185 5.4729 1.4041 6.5291c0.9757 1.3343 1.2399 3.5108 0.86605 7.1335-0.34419 3.3348 0.015 6.9455 0.99699 10.021 0.84428 2.6442 1.8141 6.1576 2.1551 7.8076 0.83554 4.0423-2.5767 16.663-5.7589 21.3-2.4746 3.6061-4.5837 8.5732-7.0909 16.7-0.67875 2.2-1.4952 4.675-1.8143 5.5-1.7184 4.4424-3.057 12.858-3.817 24-0.46902 6.875-1.3938 19.011-2.0551 26.969-0.98812 11.891-0.95807 15.811 0.16868 22 0.99294 5.454 1.4 18.148 1.4759 46.031 0.10444 38.356 0.57792 50.856 2.5379 67 0.56756 4.675 0.94198 11.875 0.83204 16-0.28302 10.619 1.1167 68.219 1.6799 69.13 0.25721 0.4162 0.47937 6.2539 0.4937 12.973s0.49014 13.083 1.0574 14.143c0.59249 1.1071 1.0636 9.7568 1.1072 20.328 0.0682 16.55 0.26114 18.569 1.9186 20.069 1.0135 0.9172 1.8428 2.1148 1.8428 2.6614s1.2924 3.7393 2.872 7.095c4.2806 9.0936 6.4206 15.693 6.329 19.516-0.045 1.8782 0.62447 4.7808 1.4877 6.4501 1.1868 2.2951 1.4429 4.8835 1.0501 10.614-0.44149 6.4411-1.2868 9.2019-5.6292 18.386-2.8103 5.9436-5.1097 11.036-5.1097 11.316s-0.91925 1.8006-2.0428 3.3785c-1.6482 2.3147-2.0347 4.3726-2.0008 10.654 0.0231 4.282 0.0496 11.386 0.0589 15.786 0.026 12.341 2.8797 28.937 5.2619 30.602 0.47361 0.3309 0.99762 16.981 1.1645 37 0.17802 21.361 0.7577 38.563 1.4031 41.639 0.60487 2.8822 0.83647 5.9266 0.51466 6.7652s-0.0831 5.0055 0.53043 9.2596c2.1692 15.04 3.3514 55.545 2.0791 71.235-0.52517 6.4764-0.35838 9.0381 0.70059 10.76 1.0815 1.7587 1.1349 2.7366 0.24086 4.4071-0.71657 1.3389-1.0806 6.6982-0.96719 14.24 0.62984 41.892 1.0556 56.676 2.0582 71.466 0.61991 9.1448 1.33 20.677 1.5779 25.627s0.96378 10.953 1.5908 13.34c1.1765 4.4788 1.322 11.862 0.69453 35.256-0.27432 10.228-0.0378 13.99 0.95473 15.186 1.0236 1.2335 1.0608 2.0731 0.16626 3.7446-0.87573 1.6363-0.86532 2.8495 0.0433 5.0431 0.84728 2.0455 0.99755 6.6153 0.51491 15.659-0.53864 10.094-0.33753 14.343 0.95931 20.271 0.90246 4.125 2.0722 13.788 2.5994 21.472 0.62995 9.1822 1.4623 14.741 2.428 16.215 0.94279 1.4389 1.4694 4.7784 1.4694 9.3183 0 5.71 0.42231 7.6469 2.1881 10.035l2.1881 2.9595-2.2508 3.0443c-2.4275 3.2834-4.6155 13.867-3.6567 17.687 0.41247 1.6434-0.1361 3.0271-1.8989 4.7899-2.7551 2.7551-4.6466 3.0724-7.541 1.2648-1.6345-1.0207-2.3226-0.8585-4.3209 1.0188-3.4432 3.2347-13.548 4.2641-24.555 2.5016-6.7552-1.0817-10.784-1.1417-19.106-0.2845-18.433 1.8985-22.501 2.0655-24.046 0.9869-1.302-0.9085-1.2438-1.2422 0.44113-2.5277 1.0676-0.8146 3.3601-1.481 5.0945-1.481 1.954 0 4.2584-0.97 6.0589-2.5503 1.598-1.4027 5.714-4.1392 9.1466-6.0811s6.4675-3.8971 6.7442-4.3449c0.85581-1.3847-2.3674-2.0191-5.0591-0.9956-1.406 0.5345-4.232 0.9719-6.2799 0.9719s-5.5061 0.9152-7.6849 2.0338-4.9247 1.7973-6.102 1.5084c-1.5039-0.3691-2.593 0.1652-3.662 1.7968-0.83683 1.2771-3.6986 3.1349-6.3595 4.1284-6.9476 2.594-8.4917 4.1964-7.7668 8.0605 0.69478 3.7035-1.1973 5.0864-4.2064 3.0743zm5.9635-12.614c4.5467-2.7267 9.6243-5.2292 11.284-5.5611s3.5591-1.4716 4.2219-2.5329c1.048-1.6781 0.86824-2.0575-1.3794-2.9121-1.4214-0.5404-3.175-0.9826-3.8969-0.9826s-1.8727-0.675-2.5574-1.5c-1.3015-1.5682-5.1386-2.028-6.3997-0.767-0.40317 0.4032-2.5055 1.2564-4.6719 1.8961-4.4333 1.309-6.2554 0.099-3.2785-2.1766 1.6125-1.2328 1.6575-1.5491 0.35014-2.4622-1.6713-1.1674-14.412-0.3341-17.184 1.124-0.92634 0.4871-3.4873 0.8857-5.691 0.8857s-4.269 0.4243-4.5894 0.9428-5.3066 3.2966-11.08 6.1733c-11.206 5.5831-13.014 6.9841-12.098 9.3712 0.44804 1.1675 2.3229 1.5127 8.2168 1.5127 6.6674 0 8.1623-0.35 11.781-2.758 6.8226-4.5398 19.541-10.397 21.841-10.058 2.7715 0.4083 3.51 2.6347 1.1376 3.4295-4.7173 1.5803-18.333 8.5873-18.333 9.4346 0 0.5238 3.2625 0.9972 7.25 1.052 3.9875 0.055 8.375 0.4688 9.75 0.9199 3.7505 1.2306 6.2622 0.4062 15.328-5.0309zm72.906 1.6265c0.40408-0.6134 0.74158-1.6661 0.75-2.3395s1.3653-1.9225 3.0153-2.7757c2.107-1.0896 3-2.2878 3-4.0257 0-1.3609-0.45965-2.4743-1.0214-2.4743-1.3742 0-8.8277 4.796-12.192 7.8454-2.26 2.0482-2.9707 2.2463-4.25 1.1846-2.6346-2.1865-1.7157-3.9053 3.5008-6.5488 2.7704-1.4038 4.7601-3.0005 4.4216-3.5482-1.0864-1.7579-13.661-0.7304-15.672 1.2806-0.98255 0.9825-2.1871 1.7864-2.6768 1.7864s-3.9772 1.5639-7.75 3.4754c-12.207 6.1847-13.575 8.5414-3.7761 6.5073 5.7973-1.2036 19.599-0.6487 25.184 1.0124 3.0618 0.9107 6.3593 0.3013 7.4668-1.3799zm-136.13-2.4089c2.9238-3.4104 25.304-16.206 28.345-16.206 1.204 0 3.1672-1.125 4.3628-2.5 1.9298-2.2195 2.9555-2.5 9.1414-2.5 5.7196 0 7.3072-0.3645 8.8633-2.0347 2.0379-2.1875 8.8594-5.9653 10.771-5.9653 0.64136 0 1.7566 0.7115 2.4784 1.5812 1.0664 1.285 1.074 1.9628 0.0403 3.6179-0.84367 1.3509-0.93692 2.3717-0.27696 3.0317 1.5763 1.5763 3.2335-0.1266 2.5958-2.6674-0.48342-1.9261-0.0451-2.5007 2.6149-3.428 3.934-1.3714 6.9659-0.7869 13.594 2.6206 4.7181 2.4257 5.4487 2.5375 9 1.377 2.1258-0.6947 5.44-1.2337 7.365-1.1978l24.932 0.5773 21.432 0.512 3.8177-2.5264c6.3845-4.2251 4.6236-7.0963-5.4586-8.9002-5.1763-0.9261-6.2237-1.4487-6.2237-3.1057 0-1.6232 0.77384-2.0485 4.1784-2.2962l4.1784-0.304-0.56747-3.696c-1.1661-7.5949-3.1284-8.5753-11.355-5.6729-3.6708 1.2951-4.5235 1.3165-5.6972 0.1429s-1.14-1.6205 0.22493-2.9855c1.8266-1.8266 7.7192-3.6667 11.769-3.6749 3.3446-0.01 4.09-2.3609 3.0096-9.5056l-0.75605-5-4.7423-0.3048-4.7423-0.3048v3.4056c0 3.9529-1.7866 9.636-3.0978 9.854-0.49619 0.082-1.4021 0.195-2.0131 0.25-0.75194 0.068-1.208-4.3107-1.4114-13.55-0.16526-7.5076-0.79035-14.566-1.3891-15.684s-1.0886-4.3137-1.0886-7.0999c0-4.8477-1.4134-6.7579-2.6384-3.5657-0.74769 1.9484-3.9795 1.9382-4.729-0.015-0.31975-0.8333-1.7179-1.9471-3.107-2.4753-1.7734-0.6742-2.5256-1.7065-2.5256-3.4659 0-3.528 4.0586-4.4852 6.9133-1.6305 3.4762 3.4762 5.0867 2.7121 5.0867-2.4133 0-4.8709-0.14329-5.0289-3.1178-3.4369-1.478 0.791-3.2258 0.6513-6.8295-0.5456-5.1573-1.713-6.7998-4.2529-4.9661-7.6792 1.026-1.9171 4.9135-2.5804 4.9135-0.8383 0 1.9576 4.0425 5 6.6436 5h2.6436l-0.6669-7.1756c-0.75445-8.1175-1.719-9.8244-5.5516-9.8244-1.4775 0-3.5599-0.6486-4.6276-1.4414-2.5765-1.9133-0.96556-4.666 3.3912-5.795 2.586-0.67 3.1648-1.3205 3.1523-3.5422-0.0203-3.6035-0.91895-4.7749-4.2978-5.6023-2.3366-0.5722-2.76-1.146-2.5-3.3878 0.39968-3.4456 3.2237-3.9892 13.813-2.6586 5.7532 0.7228 12.334-1.3511 12.854-4.0511 0.20953-1.0881-0.18359-4.9704-0.87359-8.6273l-1.2546-6.6489-7.6128-0.5041c-4.187-0.2773-8.4486-0.066-9.4701 0.4699-3.2502 1.7046-3.9021-0.5457-4.0248-13.893-0.18816-20.47 1.2787-77.933 2.2545-88.318 0.49097-5.225 0.59097-10.175 0.22223-11-0.85551-1.9141 0.35734-20.791 2.0882-32.5 1.1811-7.9901 1.1376-9.9538-0.38696-17.5-0.94452-4.675-1.735-10.419-1.7565-12.764-0.0216-2.3449-0.59745-5.1574-1.2798-6.25-0.9225-1.4771-0.95653-2.4412-0.13276-3.7602 1.3881-2.2227 0.77023-42.566-0.75697-49.429-0.57554-2.5864-0.7905-5.1167-0.47771-5.6228s0.14833-4.6899-0.36548-9.2974c-2.5774-23.113-7.0631-68.6-7.5813-76.877-0.63507-10.146-2.6186-24.479-3.7004-26.74-0.78439-1.6391-0.73158-3.2705 0.19697-6.084 1.8898-5.7261 1.1896-7.7427-2.5577-7.3666-3.044 0.3055-3.1022 0.2249-4.3267-6-1.5661-7.9615-3.1221-12.152-4.1269-11.115-0.42942 0.4431-0.95279 7.3306-1.1631 15.306-0.37432 14.197-1.4967 19.861-3.3449 16.878-1.0409-1.6796-0.76354-24.935 0.40298-33.785 0.47196-3.5809 0.45729-8.5369-0.0333-11.236-0.54351-2.9903-0.5072-5.5213 0.0954-6.6472 0.53519-1 0.93697-5.3039 0.89283-9.5642-0.0455-4.3922 0.39418-8.2204 1.0155-8.8417 0.60265-0.6027 0.84978-2.3256 0.54916-3.8287s-0.0781-3.0224 0.49444-3.3762c0.7177-0.4436 0.72148-1.56 0.0122-3.5947-0.72077-2.0676-0.68865-4.5313 0.10729-8.2279 0.62487-2.9021 1.3724-14.532 1.6611-25.844 0.46153-18.081 0.33084-20.728-1.0809-21.9-1.4637-1.2148-1.4323-1.5187 0.35467-3.4327 1.6591-1.777 2.0684-4.1757 2.662-15.6 0.38579-7.425 1.093-13.995 1.5715-14.601s1.1568-3.193 1.5072-5.75c0.54283-3.9604 0.38515-4.6491-1.0644-4.6491-3.5273 0-5.7459 2.3315-9.1622 9.6284-3.0717 6.5609-4.0498 7.7567-7.6697 9.3774-4.1138 1.8418-4.1466 1.8986-3.8549 6.6759 0.16176 2.6501 0.64957 5.2683 1.084 5.8183s1.0738 4.6 1.4207 9 0.90253 9.9515 1.2347 12.337c0.65907 4.7329-0.72211 7.4639-2.7495 5.4365-1.0563-1.0563-1.6637-4.3363-4.9266-26.604l-1.294-8.8307-5.7643-3.9144c-3.1704-2.153-6.0523-4.3805-6.4043-4.95-0.36716-0.5941-2.0562-0.7699-3.9619-0.4124-3.1809 0.5968-3.5021 0.358-7.5642-5.6238-9.063-13.346-13.834-16.938-22.495-16.938-4.2001 0-4.5738-0.1963-4.2821-2.25 0.29879-2.1038 0.77657-2.2419 7.3546-2.1259 6.5616 0.1157 7.4576 0.4139 13.312 4.4316 3.4523 2.3691 6.77 5.2383 7.3725 6.3759s2.1859 3.8043 3.5185 5.926c2.3857 3.7985 2.4455 3.8253 3.8991 1.75 2.0559-2.9352 5.4306-2.6299 9.8628 0.8924 2.4782 1.9694 4.9126 3 7.0866 3 4.291 0 6.6308-3.1318 12.701-17 3.7049-8.4646 4.5283-11.372 4.2474-15-0.19164-2.475-0.3904-5.0625-0.44168-5.75-0.1511-2.0257-2.9018-1.4286-3.6035 0.7823-0.77171 2.4314-10.443 17.167-11.93 18.176-1.6422 1.115-2.873-0.8249-2.207-3.4786 0.33359-1.3291 1.6781-3.4995 2.9878-4.8232s3.1853-3.9816 4.1679-5.9066 3.363-5.4292 5.2898-7.7871l3.5032-4.287-1.2907-5.3803c-0.70989-2.9591-1.6323-5.933-2.0499-6.6086-1.3844-2.2399-3.8486-0.1027-6.9379 6.0172-2.8875 5.7201-5.0799 7.3809-6.567 4.9747-0.36409-0.5891 1.8594-4.7831 4.941-9.32 5.9992-8.8322 6.4142-10.154 4.1348-13.168-0.8075-1.0676-1.4825-3.5261-1.5-5.4633-0.0215-2.3809-0.97435-4.6656-2.9407-7.0511-1.8908-2.2939-3.1643-5.2612-3.6386-8.4779-0.85484-5.7979-2.2853-10.087-2.3891-7.1636-0.0876 2.4662-3.0103 6.7148-4.6194 6.7148-2.454 0-2.301-1.525 0.80534-8.0273 2.5772-5.3948 3.1201-7.805 3.2601-14.473 0.0924-4.4 0.49588-9.0125 0.89665-10.25s0.43801-3.1658 0.0828-4.285c-0.63471-1.9998-0.67533-1.9955-2.3439 0.25-1.7623 2.3716-3.9055 8.6397-6.7648 19.785-1.7881 6.9698-3.7285 10.052-5.3241 8.4561-1.5125-1.5125 4.8351-23.097 9.0517-30.78 4.3733-7.968 4.961-9.8659 5.3502-17.277 0.22831-4.348 0.68914-8.6196 1.0241-9.4924 0.73156-1.9064-1.6666-4.1574-3.6276-3.405-1.3733 0.527-4.8545 8.9024-4.8545 11.68 0 1.3002-2.4563 6.3012-10.225 20.818-3.4765 6.4962-7.7747 20.04-7.7747 24.498 0 1.7301-0.72896 5.285-1.6199 7.8998-2.5663 7.5317-0.19011 21.766 4.6359 27.772 1.6463 2.0487 3.4301 4.8736 3.9639 6.2777 0.83353 2.1923 0.69716 2.5528-0.96571 2.5528-2.0581 0-6.0142-3.6189-6.0142-5.5015 0-0.6184-1.35-2.4177-3-3.9985s-3-3.5487-3-4.3732-0.72243-4.3796-1.6054-7.9004c-1.5306-6.1032-1.5118-6.6884 0.40388-12.564 1.1051-3.3894 2.2275-8.8625 2.4942-12.162 0.55289-6.8417 5.5644-22.462 9.5312-29.707 6.011-10.979 7.0608-13.444 7.1172-16.712 0.0325-1.8806 1.409-5.8113 3.059-8.7349s3-5.9975 3-6.8309c0-2.7862-2.9488-1.5562-5.3578 2.2349-1.3106 2.0625-3.3412 4.6072-4.5125 5.655s-2.1297 2.437-2.1297 3.0872-1.8 3.6959-4 6.7682-4 6.0359-4 6.586-1.0484 2.2722-2.3298 3.8269-2.6224 3.6276-2.98 4.6065c-1.7776 4.8656-16.685 23.413-20.873 25.971-1.5767 0.9627-3.2974 2.8833-3.8238 4.2679s-2.1528 2.9721-3.6141 3.5277-3.8502 2.0142-5.3086 3.2413-7.0354 4.4215-12.393 7.0984-10.218 5.7576-10.801 6.846-0.7956 3.3939-0.47364 5.1235c1.4103 7.5764 0.86008 15.114-1.4707 20.145-1.274 2.75-2.8444 5.3261-3.4899 5.7247s-2.1885 3.0838-3.4289 5.9671l-2.2552 5.2425 3.2023 2.6733c3.5197 2.9384 14.423 5.0957 21.172 4.1891 5.0879-0.6835 5.5973 1.1357 1.1618 4.1497-3.1798 2.1607-4.8792 2.5536-11.045 2.5536-7.2269 0-7.3452-0.043-14.352-5.25l-7.0646-5.25 0.57585-4.3323c0.31672-2.3827 1.4794-5.4809 2.5837-6.8848s2.0078-3.2145 2.0078-4.0234 1.0922-2.7687 2.427-4.3551c3.5207-4.1842 5.0722-12.678 3.4629-18.957-1.1663-4.5507-1.1035-5.186 0.76239-7.7036 2.7798-3.7506 9.9292-9.1092 13.176-9.8758 1.4692-0.3469 6.165-2.6861 10.435-5.1981 13.127-7.7231 31.997-29.295 39.223-44.841 0.8108-1.7442 3.6204-6.0214 6.2436-9.5049s5.6109-7.6352 6.6393-9.2263 5.1742-6.1864 9.2129-10.212l7.343-7.3193-2.0273-9.283c-1.8746-8.5837-1.9752-11.355-1.3347-36.783 0.38094-15.125 0.79352-29.75 0.91685-32.5 1.4115-31.473 1.8183-36.503 3.034-37.512 2.8912-2.3994 2.9214-0.115 0.64176 48.512-0.36097 7.7-0.6373 23.225-0.61406 34.5 0.0352 17.088 0.32648 21.144 1.75 24.372 0.93926 2.1297 1.7078 5.1406 1.7078 6.691s0.45 3.097 1 3.4369 1 1.3054 1 2.1455 1.3392 3.4011 2.976 5.691c2.4781 3.4669 3.2122 5.9202 4.3878 14.664 0.7917 5.888 1.163 13.575 0.84537 17.5-1.2101 14.954 0.48483 33.619 3.4482 37.972 0.73846 1.0849 1.3446 2.6599 1.347 3.5 7e-3 2.4867 7.8505 17.375 10.179 19.321 2.852 2.3837 3.7686 0.8836 3.8454-6.2933 0.0324-3.025 0.49377-7.525 1.0253-10 0.53155-2.475 1.1822-12.249 1.4459-21.72 0.45573-16.367 0.38192-17.273-1.4895-18.274-1.0829-0.5796-3.0774-0.7756-4.4322-0.4356-2.8952 0.7267-3.5414 3.7074-2.2326 10.299 0.94977 4.7836-0.46301 9.5902-2.6096 8.8785-0.83984-0.2785-1.6051-5.3488-2.3888-15.829-0.63427-8.4803-1.6526-19.919-2.2631-25.419s-1.2847-25.3-1.4984-44-0.92436-39.625-1.5792-46.5c-1.8363-19.277-1.8903-23.982-0.35622-31 1.7681-8.0878 1.008-15.406-2.384-22.952-1.2924-2.8752-1.3422-3.9616-0.29838-6.5 1.7463-4.2464 3.9517-15.273 3.9957-19.977 0.0202-2.161 0.59216-5.4649 1.271-7.3422 1.076-2.9756 1.0119-3.5757-0.5-4.6812-2.314-1.6921-2.1874-2.3752 1.2936-6.9757 1.6347-2.1605 2.9821-4.6355 2.9941-5.5s0.91048-3.53 1.9964-5.9232c2.7639-6.0909 1.4533-7.0425-3.1301-2.2726-3.036 3.1596-3.8883 4.8292-3.8883 7.6166 0 3.3755-2.1158 5.7248-3.7153 4.1254-0.84243-0.8425 1.5273-18.621 3.261-24.465 0.75912-2.559 1.6496-11.628 1.9788-20.153s0.95595-19.55 1.3928-24.5c1.8564-21.036-0.9984-82.601-4.5831-98.839-1.08-4.8922-1.2815-8.5931-0.70782-13 1.0758-8.2643 1.0838-8.1608-0.62635-8.1608-1.0667 0-1.6444 1.4444-2 5-0.44896 4.4896-0.76588 5.0309-3.1047 5.3024-2.4759 0.2874-2.6333 0.025-3.1839-5.3092-0.65586-6.3547 1.6091-19.085 3.8328-21.542 0.7792-0.8611 1.7692-4.0148 2.2-7.0084 0.64771-4.5006 1.1271-5.4428 2.7695-5.4428 1.7788 0 1.9535 0.5742 1.673 5.5-0.17228 3.025-0.76754 7.2447-1.3228 9.3772-1.342 5.154-0.11153 6.0497 4.4931 3.2707l3.8098-2.2993 0.16654-12.424c0.13808-10.303 0.4226-12.424 1.6665-12.424 1.2315 0 1.5503 2.0865 1.7809 11.655 0.22653 9.3986 0.57933 11.769 1.8224 12.246 3.2932 1.2637 4.9522-1.0774 6.2541-8.8253 0.89442-5.323 1.6997-7.576 2.7078-7.576 1.9492 0 1.8034-2.5877-0.54063-9.5948-1.0865-3.2478-1.9865-6.7521-2-7.7872-0.0135-1.035-0.99196-3.4472-2.1743-5.3602-2.9719-4.8087-4.8014-15.212-4.8772-27.734-0.039-6.444-1.9144-10.601-5.4487-12.078-5.1716-2.1608-7.2291-5.9253-8.4687-15.494-1.3225-10.209-6.8665-22.258-11.306-24.57-1.9562-1.0191-2.7602-2.219-2.7854-4.1569-0.0195-1.4984-0.67854-3.8493-1.4646-5.2243s-1.4451-3.41-1.4646-4.5222-1.3781-3.651-3.019-5.6418-3.4298-4.7933-3.9752-6.2278c-1.8513-4.8693-3.6245-2.9389-3.1556 3.4352 0.10291 1.3989-0.95423 5.1242-2.3492 8.2785-1.578 3.5681-2.5363 7.5674-2.5363 10.584 0 2.6672-0.70599 6.539-1.5689 8.6042s-2.9053 10.333-4.5387 18.372c-3.443 16.946-4.7576 21.861-6.5772 24.59-0.72341 1.0849-1.3153 2.6245-1.3153 3.4213s-0.77853 2.309-1.7301 3.3604-1.9637 4.2338-2.25 7.0788c-0.49807 4.9497-0.6452 5.167-3.4982 5.167-2.1984 0-3.0672 0.5237-3.3179 2-0.52073 3.0661-3.1921 8.65-5.8285 12.183-1.3064 1.7508-2.3753 3.7882-2.3753 4.5275s-0.7101 2.358-1.578 3.5971c-1.3874 1.9808-1.4353 3.6029-0.39704 13.428 1.0216 9.667 2.2304 15.64 3.2003 15.813 0.15111 0.027 4.0998 0.671 8.7748 1.4313 12.42 2.0198 12.647 2.0971 17.265 5.877 2.3291 1.9064 5.5848 3.6184 7.2348 3.8045 2.7739 0.3127 3 0.6381 3 4.316 0 3.3511 0.43325 4.1868 2.75 5.3046 2.9538 1.4251 3.4704 3.0972 1.55 5.0176-1.9555 1.9555-4.9039 1.3799-7.5484-1.4736-2.1449-2.3144-2.5978-2.4592-3.3708-1.0778-0.54006 0.965-0.45343 3.6455 0.21919 6.7818 0.93924 4.3795 0.87024 5.428-0.44368 6.7419-2.478 2.478-4.2242 0.076-5.469-7.5232-0.75825-4.6291-0.79239-8.1298-0.10868-11.144 0.88209-3.8895 0.75324-4.6547-1.1194-6.648-2.2737-2.4203-3.824-2.8519-17.076-4.7542-4.7394-0.6803-9.3487-1.8441-10.243-2.5862-2.977-2.4706-4.4728-10.792-4.9646-27.616-0.16051-5.491 0.20834-6.6363 4.3476-13.5 5.8502-9.7009 6.9631-12.337 6.2917-14.905-0.3029-1.1583 0.0649-2.8474 0.8173-3.7536 0.90335-1.0879 1.4012-4.5677 1.4656-10.245 0.14575-12.838-1.3271-40.764-2.5104-47.597-3.9547-22.839-6.0794-50.418-4.121-53.492 2.0081-3.1515 2.9462 0.88048 3.4882 14.992 0.30627 7.975 0.82839 15.798 1.1603 17.385s0.73859 4.2866 0.9038 6 0.97044 6.0402 1.7894 9.6152c1.3649 5.9584 2.5506 22.588 2.9055 40.75 0.0779 3.9875 0.49282 7.25 0.922 7.25 1.6826 0 5.9714-9.0928 8.2902-17.576 1.3416-4.9081 3.6546-13.388 5.1401-18.845s4.1795-16.932 5.9868-25.5 4.0522-18.054 4.9887-21.079 1.9244-7.075 2.1953-9 1.0672-4.175 1.7697-5 1.5281-3.3 1.8347-5.5 0.9838-6.25 1.5048-9c4.3838-23.138 5.2277-30.437 5.0287-43.5-0.10471-6.875-0.23179-15.2-0.2824-18.5s0.25653-7.2474 0.68254-8.772c1.2712-4.5493-1.8245-4.7489-5.8306-0.37608-3.7412 4.0837-3.7531 4.0882-6.6966 2.5128-2.0466-1.0953-1.9677-1.2661 2.2482-4.861 3.4762-2.9642 4.3928-4.4186 4.4842-7.1148 0.37216-10.981 0.65012-12.876 2.1009-14.327 2.6851-2.6851 3.3751-0.80041 2.7369 7.4756-0.68069 8.8271 0.0179 9.695 4.6824 5.8172 2.719-2.2604 2.9303-5.3222 1.474-21.355-0.74605-8.2134 0.48313-7.8819 2.957 0.79739 1.6653 5.8425 3.7473 7.9243 5.8362 5.8354 0.62303-0.62303 2.2803-1.1397 3.6828-1.1481 3.9162-0.0235 4.885-1.1349 5.2311-6.0011 0.30224-4.2492 0.48865-4.4999 3.5657-4.7967 2.5891-0.24969 3.3707-0.85739 3.8586-3 0.33649-1.4778 1.1918-4.9369 1.9008-7.6869s1.3252-8.0375 1.3696-11.75 0.53704-9.5625 1.0949-13c1.235-7.6097 1.2625-25.758 0.0656-43.25-0.73673-10.767-0.64446-13.271 0.53716-14.579 1.8982-2.1006 1.8026-3.9018-0.56516-10.638-1.0955-3.1169-2.284-8.5183-2.641-12.003-0.64608-6.3058-2.3672-9.7762-2.3672-4.7731 0 1.4436-0.47476 3.5118-1.055 4.5961s-1.6916 6.3421-2.4696 11.684-1.944 11.513-2.5911 13.713c-3.2354 11-7.1005 22.021-9.7115 27.692-5.126 11.134-6.1728 13.833-6.1728 15.919 0 1.1236-1.2475 3.2905-2.7723 4.8153-1.6004 1.6004-3.3275 4.9386-4.0858 7.8973-0.72242 2.8188-2.0903 6.1491-3.0398 7.4008s-2.2554 4.6492-2.9022 7.55c-1.0618 4.7625-3.8652 10.008-6.7949 12.714-3.973 3.6699-8.8472 15.694-8.2844 20.437 0.10272 0.86581-0.0698 2.2492-0.3834 3.0742s-0.84132 2.7375-1.1727 4.25c-0.46843 2.1378-1.1797 2.75-3.1948 2.75-2.4305 0-2.5505-0.22271-1.9227-3.5688 0.51417-2.7408 0.15536-4.4228-1.5466-7.25-2.0659-3.4319-2.248-5.188-2.687-25.924-0.46435-21.93-0.0899-25.258 2.8417-25.258 1.5314 0 2.0566 3.9362 1.0241 7.6754-0.88969 3.2222-0.75817 4.0374 0.94351 5.8488 1.7374 1.8494 1.9811 3.5527 2.0089 14.04l0.0316 11.936 2.4684-2.8058c1.3576-1.5432 2.4684-3.4853 2.4684-4.3158s0.53903-2.4929 1.1978-3.6942c1.6105-2.9367 5.594-14.015 7.258-20.184 1.7371-6.4406 4.047-12.742 6.3572-17.344 7.9656-15.866 8.6208-18.156 5.1932-18.156-1.9241 0-8.0063 7.092-8.0063 9.3356 0 1.4723-4.1143 5.6644-5.5593 5.6644-3.6946 0-5.4706-8.8546-3.4892-17.396 1.0607-4.5724 2.3126-5.5676 7.0298-5.5884 2.9723-0.0131 4.3922-0.96745 9.7112-6.5272 5.3556-5.598 6.5306-7.5276 8.373-13.75 1.1787-3.981 2.4842-7.6882 2.9009-8.2382 1.6237-2.1428 2.107-7.3835 2.7917-30.27 1.078-36.036 0.87654-43.776-1.2282-47.181-1.856-3.003-2.5148 2.2004-2.0831 16.452 0.53819 17.765-0.8213 29.197-5.7676 48.5-6.8711 26.815-12.058 39.241-14.639 35.065-0.84476-1.3668-0.34651-3.2055 5.0311-18.565 3.4979-9.991 4.9547-15.484 5.9679-22.5 0.4368-3.025 1.3055-8.7659 1.9304-12.758s1.2576-15.467 1.406-25.5 0.86167-21.617 1.585-25.742c1.2504-7.1304 1.2038-7.7587-0.94601-12.75-3.7675-8.7473-4.9267-6.3306-3.0815 6.4242 0.85908 5.9382 0.19109 13.531-2.7998 31.826-0.5395 3.3-1.2431 8.3641-1.5635 11.254s-1.2482 7.1645-2.0618 9.5-1.4902 5.1464-1.5036 6.2464-1.1934 4.475-2.6223 7.5c-3.2352 6.849-3.7203 8.3892-7.8212 24.832-3.3716 13.518-4.8894 16.873-6.474 14.309-0.77955-1.2613 1.9398-13.351 5.4301-24.141 0.80059-2.475 2.3109-7.65 3.3562-11.5s2.8064-9.475 3.9135-12.5c1.8728-5.117 2.8794-10.021 6.8768-33.5 1.7165-10.082 1.2197-32.542-1.1393-51.5-1.4251-11.453-6.0195-26.592-8.3403-27.483-1.2507-0.47995-1.3424 0.8349-0.64245 9.2115 0.95625 11.444 1.0594 43.54 0.19596 60.962-0.54756 11.048-1.9457 17.434-3.4808 15.899-0.31955-0.31955-0.62059-20.346-0.66898-44.502s-0.43298-44.266-0.85465-44.688c-1.2552-1.255-2.629 0.87457-3.3022 5.1188-0.34732 2.1897-1.0364 4.7392-1.5313 5.6656s-0.89983 2.9764-0.89983 4.5557c0 3.1078-3.1746 8.0363-7.2326 11.228-1.3985 1.1-2.8482 3.2172-3.2215 4.7049s-1.4865 3.8573-2.4736 5.2658-2.3152 4.167-2.9513 6.13-3.8436 7.813-7.1276 13-5.976 10.422-5.9822 11.634c-0.0204 4.0057-2.2182 7.2937-5.4284 8.121-2.5788 0.66454-3.4915 1.7846-5.5828 6.8506-1.375 3.3309-3.7374 7.5012-5.2498 9.2674-1.76 2.0553-2.5907 3.9936-2.3076 5.3846 1.6127 7.9263 1.1612 17.384-1.2975 27.173-2.4883 9.9075-3.514 13.101-4.6566 14.5-0.67399 0.825-1.47 3.4367-1.769 5.8038-0.3624 2.8694-1.4061 5.1032-3.1315 6.7022-1.9404 1.7983-2.5879 3.3845-2.5879 6.3392 0 4.9169 2.2789 6.1848 4.6399 2.5816l1.6439-2.5089 2.168 2.0368c1.5366 1.4436 3.9549 2.1681 8.3034 2.4878 3.3745 0.24804 7.9065 0.9279 10.071 1.5108 5.012 1.3496 16.113 11.071 18.32 16.044 0.90569 2.0405 2.3105 3.9647 3.1218 4.276 1.9814 0.76035 6.0773 9.3836 5.3533 11.27-0.92657 2.4146-3.5406 2.8403-5.6606 0.92176-1.0803-0.9777-3.321-4.6493-4.9793-8.159-2.6804-5.673-5.2004-8.4208-6.5161-7.1051-0.24635 0.24634 0.3129 3.1144 1.2428 6.3735 1.3806 4.839 1.7073 10.724 1.7811 32.092 0.0877 25.376 0.16237 26.32 2.4713 31.25 1.3095 2.7958 2.7539 5.0832 3.2099 5.0832s0.82906 0.69293 0.82906 1.5398c0 2.1518 3.7253 9.2726 7.0856 13.544 1.5507 1.9712 3.8533 5.4051 5.1169 7.631s3.571 5.9487 5.1275 8.2729 3.4282 6.0903 4.1592 8.369 2.2701 6.6118 3.42 9.629c2.5077 6.5798 2.7858 17.106 0.59076 22.36-0.825 1.9745-1.5 4.9798-1.5 6.6785 0 2.1639-0.90845 3.9182-3.0346 5.8602-1.7767 1.6228-2.8026 3.3762-2.4749 4.2302 0.30783 0.80219 0.70579 8.4171 0.88436 16.922s0.66867 16.695 1.0891 18.201c0.59795 2.1414 0.38139 2.8846-0.99437 3.4125-3.5992 1.3812-4.4696-2.0929-4.4696-17.841 0-8.1449-0.3375-14.811-0.75-14.814s-2.893 0.76317-5.5123 1.702c-4.2627 1.5278-4.9219 1.5473-6.2835 0.18569-0.83668-0.83668-1.8053-3.2901-2.1525-5.452s-1.4964-5.107-2.5539-6.5446c-2.4471-3.327-1.9946-7.2796 0.88036-7.6897 1.5801-0.2254 2.296 0.36508 2.7798 2.2928 0.95349 3.799 3.0219 4.0463 7.0835 0.84685 3.1489-2.4805 3.5275-3.2368 3.0193-6.0321-0.46324-2.548-0.16841-3.4168 1.4541-4.2852 2.3782-1.2728 2.773-7.1021 0.87695-12.948-2.0023-6.1733-6.2704-14.18-8.0918-15.181-1.1495-0.63117-1.75-2.16-1.75-4.4556 0-2.2036-1.6712-6.6893-4.5234-12.141-2.4878-4.7556-5.2037-10.987-6.0352-13.847s-2.396-6.0005-3.4766-6.9785-1.9648-2.5819-1.9648-3.5642c0-2.6926-1.8883-3.3151-4.0691-1.3415-1.0687 0.96718-2.1044 1.5738-2.3015 1.348-1.6248-1.8611-2.6293-5.5647-2.6293-9.6943 0-3.8042-0.67401-5.9099-2.9818-9.3157-1.64-2.4203-2.99-4.873-3-5.4505s-0.53707-1.5689-1.1712-2.203c-2.0135-2.0135-6.8372-15.545-7.4952-21.025-0.34854-2.903-1.0203-5.517-1.4927-5.809-1.2113-0.74865-1.0679-7.5153 0.23882-11.264 0.8162-2.3414 1.7077-3.1492 3.4752-3.1492 2.0653 0 2.263 0.30096 1.5059 2.2924-0.58349 1.5347-0.42177 3.1046 0.48932 4.75 0.74848 1.3517 1.3768 3.1844 1.3963 4.0728s0.87171 2.6883 1.8938 4 2.5651 5.0849 3.4288 8.3849c2.2559 8.6189 3.8243 12.565 6.4409 16.204 1.267 1.7622 3.2222 5.3471 4.345 7.9664 3.315 7.7335 3.9718 4.0796 3.4122-18.983-0.44646-18.401-0.87666-23.038-3.0081-32.422-0.32732-1.441 0.2295-2.9719 1.5677-4.3101l2.0753-2.0753-3.7578-3.442c-4.5521-4.1696-11.722-6.9441-20.112-7.7825-6.0768-0.60727-6.25-0.55922-6.25 1.7344 0 1.2974 0.675 4.2721 1.5 6.6104s1.5 5.7136 1.5 7.5007c0 2.8256-0.39962 3.3292-3.0651 3.8623-2.7975 0.5595-2.947 0.78156-1.7129 2.5435 1.8184 2.5961 1.3809 24.097-0.69069 33.945-0.8422 4.0037-1.5313 8.4978-1.5313 9.9869s-1.4625 4.9762-3.25 7.749-4.1356 6.8126-5.2179 8.9772-2.9948 5.5025-4.25 7.4177-2.2821 4.1362-2.2821 4.9356c0 2.5045-4.1855 6.0823-7.1153 6.0823-1.5217 0-3.1307 0.5625-3.5757 1.25s-1.3684 6.875-2.0521 13.75c-2.4012 24.145-3.8598 31.731-7.8842 41-4.5738 10.535-3.2715 21 2.6132 21 1.8872 0 3.585 2.9092 4.5426 7.7839 1.2062 6.1399 7.8128 7.8372 18.192 4.6737 0.89131-0.27168 0.69504-1.5292-0.72804-4.6648-2.3567-5.1926-2.5171-8.3774-0.46181-9.1661 1.5986-0.61342 2.8092 1.4378 3.927 6.6536 0.45021 2.1007 1.3418 2.9295 3.6474 3.3906 1.953 0.3906 3.3745 1.4597 3.9486 2.9697 0.53492 1.407 1.7144 2.3594 2.9218 2.3594 1.9598 0 2.0248-0.59149 2.0248-18.451 0-10.148-0.43233-20.61-0.96074-23.25-1.2834-6.4112-2.7915-55.211-1.7613-56.991 0.25708-0.44427 0.78172-8.2328 1.1659-17.308 0.52526-12.409 1.0617-16.872 2.1635-18 1.2761-1.3066 1.5809-1.3126 2.3633-0.0471 0.49404 0.7991 0.69585 2.5991 0.44846 4-0.40147 2.2734-2.6067 43.315-2.5279 47.047 0.33777 16.004 1.3411 35.938 2.0636 41 1.2017 8.4198 1.6704 45.18 0.59808 46.915-1.0718 1.7342-9.508 0.8161-12.895-1.4034-3.9941-2.617-5.3837-0.21401-5.6045 9.6913-0.10171 4.5636-0.42818 9.6475-0.7255 11.298s-1.1144 9.975-1.8158 18.5c-1.1621 14.124-0.90228 21.262 0.94803 26.046 0.94087 2.433 3.7621 38.967 4.2244 54.704 0.38019 12.942 1.052 16.104 2.8154 13.251 0.48294-0.7814 1.2841-9.1012 1.4753-15.32 0.0567-1.8443 4.544 3e-4 5.6428 2.3196 3.5346 7.4605 5.3824 11.829 5.3824 12.725 0 0.5531 0.94091 2.2018 2.0909 3.6637s2.3004 4.1102 2.5563 5.8849c0.58858 4.0806 4.6747 15.421 8.3692 23.227 1.5618 3.3 3.1555 7.35 3.5414 9s2.3396 5.25 4.3415 8c6.8094 9.354 8.7222 12.993 10.513 20 0.98389 3.85 3.3469 10.044 5.2511 13.766s3.8573 8.8961 4.3402 11.5c2.1108 11.383 3.9354 19.951 4.8413 22.734 1.3657 4.1959 4.9562 11.259 6.075 11.95 0.51393 0.3176 1.4741 2.2587 2.1338 4.3135s1.766 4.4111 2.4585 5.2361 1.4802 3.075 1.7505 5c0.2703 1.925 1.251 6.2 2.1794 9.5 0.94575 3.3618 1.4218 7.3191 1.0827 9-0.3329 1.65-0.74304 5.475-0.91142 8.5-0.4817 8.6533-2.5365 24.196-3.6464 27.581-0.55558 1.6946-0.91927 5.0696-0.80821 7.5s-0.38986 9.3691-1.1132 15.419-1.4378 15.5-1.5879 21-0.7008 17.65-1.2239 27-0.81766 24.2-0.65468 33c0.58786 31.741 1.4785 60.089 2.0264 64.5 0.30744 2.475 0.6914 9.225 0.85324 15 0.56935 20.316 1.818 26.552 6.4636 32.281 1.2715 1.5682 1.2339 1.9867-0.31463 3.5-1.6671 1.6292-1.9053 1.5456-4.5652-1.602-5.3546-6.3364-6.2595-14.034-8.1919-69.679-1.1698-33.686-1.1102-60.601 0.18067-81.5 0.52655-8.525 1.184-20.721 1.461-27.102s0.95458-13.98 1.5058-16.886 1.0022-7.1087 1.0022-9.338 0.4329-6.5554 0.962-9.6135c2.739-15.831 3.1945-18.682 3.2058-20.06 7e-3 -0.825 0.46274-2.9811 1.0134-4.7912s0.72341-4.0151 0.38392-4.8998c-0.546-1.4229-0.87402-1.3764-2.8412 0.4027-3.6113 3.266-8.5746 4.4648-19.915 4.81-8.409 0.2559-10.947 0.016-11.892-1.1223-0.66081-0.7963-0.89904-1.7502-0.52939-2.1198s5.4963-0.7181 11.392-0.7742c7.7193-0.074 11.802-0.5776 14.584-1.8004 3.6171-1.5897 3.8219-1.9061 3.2053-4.9516-0.36226-1.7894-0.78336-4.6034-0.93577-6.2534-0.42606-4.6125-3.6385-12.616-6.6231-16.5-1.4791-1.925-3.6791-6.1514-4.8889-9.3919s-3.1134-7.0535-4.2301-8.4732c-1.5116-1.9217-1.8734-3.4176-1.4162-5.8551 0.33781-1.8007-0.28353-8.5628-1.3807-15.027s-2.2032-13.328-2.4578-15.253c-0.86441-6.5365-4.5614-17.207-7.6046-21.95-1.6677-2.5988-3.0322-5.3622-3.0322-6.1408s-1.575-3.631-3.5-6.3385-3.5-5.5571-3.5-6.3324-1.3128-4.1835-2.9172-7.574c-3.0736-6.4948-5.974-15.471-7.1616-22.164-1.3569-7.647-6.7227-19.5-8.8276-19.5-1.136 0-2.063 3.6232-2.0799 8.1292-8e-3 1.996-1.1389 6.0869-2.5141 9.0909s-2.9292 7.4459-3.4533 9.8708-1.4158 6.5767-1.9818 9.2259-1.3099 5.2713-1.6532 5.8268-0.80587 2.9548-1.0279 5.3318-1.5852 6.955-3.0293 10.173c-2.3584 5.2561-2.6423 7.1737-2.7909 18.851-0.15111 11.876-0.3928 13.449-2.7961 18.196-1.8642 3.6824-2.8097 7.4702-3.2451 13-0.3379 4.2919-1.0845 10.21-1.6592 13.151-1.0653 5.4517-4.345 12.153-5.9481 12.153-1.6385 0-3.9146 7.195-3.914 12.372 5.8e-4 4.3524 0.77369 6.4598 5.1121 13.935 4.109 7.0797 5.5307 8.7641 7.2493 8.5888 1.1758-0.1199 4.3005 0.1343 6.9437 0.565 4.2396 0.6909 5.0938 0.5126 7.25-1.5131 1.3443-1.2629 2.4442-2.6678 2.4442-3.1219s-2.5875-0.8326-5.75-0.841c-7.4554-0.02-9.0029-0.9638-7.6656-4.6758 0.95603-2.6537 1.3037-2.793 6.2904-2.5215l5.2784 0.2873-0.80317-5.7873c-1.3927-10.036-0.068-49.287 1.6634-49.287 0.45159 0 1.6233-2.1007 2.6038-4.6681 1.8796-4.9217 2.1524-12.824 0.83121-24.082-0.69648-5.9347-0.62636-6.25 1.3899-6.25 2.9504 0 3.5754 3.1062 3.6222 18 0.0371 11.792-0.12398 12.832-2.8439 18.372-2.6524 5.402-2.9195 6.9756-3.338 19.668-0.26667 8.0891 2e-3 16.002 0.64875 19.128 0.60696 2.9326 1.1552 7.6897 1.2184 10.571 0.11254 5.1362 0.18584 5.2587 3.7344 6.2444 1.9908 0.553 4.4457 1.008 5.4555 1.011s4.7222 0.7747 8.25 1.7147c4.9136 1.3093 6.4141 2.1354 6.4141 3.5314 0 1.0023-0.62872 2.0635-1.3972 2.3584-1.3488 0.5176-14.231-0.9654-19.183-2.2084-1.8861-0.4734-2.4197-0.2117-2.4197 1.1866 0 0.9867-0.99744 2.8557-2.2165 4.1534-1.821 1.9384-2.002 2.6637-1.0143 4.0644 4.504 6.388 5.6517 11.508 2.9831 13.308-0.51783 0.3493-0.42343 3.1959 0.22447 6.7688 0.61496 3.3913 0.8464 6.6057 0.5143 7.1431s-0.82916 7.8414-1.1046 16.231-0.91008 16.604-1.4104 18.254-1.3389 6.5514-1.8636 10.892c-0.89667 7.4183-2.2947 10.231-4.429 8.9124-0.50162-0.31-0.64112-2.4179-0.31001-4.684s0.79653-7.2704 1.0343-11.12 0.82041-8.125 1.2948-9.5 0.84792-12.208 0.83001-24.072l-0.0326-21.572-2.7642-4.1775c-3.5171-5.3155-5.2551-5.4899-4.2614-0.4276 1.1558 5.888 0.89503 53.918-0.33792 62.25-0.61043 4.125-1.2878 12.225-1.5053 18s-0.98068 11.85-1.696 13.5c-0.84592 1.9512-1.3736 8.4186-1.5093 18.5-0.11478 8.525-0.63418 20.225-1.1542 26-0.52003 5.775-1.0576 20.62-1.1945 32.988-0.18025 16.278-0.62678 23.392-1.617 25.762-1.5187 3.6347-3.0756 14.319-3.971 27.25-0.32371 4.675-1.0304 12.325-1.5705 17-0.54007 4.675-1.1722 21.55-1.4047 37.5-0.43652 29.945-0.77946 36.145-2.65 47.911-0.99621 6.266-0.84708 12.791 0.7334 32.089 0.22522 2.75 0.88161 7.6086 1.4586 10.797s0.78822 6.619 0.4693 7.6238c-0.96561 3.0424-1.4646 32.598-0.82439 48.829 0.52291 13.258 0.81692 15.25 2.2504 15.25 0.90688 0 2.2355-0.5625 2.9524-1.25 1.0486-1.0055 1.5278-0.8911 2.45 0.5846 0.63054 1.009 1.9339 2.7653 2.8964 3.903s1.75 3.3004 1.75 4.8062 0.89012 4.6994 1.978 7.097 1.9879 6.0746 2 8.1713 0.64183 5.9217 1.3994 8.5c2.4747 8.422 3.695 13.554 5.2761 22.188 1.4182 7.7448 7.2289 22.191 9.4872 23.587 0.4726 0.2921 0.85928 1.4045 0.85928 2.472s0.45 1.941 1 1.941 1 0.9296 1 2.0657c0 2.4928 1.4936 5.4684 4.6486 9.261 1.2933 1.5547 2.3514 3.6138 2.3514 4.5758s2.013 4.4149 4.4734 7.6732 4.4854 6.8906 4.5 8.0717c0.0376 3.0293 5.5731 13.832 10.426 20.347 3.9181 5.2601 4.1043 5.8394 4.18 13.005 0.0587 5.5481-0.40362 8.3723-1.7762 10.852-1.2849 2.321-1.6649 4.3679-1.2356 6.6563 0.85562 4.5609-2.3801 7.9093-6.9112 7.1519-11.567-1.9337-11.438-1.9389-12.728 0.515-4.2535 8.0886-9.1274 8.5736-13.372 1.3308-1.4523-2.4781-3.3198-4.5056-4.1502-4.5056s-3.2941 1.0125-5.4751 2.25c-3.3877 1.9222-4.1002 2.0364-4.8909 0.7835-1.1996-1.9006 0.4798-3.9336 4.71-5.7018 1.7875-0.7472 3.25-1.9578 3.25-2.6901s0.92847-2.1719 2.0633-3.1989c1.9786-1.7905 2.2612-1.7969 6.8842-0.1549 5.6778 2.0165 9.0826 2.1317 15.977 0.5403 4.6148-1.0652 5.1672-1.4974 6.0707-4.75 0.54669-1.9679 0.99649-4.3889 0.99955-5.38 9e-3 -2.8973-4.3384-9.682-6.2092-9.6904-2.3886-0.011-4.0418-3.5628-3.2776-7.0422 0.91098-4.1477-6.006-17.616-12.479-24.3-2.7519-2.8412-5.0233-6.0658-5.0476-7.1658s-0.70482-2.8735-1.5123-3.9411-1.4682-3.1677-1.4682-4.6667-0.34151-2.8755-0.75892-3.0589-2.003-2.7578-3.5236-5.721c-3.4451-6.7138-5.7049-19.99-5.8031-34.094-0.0133-1.915-0.60042-4.165-1.3046-5-2.0371-2.4151-3.3764-6.936-4.5312-15.295-0.59097-4.2775-1.7504-9.395-2.5765-11.372s-1.502-4.8039-1.502-6.2816c0-4.066-2.0973-6.2976-5.5493-5.9048-2.897 0.3297-2.9514 0.4451-2.9926 6.3358-0.023 3.3-0.4115 7.2462-0.86328 8.7694-0.52597 1.7733-0.36231 3.8778 0.45502 5.851 1.0032 2.4219 1.0257 4.0769 0.10539 7.7306-0.64408 2.557-1.3544 12.524-1.5786 22.149s-0.88944 19.525-1.4784 22c-2.2818 9.5888-4.0982 19.368-4.0982 22.064 0 1.5501-0.40717 3.07-0.90482 3.3776-1.0685 0.6604-0.78507 12.257 0.36323 14.86 0.54417 1.2333 0.16349 2.494-1.2078 4-1.1893 1.3061-2.2129 4.1893-2.5207 7.1001-0.32127 3.0382-1.1286 5.2426-2.1241 5.7997-0.88319 0.4943-1.6058 1.9714-1.6058 3.2826 0 1.8572 0.60754 2.4538 2.75 2.7003 3.762 0.4328 3.5839 3.1523-0.25 3.8164-2.4893 0.4312-3.0326 1.0287-3.1912 3.5098-0.10516 1.6446-0.48591 4.3994-0.84612 6.1218-0.3945 1.8863-0.21906 3.4009 0.44119 3.809 0.60287 0.3726 1.1177 2.3384 1.1442 4.3684 0.0533 4.0985 1.2376 6.5416 8.2504 17.021 4.1426 6.1902 5.2018 7.1702 7.75 7.1702 2.4132 0 2.9516 0.4195 2.9516 2.3 0 1.265-0.49189 2.7919-1.0931 3.3931-0.7908 0.7908-0.67956 1.7449 0.4022 3.45 1.199 1.8899 1.3492 4.1402 0.7577 11.357-1.3931 16.998 0.21284 89.286 2.0603 92.738 0.71071 1.328 0.65712 2.3176-0.18016 3.3264-0.88782 1.0698-0.90415 1.7827-0.064 2.795 0.76577 0.9227 0.87242 3.25 0.33224 7.25-0.4762 3.5262-0.27915 12.314 0.49088 21.891 0.70754 8.8 1.02 17.125 0.69447 18.5s-0.77197 6.2385-0.99196 10.808-0.79113 9.0692-1.2692 10c-1.5789 3.0739-2.3231 15.266-1.0271 16.827 0.87654 1.0562 0.97137 4.5092 0.3611 13.149-0.45519 6.4439-0.6828 23.416-0.50581 37.716s0.36921 30.05 0.42714 35-0.26655 18.9-0.72107 31c-1.059 28.192-1.1925 59.851-0.25871 61.362 0.39897 0.6455 0.86432 19.57 1.0341 42.055s0.6148 41.377 0.98888 41.982c0.97854 1.5833 12.548 1.4462 12.613-0.1495 0.46983-11.456-0.16486-37.424-1.0049-41.117-1.7942-7.8873 0.72032-11.875 3.3945-5.3834 1.6963 4.1177 2.6898 14.198 2.9489 29.918 0.23781 14.427 1.1751 16.63 8.2206 19.321 4.277 1.6334 5.0453 1.6372 13.215 0.066 4.7709-0.9175 10.924-2.2806 13.674-3.0293 9.1011-2.4777 11.52-2.7543 13.041-1.4918 3.7545 3.116 0.17096 6.966-6.4839 6.966-1.547 0-4.3302 0.6021-6.1849 1.3379s-5.4918 2.1163-8.0826 3.0677c-3.3541 1.2316-5.1538 2.6183-6.25 4.8157-2.5134 5.0382-2.0885 5.7787 3.3155 5.7787 4.0765 0 5.239-0.4479 7.25-2.7937zm47.575-36.956c-1.2194-2.0865-1.7258-18.874-0.76655-25.409 1.2278-8.3637 1.9537-22.114 2.0507-38.841 0.0695-11.982 0.92424-15.512 3.2041-13.232 1.3588 1.3587 1.4363 11.6 0.34625 45.732-0.48804 15.282-0.31185 20.066 0.9003 24.445 1.0931 3.949 1.2095 5.8033 0.4238 6.75-1.1649 1.4036-5.4378 1.7889-6.1587 0.5553zm-19.1-4.4261c-0.22767-0.7281-0.69831-6.9489-1.0458-13.824s-0.9441-18.125-1.3257-25c-0.96843-17.449-0.86194-71.683 0.17377-88.5 0.47423-7.7 0.85898-14.9 0.85502-16s0.36662-3.35 0.82353-5 1.0448-8.5766 1.3064-15.392c0.33516-8.7321 0.86382-12.632 1.7899-13.205 2.5513-1.5767 3.036 2.1433 1.6832 12.92-0.73716 5.8725-1.2661 11.577-1.1753 12.677s-0.48582 10.325-1.2812 20.5-1.4317 20.525-1.4141 23 0.0696 15.292 0.11558 28.482 0.30231 24.336 0.56967 24.769 0.66837 5.6157 0.89114 11.518 0.71477 15.906 1.0933 22.231c1.1683 19.52 1.0905 21.424-0.89237 21.808-0.96417 0.1869-1.9393-0.2559-2.167-0.9841zm72.488-5.6975c-0.58721-1.0972-1.0677-5.8808-1.0677-10.63 0-8.3071 0.0829-8.6232 2.1827-8.3158 2.659 0.3893 3.4859 3.1024 3.9642 13.007 0.33233 6.8819 0.22467 7.3305-1.8292 7.6229-1.3776 0.1961-2.576-0.425-3.25-1.6843zm-19.181-2.3161c-1.5226-2.8171-2.2192-39.154-1.0054-52.438 0.49657-5.4339 0.32767-17.204-0.43583-30.372-2.851-49.17-2.7863-45.932-0.93176-46.644 2.2758-0.8733 3.4583 1.2707 3.3883 6.1435-0.0316 2.2 0.16728 7.15 0.44201 11l1.2851 18c0.4321 6.05 0.85209 28.775 0.93333 50.5s0.32549 40.838 0.5428 42.472c0.50547 3.8028-2.3901 4.721-4.2186 1.3378zm23.616-113.81c-0.33892-0.5484-0.3255-6.9609 0.0298-14.25 1.6097-33.024 0.99083-57.856-3.1965-128.25-0.81788-13.75-1.8751-31.525-2.3494-39.5-1.3922-23.41-2.3096-58.574-1.6018-61.394 0.40696-1.6215 1.3461-2.6061 2.4857-2.6061 1.7122 0 1.825 1.1894 1.731 18.25-0.0553 10.038 0.49718 25.9 1.2278 35.25 1.9113 24.458 3.1077 44.33 4.6056 76.5 0.29451 6.325 0.87982 18.475 1.3007 27 1.4839 30.058 0.81828 86.231-1.0517 88.75-1.1187 1.5069-2.346 1.6045-3.1813 0.253zm-13.775-4.2699c-1.3081-1.0024-1.814-4.8808-2.7047-20.733-0.6026-10.725-1.5088-22.875-2.0138-27-2.1023-17.172-2.3015-21.878-1.0538-24.89 0.91859-2.2177 0.96358-3.8486 0.17381-6.301-2.1515-6.6807-2.8667-53.16-1.7744-115.31 0.087-4.95 0.26796-15.427 0.40214-23.281 0.20541-12.025 0.49694-14.378 1.8449-14.896 2.0864-0.8006 3.5673 1.5481 2.8619 4.5389-1.7882 7.5816-2.0635 108.77-0.36218 133.14 0.63363 9.075 1.258 20.55 1.3874 25.5s0.74851 13.05 1.3757 18 1.5675 17.05 2.0895 26.889 1.216 19.105 1.5424 20.591c0.75699 3.4465-1.3851 5.5796-3.7688 3.753zm-60.985-53.983c-0.25968-0.6875 0.11552-6.2 0.83376-12.25s1.3326-13.726 1.3652-17.059c0.0654-6.6845 2.2715-11.606 3.6305-8.0982 0.69447 1.7924-1.1909 33.406-2.2011 36.907-0.58254 2.0192-2.9322 2.343-3.6283 0.5zm3.7356-42c-0.30835-1.2375-0.42942-6.975-0.26905-12.75 0.23707-8.5371 0.572-10.5 1.7916-10.5 1.2251 0 1.5374 1.9241 1.7043 10.5 0.22049 11.331-0.19634 15-1.7043 15-0.52904 0-1.2142-1.0125-1.5225-2.25zm51.938-139.89c-1.1634-1.8825-0.74452-41.289 0.50653-47.649 0.95595-4.8598 0.60044-19.56-0.51676-21.367-0.47228-0.7641-0.51112-28.569-0.0595-42.586 0.12829-3.9817 0.72717-7.7334 1.3308-8.3371 2.3728-2.3728 2.6632 0.592 2.1465 21.912-0.24944 10.292-0.0148 13.591 1.0282 14.457 0.95061 0.7887 1.1765 2.4688 0.76173 5.6646-0.51863 3.9959-1.168 21.259-2.0518 54.543-0.14603 5.5-0.58713 10.74-0.98022 11.645s-0.20054 3.5546 0.42789 5.8884c0.93972 3.4899 0.8838 4.5021-0.31491 5.7008s-1.6044 1.2198-2.2786 0.129zm-138.91-102.11c-0.90425-3.8402 0.50223-34.8 2.0329-44.75 0.38077-2.475 0.68012-8.1798 0.66522-12.677-0.02-6.0535 0.33171-8.3151 1.3543-8.7075 1.7946-0.6887 4.6794 2.1975 3.7138 3.7155-0.40913 0.6432-0.8089 2.2944-0.88839 3.6694-0.92131 15.938-1.5038 22.378-2.1118 23.345-0.39926 0.6351-0.81016 9.0297-0.91311 18.655-0.10294 9.625-0.22632 17.838-0.27418 18.25-0.20474 1.7647-3.0952 0.5532-3.5787-1.5zm105.79-6.9667c-0.54979-0.7058-0.88344-3.7583-0.74146-6.7833s0.5675-23.5 0.94562-45.5 0.81818-45.625 0.97793-52.5c0.66027-28.415 0.56187-39.891-0.40299-47-1.5656-11.535-1.3977-22 0.35294-22 1.9487 0 2.6261 2.5916 3.0672 11.735 0.20602 4.2707 0.81666 11.365 1.357 15.765 1.3549 11.033 1.4138 34.312 0.11541 45.609-0.59356 5.1648-1.3056 23.566-1.5822 40.891-0.91412 57.245-1.0209 60.377-2.0703 60.727-0.56072 0.1869-1.4693-0.2377-2.0191-0.9435zm14.262-52.3c-0.36289-1.9344-0.38657-3.9591-0.0526-4.4995s0.82314-10.095 1.0871-21.233c0.68152-28.757 0.6633-28.632 3.9815-27.359 1.2964 0.4974 1.5122 1.355 0.97486 3.8735-0.37961 1.779-0.88621 13.573-1.1258 26.209s-0.68916 23.773-0.99911 24.75c-0.94626 2.9814-3.1677 1.9807-3.866-1.7415zm-32.187-64.683c-0.41909-0.6781-0.92881-3.9479-1.1327-7.2663s-0.61666-10.053-0.91725-14.966c-0.58918-9.6301 1.1245-22.866 3.1815-24.573 2.1785-1.808 3.7415 1.2582 2.3625 4.6349-0.76475 1.8726-1.1617 9.7477-1.1412 22.636 0.0295 18.448-0.46864 22.584-2.3529 19.535zm-30.134-65.008c-0.59821-0.7208-1.2992-5.3563-1.5577-10.301s-0.78491-10.389-1.1697-12.098c-0.96663-4.2929 1.4948-5.097 5.4403-1.777 3.9005 3.2821 5.2505 8.1105 4.8605 17.384l-0.31538 7.5-3.0852 0.3011c-1.6968 0.1656-3.5746-0.2887-4.1728-1.0095zm25.758-3.1058c0-2.8926 2.188-4.9888 4.702-4.5047 1.252 0.2411 1.798 1.2532 1.798 3.3326 0 2.6382-0.37882 3.0228-3.25 3.2997-2.8646 0.2762-3.25 0.024-3.25-2.1276zm14.2-39.886c-0.66-0.66-1.2-3.6163-1.2-6.5696 0-4.9833 0.16044-5.3465 2.2304-5.05 1.8216 0.261 2.3804 1.2181 3.0487 5.2216 0.45002 2.6961 0.58544 5.5086 0.30094 6.25-0.64117 1.6709-2.7847 1.7433-4.38 0.148zm-69.408-60.341c-0.29748-0.2975-0.35908-8.06-0.13689-17.25s0.54494-40.334 0.71722-69.209c0.29612-49.633 1.5545-77.225 3.6195-79.363 1.9584-2.0275 3.0101 0.6454 2.4306 6.1776-1.6294 15.556-2.0783 33.622-1.8805 75.685 0.11897 25.3-0.0889 46.675-0.462 47.5-0.37307 0.825-0.37898 8.925-0.0131 18 0.41944 10.404 0.29993 16.962-0.3235 17.75-1.0244 1.2952-3.0091 1.6514-3.9513 0.7091zm43.874-36.126c-0.36667-0.3666-0.66667-1.7102-0.66667-2.9856s-0.52357-4.2766-1.1635-6.6691c-0.9377-3.506-0.81583-7.2443 0.62806-19.264 0.98534-8.2028 1.7865-15.364 1.7804-15.914s-1.2486-9.4677-2.761-19.817c-2.8012-19.168-2.6813-21.74 0.94884-20.347 1.2061 0.4628 1.5672 2.1375 1.5672 7.2668 0 3.6659 0.41831 8.2926 0.92958 10.281 3.717 14.459 3.9335 18.371 2.1795 39.389-0.87102 10.437-0.98202 16.188-0.32814 17 1.7098 2.1236 2.4063 7.509 1.2505 9.6686-1.0922 2.0409-3.0814 2.6753-4.3647 1.392zm53.304-55.869c-1.0236-1.2334-1.045-4.6314-0.10877-17.25 0.93298-12.574 1.3046-34.84 0.96865-58.029-0.0358-2.4712 0.80191-3.8865 1.7433-2.9451 0.31534 0.3153 1.2536 3.8602 2.0851 7.8775 1.4849 7.1744 1.4582 20.419-0.11637 57.676-0.58547 13.854-1.4959 16.377-4.5719 12.67zm-91.776-105.15c-0.92481-1.7794 0.0992-14.358 1.3312-16.351 0.32605-0.5276 1.1736-0.9592 1.8835-0.9592 0.96825 0 1.2658 2.3069 1.191 9.2348-0.0843 7.8095-0.35938 9.2851-1.7822 9.5604-0.92539 0.179-2.1059-0.4892-2.6234-1.4849zm84.236-3.7312c-0.9462-3.7699-0.11615-6.0497 2.3297-6.3987 1.8912-0.2698 2.2398 0.1454 2.2398 2.6683 0 6.0123-3.3171 8.7203-4.5695 3.7304zm8.9311-9.0791c-0.31659-0.825-0.36247-2.0625-0.10197-2.75s0.13271-8.45-0.28397-17.25-0.44499-16.339-0.0629-16.754 1.454-0.1896 2.3819 0.5c1.39 1.0329 1.7741 3.6315 2.1804 14.754 0.5759 15.765-0.0958 23-2.1353 23-0.7714 0-1.6616-0.675-1.9782-1.5zm-8.5964-8.8776c-0.92284-0.9228-1.827-4.3148-2.2229-8.339-1.0009-10.174 0.23871-69.58 1.522-72.938 0.59816-1.5651 1.5366-11.171 2.0854-21.346s1.242-22.1 1.5406-26.5 0.60284-22.924 0.67627-41.165 0.45159-33.484 0.84037-33.874c1.1969-1.2 4.0384 0.4567 3.4434 2.0075-0.30651 0.7988-0.60909 13.732-0.6724 28.742s-0.533 31.339-1.0438 36.289-1.109 18.306-1.3294 29.68-0.72287 21.202-1.1166 21.839c-0.66875 1.0821-1.0842 13.554-1.8543 55.674-0.17291 9.4563 0.0369 19.782 0.46621 22.946 0.9225 6.7979 0.0599 9.3782-2.3347 6.9836zm9.1161-52.872c-0.0652-0.6875-0.049-5.525 0.0362-10.75s-0.2723-10.138-0.7943-10.918c-0.64196-0.9592-0.44071-2.194 0.62191-3.8157 1.3292-2.0287 1.5495-6.1199 1.4311-26.582-0.0769-13.301-0.41634-28.009-0.75427-32.684-0.92986-12.864 0.45497-37 2.1229-37 0.73537 0 1.595 0.4175 1.9104 0.9277s0.76119 13.75 0.99073 29.422 0.71447 31.566 1.0776 35.322 0.10759 12.228-0.5679 18.828-1.3144 16.95-1.4198 23c-0.1299 7.4569-0.64667 11.725-1.6044 13.25-1.5638 2.4907-2.8682 2.9183-3.0502 1zm-81.694-44.024c-0.59983-0.7227-0.8096-3.123-0.48467-5.5456 0.45261-3.3744 1.1634-4.5766 3.3855-5.7257 2.8527-1.4752 7.1016-1.9314 8.1571-0.8758 0.83673 0.8367-3.293 10.694-5.0995 12.171-1.9657 1.608-4.6127 1.5972-5.9584-0.024zm70.274-115.14c-1.1671-1.7813-1.5136-3.8191-1.1581-6.8112 2.0044-16.87 3.7274-41.188 3.243-45.77-0.31981-3.025-0.77404-7.863-1.0094-10.751s-1.3605-9.5554-2.5003-14.816c-2.097-9.6788-2.0271-11.433 0.4555-11.433 1.7525 0 1.835 0.3236 5.1003 20 2.8772 17.338 2.8826 18.46 0.26262 54.5-0.11995 1.65-0.0979 4.8 0.049 7 0.6474 9.6954 0.62093 9.9451-1.0904 10.286-0.95977 0.1912-2.4047-0.7594-3.3522-2.2055zm-61.589-88.757c-1.1866-3.0062-1.1468-41.263 0.0599-57.61 0.59739-8.0924 1.3403-18.566 1.6509-23.274 0.59859-9.0732 1.4396-11.661 3.3964-10.452 1.1921 0.73675 0.99628 8.8796-0.74571 31.013-0.34631 4.4-0.65311 19.693-0.68178 33.985-0.048 23.929-0.19066 26.012-1.8021 26.323-0.9625 0.1858-1.8074 0.1924-1.8776 0.014zm3.1276-109.82c-0.825-0.53316-2.9521-0.97627-4.727-0.98469-2.2472-0.0107-3.6593-0.69845-4.6508-2.2653-1.648-2.6041-4.2619-16.444-3.2895-17.416 1.1259-1.126 4.6673 2.862 4.6673 5.256 0 6.3359 4.6384 11.878 8.6609 10.349 1.6192-0.61561 2.7119-0.42315 3.8052 0.67023 2.0328 2.0328 1.9342 3.1063-0.40044 4.3558-2.3243 1.2439-2.197 1.2428-4.0657 0.0352zm-46.427-7.5699c-1.6736-1.6736-2.1065-3.1751-3.0796-10.68-0.398-3.0697-0.24044-4.75 0.44541-4.75 0.5837 0 1.0613 1.1432 1.0613 2.5405 0 2.5257 3.3616 8.2312 5.75 9.7592 0.6875 0.43983 1.25 1.6773 1.25 2.75 0 2.4007-3.1836 2.6238-5.4271 0.38038zm52.61-1.4637c-1.1009-1.1817-2.4918-4.6951-3.0907-7.8075s-1.3255-6.7839-1.6145-8.1589c-0.28902-1.375-0.11025-3.1281 0.39726-3.8957 1.6888-2.5544 3.9604-0.38241 4.6902 4.4845 0.8504 5.6709 2.5027 9.0703 5.3926 11.094 1.3226 0.92638 2.037 2.342 1.8487 3.6633-0.43628 3.0613-5.0031 3.4326-7.6236 0.61984zm-13.955-90.825c-1.2762-0.78874-3.9043-14.249-4.4206-22.641-0.23721-3.8559 0.0263-5 1.1514-5 1.5164 0 1.9928 1.5292 4.5169 14.5 0.80274 4.125 1.7303 8.4314 2.0613 9.5699 0.68852 2.3681-1.476 4.7041-3.309 3.5712zm36.299-93.097c-0.95477-1.5449 0.43992-5.2215 1.8078-4.7656 1.5113 0.50377 1.5168 4.9378 7e-3 5.4412-0.6371 0.21237-1.4536-0.0917-1.8146-0.67561zm-1.1515-16.809c-1.2792-0.83589-2.6889-6.4643-2.5868-10.329 0.0377-1.4266 2.0718-8.8516 4.5203-16.5 3.8028-11.879 5.5033-18.487 8.292-32.223 0.31102-1.5319 1.0509-2.202 2.1846-1.9785 1.3688 0.26985 1.6554 1.2404 1.4221 4.8164-0.16071 2.4632-0.89515 6.0535-1.6321 7.9785-2.1003 5.4864-4.5757 14.481-4.5757 16.626 0 1.0724-1.3536 5.8313-3.0081 10.575-2.7498 7.8849-2.9137 9.0655-1.9085 13.753 1.4479 6.7514 0.47698 9.3623-2.7078 7.2813zm-51.635 1634.1c1.8859-1.4385 3.0534-2.9677 2.5944-3.3982-1.4648-1.3738-11.059-2.2411-11.786-1.0654-0.98646 1.5961-4.5233 1.3091-5.1872-0.421-0.77811-2.0277-6.7459-1.9468-8.4568 0.1146-1.1488 1.3842-1.0078 1.8837 0.98834 3.5 1.2806 1.037 3.8269 1.8854 5.6586 1.8854s3.6083 0.45 3.9482 1c1.2789 2.0693 8.6919 1.091 12.24-1.6154zm157.7-73.385c3.2275 0 3.2909-0.088 3.9208-5.4474 0.89789-7.6396-0.57461-10.553-5.3343-10.553-2.0066 0-4.4642 0.5966-5.4614 1.3258-1.6768 1.226-1.7161 1.8684-0.52336 8.5426 0.98019 5.4848 1.6291 7.0866 2.7038 6.6742 0.77771-0.2984 2.8902-0.5426 4.6946-0.5426zm-0.94411-20.398 3-0.1016 0.29381-7.25 0.29381-7.25h-3.4188c-1.8804 0-4.8935-0.2949-6.6958-0.6554l-3.277-0.6554 0.71102 7.8464c0.83547 9.2197 1.0766 9.7636 3.9272 8.8566 1.1912-0.379 3.5158-0.7348 5.1658-0.7906zm2.9719-25.874c-1.3248-11.47-3.1213-13.093-10.834-9.787-5.3942 2.3122-5.6292 3.8709-2.1996 14.588 0.1811 0.566 3.3496 1.1185 7.0411 1.2279l6.7118 0.1989-0.71934-6.2278zm-6.4296-15.328 3.5422-0.6075-0.0422-6.1462-0.0423-6.1462-3.5 0.1745c-11.398 0.5683-12 0.895-12 6.5137 0 6.0285 1.5182 8.1372 5.3389 7.4159 1.7386-0.3282 4.7551-0.8701 6.7033-1.2042zm4.2155-45.25c0.24929-2.0075 0.23077-6.2375-0.0412-9.4l-0.49441-5.75-4.1111 0.015c-2.2611 0.01-4.7595 0.4256-5.552 0.927-0.93724 0.593-2.4691 0.3799-4.3827-0.6096-3.577-1.8498-5.028-0.4544-4.2036 4.0423 0.28992 1.5813 0.52713 4.7621 0.52713 7.0686 0 3.744 0.34838 4.361 3.25 5.756 1.7875 0.8593 5.7935 1.571 8.9023 1.5814l5.6523 0.019 0.45324-3.65zm-1.6212-20.658c0.73106-0.2198 1.0878-2.9552 1-7.6666l-0.13658-7.3249-4.3317-0.3115c-6.5824-0.4733-9.1683 1.6736-9.1683 7.612 0 2.687 0.6777 5.722 1.5584 6.9795 1.3281 1.8962 2.1778 2.1384 5.75 1.6391 2.3054-0.3222 4.703-0.7396 5.3281-0.9276zm-3.1366-20.392 4-0.5996v-12l-4.4198-0.3158c-7.9404-0.5673-8.7096 0-9.4314 6.9015-0.75989 7.2702-0.30206 8.3177 3.2103 7.345 1.4525-0.4023 4.4409-1.0013 6.6409-1.3311zm4e-3 -18.1c2.0238 0 3.4103-5.1277 2.6745-9.8917-0.65852-4.2641-0.81978-4.4276-5.5515-5.6267-4.4028-1.1158-5.0544-1.0539-6.75 0.6417-2.7412 2.7412-2.6045 11.149 0.22746 13.981 1.5872 1.5871 2.8464 1.9557 5.125 1.5 1.6614-0.3323 3.585-0.6042 4.2745-0.6042zm1.1548-21.364c0.0872-0.075 0.31216-2.5965 0.5-5.604 0.39362-6.3024-0.38297-6.8563-7.0832-5.0521-4.0602 1.0933-4.0753 1.1155-4.0753 5.9755 0 2.9548 0.49284 5.0859 1.25 5.4051 0.99706 0.4203 8.7709-0.1784 9.4085-0.7245zm-3.1261-15.856c4.538-1.2137 4.5596-1.2403 4.2644-5.25-0.29234-3.9703-0.35967-4.0347-4.5339-4.337-5.6099-0.4063-7.6683 0.8833-7.9402 4.9742-0.41871 6.3006 0.32877 6.7206 8.2098 4.6128zm4.9633-22.03c0.36648-3.9875 0.28429-12.027-0.18264-17.865s-0.58532-11.688-0.2631-13c1.1754-4.7851 0.112-6.0114-4.9295-5.6846-4.3002 0.2787-4.6438 0.5054-4.9581 3.2699-0.55429 4.8757 0.85906 13.53 2.2096 13.53 3.0365 0 3.5599 2.2922 1.1716 5.1305-2.9552 3.5121-2.3804 6.6355 1.2997 7.0629 1.5609 0.1813 2.7752 1.0218 2.9715 2.0566 0.25532 1.3463-0.34888 1.75-2.619 1.75-1.623 0-3.4092 0.5625-3.9694 1.25-1.3557 1.6639-3.1781 8.465-2.4605 9.1826 0.3121 0.3121 2.929 0.5674 5.8155 0.5674h5.248l0.66632-7.25zm-0.26594-50.75c0.77342-9.0049 0.10215-27.054-1.0471-28.153-1.3239-1.2663-10.496 0.8622-11.937 2.7699-1.557 2.0626-1.2248 13.805 0.43752 15.467 0.53265 0.5327 2.1752 0.418 4.0276-0.2812 2.4852-0.9381 3.4554-0.9091 4.7206 0.1409 2.1789 1.8084 0.37544 3.848-3.7566 4.2485-3.0472 0.2954-3.1882 0.5072-3.4878 5.2415-0.17177 2.7136-0.0447 6.0001 0.28247 7.3035 0.53547 2.1335 1.065 2.3395 5.3123 2.0663l4.7175-0.3035 0.73006-8.5zm-6.0167-32.706 4.7133-0.5639-0.21332-6.0535c-0.20963-5.9487-0.27048-6.0682-3.5181-6.9078-2.7989-0.7236-3.7674-0.4651-6.3267 1.6884-1.6621 1.3985-3.4374 2.5428-3.9452 2.5428-1.3733 0-1.1178 8.4055 0.29859 9.8219 0.67202 0.672 1.9095 0.955 2.75 0.6289s3.6491-0.8466 6.2415-1.1568zm3.5367-18.84c1.4874-0.4649 1.6808-5.0692 0.25-5.9535-0.55-0.3399-1-2.3915-1-4.559 0-3.671-0.19629-3.941-2.8651-3.941-1.5758 0-4.021 0.9092-5.4338 2.0205-2.1926 1.7247-2.4836 2.5665-1.9878 5.75 1.1701 7.5136 1.8579 8.3917 6.0298 7.6982 2.0664-0.3435 4.3195-0.8003 5.007-1.0152zm-4.0944-20.004c2.9984-2.287 3.3444-3.0629 3.3444-7.5 0-4.5286-0.19973-4.9491-2.3508-4.9491-1.2929 0-3.7122 0.4746-5.3761 1.0546-2.6579 0.9266-3.0895 1.6243-3.5539 5.7439-0.92802 8.2334 1.9053 10.251 7.9364 5.6506zm-1.413-17.176 3.9147-1.7271-0.65042-7.0229c-1.0252-11.07-0.88482-10.863-6.8427-10.073-2.8204 0.3741-5.2381 0.7904-5.3728 0.925-0.7804 0.7804 1.9872 18.183 2.9934 18.822 1.6186 1.0286 1.484 1.0494 5.9578-0.9244zm-0.61127-24.038c1.335-0.8669 1.5484-14.006 0.24067-14.814-0.48286-0.2984-2.8789-0.2425-5.3245 0.1242l-4.4466 0.6669-0.30321 4.644c-0.43774 6.7047 1.4245 10.148 5.478 10.129 1.7734-0.01 3.7334-0.3459 4.3557-0.75zm-0.77208-19.83c1.3008-0.407 1.2525-1.5671-0.3916-9.4042-0.17308-0.825-0.34912-1.758-0.3912-2.0733s-2.5515-0.6385-5.5765-0.7181l-5.5-0.1447v4.7456c0 6.6986 1.9847 9.2056 6.7614 8.5405 2.0562-0.2863 4.3503-0.7119 5.0979-0.9458zm-1.2278-20.154c-0.34658-2.0625-0.91742-6.1125-1.2685-9-0.6915-5.6869-1.6061-6.2487-6.8981-4.2367-2.6487 1.0071-2.6608 1.0584-1.9453 8.25 0.39598 3.9802 1.2285 7.5673 1.8502 7.9714s2.8766 0.7416 5.011 0.75l3.8808 0.015-0.63014-3.75zm-5.0847-19.268c2.1901-0.8327 2.5438-1.4239 1.9447-3.25-0.40283-1.2277-0.868-4.6589-1.0337-7.6248-0.33163-5.9352-1.313-7.0689-6.1394-7.0921l-3.1815-0.015 0.30378 7.75c0.44825 11.436 1.4881 12.748 8.1062 10.232zm-11.547-0.9822c0-0.55-0.45-1-1-1s-1 0.45-1 1 0.45 1 1 1 1-0.45 1-1zm11.792-28.75-0.29206-7.75-10.5-1c-9.5-0.9048-10.5-1.1905-10.5-3 0-1.8807 0.55413-1.9799 9.292-1.6624 9.6936 0.3522 12.292-0.4555 11.66-3.6244-0.18791-0.9422-0.59951-3.3349-0.91466-5.317l-0.57302-3.6039-8.7051-0.6691c-4.7878-0.368-9.1571-1.1212-9.7096-1.6737-1.6173-1.6173 0.85257-4.4922 3.5815-4.1687 1.303 0.1545 4.9177 0.5432 8.0328 0.864l5.6638 0.5831 0.67913-5.4355c0.37352-2.9896 0.5248-6.5284 0.33619-7.864-0.38358-2.7163-2.341-2.9385-12.928-1.4677l-5.585 0.7759-1.665-5.9339c-0.91573-3.2637-1.665-7.5919-1.665-9.6183 0-4.3261-1.4708-4.8748-2.5048-0.9344-0.69554 2.6508-0.96008 6.3002-1.8666 25.75-0.23071 4.95-0.57904 12.355-0.77407 16.455-0.34402 7.232-0.28073 7.4721 2.1186 8.0388 2.5533 0.603 3.8533 3.1406 6.0384 11.787 1.1048 4.3716 2.9884 4.9086 2.9884 0.8519 0-3.209 2.2076-5.8734 4.225-5.0993 0.91973 0.353 2.3973 2.8247 3.2835 5.4927 1.6291 4.9046 2.6109 5.6436 7.7836 5.8585l2.7921 0.116-0.29207-7.75zm18.891-20.866c1.1957-3.1161-1.4244-21.286-3.5546-24.651-1.7794-2.8104-2.101-2.9676-2.728-1.3337-0.39093 1.0187-0.23611 3.2581 0.34405 4.9763s1.0251 6.5009 0.98867 10.628c-0.0638 7.2398 1.2579 11.996 3.3337 11.996 0.54791 0 1.2752-0.727 1.6162-1.6156zm-20.203-39.986c0.41128-4.9374 0.32654-8.9917-0.19893-9.5172-0.5035-0.5035-4.5977-1.1994-9.0982-1.5464l-8.1828-0.631 0.0153 8.3982c8e-3 4.619 0.35462 8.9318 0.76933 9.584 0.66597 1.0473 3.0525 1.4289 13.347 2.134 2.6019 0.1782 2.6398 0.083 3.3482-8.4216zm0.92003-16.148c-0.055-0.6875-0.1675-3.7129-0.25-6.7232l-0.15-5.4732-9.75 0.6012c-5.3625 0.3307-10.119 0.9351-10.57 1.343s-0.51328 2.3753-0.13871 4.3719c0.65161 3.4734 0.85992 3.6314 4.8198 3.6565 2.2763 0.014 5.9387 0.8866 8.1387 1.9382 4.3963 2.1014 8.0558 2.2337 7.9 0.2856zm-0.98333-18.5c-0.0458-0.9625-0.15834-4.225-0.25-7.25l-0.16667-5.5h-5.375c-11.06 0-12.437 0.8549-13.93 8.6459-0.56087 2.9266-0.37948 3.1841 2.6013 3.6924 1.7623 0.3005 5.0042 0.9805 7.2042 1.5113 6.0166 1.4514 10.017 1.0078 9.9167-1.0996zm0.0833-24.667c0-6.6677-0.20209-7.4422-2-7.6656l-7-0.8807c-6.8354-0.8644-7.8159 0.061-8.3117 7.8474-0.39443 6.1945-0.29692 6.5468 1.9482 7.0385 4.8836 1.0695 7.4772 1.3465 11.363 1.214l4-0.1365v-7.4171zm-0.57551-13.015c1.7613-1.1147 1.5662-12.136-0.23512-13.281-0.65415-0.416-4.393-0.7632-8.3085-0.7716l-7.1192-0.015-0.61983 3.75c-1.135 6.8667-1.028 7.0706 4.1082 7.8265 2.6125 0.3845 5.6376 1.312 6.7225 2.0613 2.2927 1.5833 3.4815 1.6771 5.452 0.43zm-4e-3 -18.998c1.0784-0.6825 1.3718-3.0047 1.2171-9.6334-0.11209-4.8037-0.43007-9.1001-0.70662-9.5476s-1.4992-0.4361-2.7171 0.025c-3.303 1.2513-11.464 3.0857-13.729 3.0857-2.8571 0-2.4505 1.4912 1.1816 4.3338 3.162 2.4746 3.1716 2.4756 5.7793 0.5476 2.2192-1.6407 3.0965-1.7623 5.8327-0.8085 1.7714 0.6175 3.2207 1.5129 3.2207 1.9897 0 1.7267-3.7008 2.7872-7.8053 2.2367-3.6935-0.4954-4.1947-0.3279-4.1947 1.4015 0 1.1465 1.5611 3.0332 3.75 4.5321 4.0812 2.7948 5.9825 3.2223 8.1709 1.8371zm-21.088-7.4509c0.5065-2.6122-1.7692-4.9166-3.4653-3.509-1.6904 1.4029-1.7466 3.1106-0.15482 4.7024 1.5489 1.5489 3.1934 1.0068 3.6201-1.1934zm2.9832-15.486c0.92634-0.477 5.4112-0.5814 9.9662-0.232s8.6184 0.2988 9.0297-0.1125 0.50934-3.1101 0.21802-5.9975c-0.4613-4.5721-0.87471-5.3708-3.2022-6.1862-2.077-0.7276-3.3025-0.5093-5.5 0.9796-1.5551 1.0537-3.7275 1.9431-4.8275 1.9764s-3.6875 0.4209-5.75 0.8613c-3.5182 0.7512-3.75 1.0307-3.75 4.5227 0 4.9213 0.76377 5.7596 3.8157 4.1882zm-1.8512-14.595c2.2197-2.3628 2.293-2.9509 1.8149-14.559-0.52491-12.745-1.6092-15.947-4.2078-12.425-2.5734 3.4882-3.0575 11.983-1.6355 28.696 0.12109 1.423 1.7223 0.7425 4.0283-1.7122zm16.784-2.8267c2.6897 0.1213 3.3569-0.284 3.8768-2.3555 0.78879-3.1428 0.041-3.8009-5.9755-5.2592-6.0514-1.4667-7.6501-0.3997-7.6501 5.1055v3.957l3.25-0.7971c1.7875-0.4385 4.712-0.7312 6.4988-0.6507zm2.6254-13.244c0.32352-0.8431 0.30756-4.2181-0.0355-7.5-0.55352-5.2958-0.87162-5.9671-2.8276-5.9671-4.3904 0-8.2552 2.822-8.9521 6.5366-0.86995 4.6372-0.13016 5.6334 3.2263 4.3447 2.3776-0.913 2.956-0.722 4.6598 1.5382 2.238 2.9688 3.1032 3.1996 3.929 1.0476zm-1.5716-19.034c0.90648-0.286 1.2106-2.011 1-5.6721l-0.3022-5.2612-4.6066-0.2989-4.6066-0.299-0.66021 5.6173c-0.36311 3.0895-0.39256 6.0504-0.0654 6.5796 0.52536 0.8501 5.5935 0.485 9.2414-0.6657zm0.56706-18.683c2.0529-7.6602-0.3973-14.515-4.7688-13.341-1.1555 0.3102-2.4424 0.5701-2.8597 0.5776s-0.48265 2.6012-0.14522 5.7637c0.42235 3.9584 1.2385 6.2953 2.6195 7.5 2.7135 2.3672 4.4304 2.2006 5.1542-0.5zm-0.36926-25.55c0-7.3135-0.97019-9.2-4.7314-9.2-2.7457 0-2.9178 0.4286-3.7146 9.25l-0.60972 6.75h9.0557v-6.8zm-1-20.2c0-3.5835-0.42962-6-1.0667-6-0.5867 0-2.5417-1.125-4.3444-2.5-3.6335-2.7714-6.7389-3.0317-13.835-1.1596-6.6506 1.7544-7.2039 2.5466-5.4396 7.7882 1.3446 3.9947 1.7888 4.3985 5.1552 4.6863 3.0253 0.2587 3.7804-0.054 4.2239-1.75 0.62866-2.404 3.3067-2.8082 3.3067-0.4992 0 3.929 1.9487 5.4343 7.0352 5.4343h4.9648v-6zm-0.85985-19.588c-0.19791-3.8013-0.76041-7.6694-1.25-8.5958s-0.89015-3.0076-0.89015-4.625c0-2.489-0.47653-3.036-3.1021-3.5611-2.2374-0.4475-3.8832-0.064-5.9044 1.375-1.5413 1.0975-4.1407 1.9954-5.7766 1.9954-3.4417 0-5.0402 2.881-5.2712 9.5-0.29864 8.5597-0.89467 8 8.5185 8 6.7442 0 8.8217 0.3574 10.223 1.7589 2.9746 2.9746 3.836 1.5158 3.4526-5.8474zm-14.59-20.354c0.5225-0.5185 3.425-1.081 6.45-1.25l5.5-0.3073 0.21177-3.5c0.11647-1.925-0.0236-5.4125-0.31127-7.75-0.47947-3.8959-0.76317-4.25-3.4051-4.25-1.8272 0-3.4406 0.7974-4.408 2.1787-1.005 1.4349-2.9874 2.3737-5.8067 2.75l-4.2807 0.5713-0.19052 6.25c-0.18878 6.1926-0.16537 6.25 2.55 6.25 1.5073 0 3.168-0.4242 3.6905-0.9427zm6.2-20.718 6.25-0.6131v-4.7561c0-3.4145-0.44621-4.9273-1.5818-5.3631-2.7934-1.0719-4.2725-0.6618-6.8273 1.893-1.375 1.375-3.6086 2.5-4.9637 2.5-4.121 0-5.6272 1.0547-5.6272 3.9403 0 3.5253 0.89904 4.3385 3.9878 3.607 1.3817-0.3272 5.3247-0.8709 8.7622-1.208zm-0.96832-14.667c8.0103-1.184 7.5697-0.6718 8.6534-10.059l0.56418-4.8869-6.2496 0.5396c-3.8476 0.3323-7.9792 1.4726-10.75 2.9669-4.2324 2.283-4.508 2.6885-4.6336 6.8187-0.18145 5.9623 0.4349 7.2685 3.0216 6.4034 1.1616-0.3886 5.3888-1.1908 9.3938-1.7828zm6.9683-20.181c0.8134-0.2787 1.25-2.5227 1.25-6.4245 0-4.9048-0.35206-6.1846-1.9343-7.0314-2.9228-1.5643-6.2362-1.2392-9.5352 0.9354-1.7459 1.1508-3.8627 1.7331-5.1372 1.4133-2.9868-0.7497-5.3933 2.9368-5.3933 8.2619v4.2008l9.75-0.4636c5.3625-0.2549 10.312-0.6563 11-0.8919zm-6.8805-18.194 6.3695-0.4783-0.53544-3.992c-0.29449-2.1956-0.7467-4.2032-1.0049-4.4615-1.0314-1.0314-15.915 0.9943-17.272 2.3507-1.7592 1.7592-1.8785 6.9228-0.17687 7.6558 0.6875 0.2962 2.375 0.2832 3.75-0.029s5.3663-0.7827 8.8695-1.0458zm-9.5538-13.433c3.0247-1.5723 2.9695-1.4349 1.513-3.7671-1.0706-1.7144-1.0746-2.4741-0.0217-4.1599 0.70844-1.1344 1.052-2.8219 0.76337-3.75-1.0187-3.2763 0.91184-4.2483 9.6642-4.866 7.7342-0.5458 8.9249-0.3861 12.196 1.6358 4.6023 2.8444 5.9584 1.8736 8.1241-5.8157 0.87391-3.1029 2.1184-6.9916 2.7656-8.6416 0.70476-1.7969 1.1253-7.9093 1.0485-15.242-0.10133-9.6823-0.48362-12.784-1.8285-14.837-0.93523-1.4273-1.9396-2.356-2.2319-2.0636-0.53833 0.5383-2.1007 7.6821-4.8188 22.033-2.1394 11.296-8.9152 21.668-11.503 17.609-1.3549-2.1254-1.2123-5.7564 0.26315-6.7003 3.2129-2.0555 5.1431-5.935 7.4572-14.989 2.0335-7.9559 2.6072-13.12 3.0339-27.311 0.86204-28.669 0.67325-45.844-0.53058-48.267-0.61026-1.2284-1.3231-5.8334-1.5841-10.233-0.59113-9.9658-3.7064-22-5.6952-22-1.1054 0-1.5477 2.1631-1.9426 9.5-0.28124 5.225-0.81786 9.9777-1.1925 10.562s-0.77505 4.6338-0.88983 9c-0.2463 9.3692-1.1758 13.24-4.0597 16.906-1.458 1.8536-2.8677 6.6679-4.4994 15.366-2.3475 12.514-4.665 20.01-10.408 33.666-3.3495 7.9644-3.9347 16.872-1.4926 22.717 1.8098 4.3314 2.1556 15.546 0.70226 22.773-0.82715 4.1132-0.80846 6.3082 0.0745 8.75 1.2926 3.5745 1.8528 3.8082 5.0926 2.124zm12.862-4.7829c1.2774-1.6051 3.2225-3.0676 4.3225-3.25 2.0262-0.3359 2.1954 0.2622 0.9671 3.4184-1.0132 2.6033 2.0792 2.2358 3.9762-0.4725 3.1061-4.4346 1.5009-6.4357-6.7006-8.3533-3.6596-0.8556-7.3789 1.6428-8.2328 5.5304-0.36511 1.6624-1.0792 3.2792-1.5869 3.5929-1.8844 1.1647-0.83181 2.4525 2.0045 2.4525 2.0374 0 3.6337-0.8873 5.25-2.9184zm-14.311-94.215c1.1733-2.8233 2.1333-6.0091 2.1333-7.0794 0-1.6631-0.47259-1.851-3.25-1.292-7.0871 1.4264-8.6037 2.5795-5.1407 3.9084 1.2456 0.4779 1.4606 1.4101 0.9515 4.124-1.3606 7.2526 2.3346 7.4887 5.3059 0.339zm3.9627-15.74c0.73114-0.4635 1.6957-3.797 2.1435-7.4079s1.1156-7.0529 1.484-7.649c1.4459-2.3395-2.6526-2.1211-7.8423 0.418-6.0792 2.9743-6.6146 3.7859-6.6146 10.028 0 3.9797 0.2351 4.3874 2.75 4.7683 4.8775 0.7389 6.7226 0.703 8.0793-0.1571zm-1.9736-23.377c0.69069-0.6875 2.4682-1.25 3.95-1.25 2.4878 0 2.7393-0.383 3.2832-5 0.32395-2.75 0.84886-5.675 1.1665-6.5s0.84863-2.7375 1.18-4.25c0.49246-2.2475 0.25493-2.75-1.2998-2.75-1.939 0-3.0962-2.502-3.122-6.75-0.0116-1.908-0.55294-2.25-3.5619-2.25-3.0311 0-3.7408 0.4579-4.8693 3.1418-2.2608 5.3767-1.1418 6.9368 4.7529 6.6264 4.1674-0.2195 5.1575 0.048 5.4502 1.4728 0.51348 2.4994-5.593 7.759-9.0084 7.759-2.2566 0-2.7771 0.4451-2.7771 2.375 0 1.3063-0.28125 3.7813-0.625 5.5-0.56254 2.8127-0.38267 3.125 1.8 3.125 1.3338 0 2.9901-0.5625 3.6808-1.25zm5.3593-42.765c-0.60965-5.5286-1.022-6.5288-2.7958-6.7823-1.1444-0.1635-3.1111 0.537-4.3704 1.5568-2.0518 1.6614-2.2163 2.3879-1.583 6.9921 0.69346 5.042 0.77513 5.1439 4.3704 5.4523 2.0151 0.1728 3.9856 0.078 4.3789-0.2099s0.39331-3.4423 0-7.009zm-63.853-1.4849c-0.31659-0.825-0.97746-1.5-1.4686-1.5s-0.89301 0.675-0.89301 1.5 0.66088 1.5 1.4686 1.5c0.89459 0 1.2436-0.5863 0.89301-1.5zm62.85-12.765c1.1393-1.7355 0.51947-8.0046-0.83539-8.449-1.8738-0.6145-7.3759 4.7089-7.3759 7.1363 0 1.2345 0.33437 2.5788 0.74306 2.9875 1.0397 1.0398 6.4883-0.1821 7.4682-1.6748zm-3.2887-13.195c2.9831-1.5426 4.0414-3.9618 4.0638-9.29 0.0156-3.7142-2.0234-4.3132-5.7638-1.6933-1.8338 1.2845-2.2225 2.5087-2.2225 7 0 2.9938 0.24735 5.4433 0.54966 5.4433s1.8201-0.657 3.3729-1.46zm-2.4226-16.54c0.33992-0.55 1.8988-1 3.4642-1h2.8462l-0.54051-6.25c-0.29728-3.4375-0.68318-6.4161-0.85755-6.619s-1.0456 0.3595-1.9361 1.25-2.1518 1.619-2.8029 1.619c-1.091 0-3.0025 4.283-4.3513 9.75-0.4402 1.7842-0.12914 2.25 1.5024 2.25 1.1316 0 2.3357-0.45 2.6756-1zm5-26c0-8.264-2.1773-8.9633-4.6698-1.5-2.5729 7.7042-2.4059 8.6822 1.4198 8.3134l3.25-0.3134v-6.5zm-0.40625-21.05c2.5624-1.3713 1.5174-2.9498-1.9528-2.9498-2.6486 0-5.141 1.5513-5.141 3.2 0 1.1533 4.7868 0.9845 7.0938-0.2502zm7.3957-10.933c0.33413-0.5406 0.2791-2.6781-0.12231-4.75-0.6816-3.5181-0.77734-3.6018-1.4488-1.267-1.0606 3.6877-1.0499 7 0.0226 7 0.51754 0 1.2144-0.4423 1.5485-0.983zm-3.7395-85.517c0-6.5096-0.97028-8.6797-2.9815-6.6685-0.74297 0.74297-0.69439 1.9332 0.16346 4.0042 0.96934 2.3402 0.95998 3.3644-0.0455 4.9744-1.0256 1.6422-1.0186 2.3258 0.037 3.5976 2.1085 2.5406 2.8265 1.0398 2.8265-5.9078zm-8.1243-7.967c0.30962-0.80686 0.1455-2.7194-0.36471-4.25-0.67151-2.0145-1.5912-2.783-3.3306-2.783-2.7854 0-3.4612 1.9737-1.9955 5.8288 1.1155 2.9339 4.7333 3.6995 5.6908 1.2042zm18.575-5.5874c3.7739-7.6448 5.0546-26.661 2.2776-33.817-0.77439-1.9956-2.1317-7.9034-3.0163-13.128s-2.3006-10.266-3.1467-11.202c-1.2955-1.4333-1.6087-6.7216-1.9838-33.5-0.44532-31.793-1.2788-42.029-3.5354-43.424-2.3408-1.4467-2.9958 0.43835-2.3258 6.6938 0.37237 3.4772 0.20656 10.509-0.36847 15.627s-1.3006 13.805-1.6124 19.305-1.0361 12.025-1.6096 14.5c-0.57353 2.475-1.2772 6.3-1.5638 8.5s-0.9249 4.4275-1.4186 4.95-0.9136 2.9975-0.93319 5.5-0.72974 7.25-1.5781 10.55-1.7861 7.0192-2.0838 8.2648-0.93757 2.5097-1.4219 2.809-0.8806 1.4133-0.8806 2.4755c0 2.1155 8.4294 8.8847 11.115 8.9259 1.8996 0.0292 6.8849 3.7422 6.8849 5.1279 0 0.52689 1.575 2.3408 3.5 4.031 4.206 3.6929 4.3481 5.6992 0.94857 13.386-2.5282 5.7168-2.6071 9.0057-0.19804 8.2583 0.68721-0.21319 2.0149-1.9381 2.9504-3.8332zm-4.7178-10.542c-2.1104-3.3457-4.56-0.65279-3.0309 3.3319 0.56742 1.4787 0.76848 1.472 2.3176-0.0772 1.2209-1.2209 1.4208-2.1331 0.71326-3.2548zm-16.782-0.59752c-0.37079-2.7644-1.3504-4.7878-2.8745-5.9375-2.0513-1.5473-2.1856-2.079-1.1905-4.7154 1.0452-2.7691 0.86002-3.2192-2.7213-6.6129-2.3834-2.2585-4.0861-4.938-4.4833-7.0555-0.71564-3.8147-1.766-4.9324-5.4614-5.8113-3.8496-0.91558-7.2283 0.25281-6.3831 2.2074 0.38492 0.89022 1.3834 3.6436 2.2189 6.1186 2.5551 7.5694 4.6682 9.8454 9.4639 10.194 3.0677 0.22289 4.3035 0.78192 4.5452 2.0561 0.25665 1.353-0.3518 1.75-2.6824 1.75-4.16 0-4.8058 1.6742-1.8638 4.8313 1.3679 1.4678 3.0079 3.6812 3.6444 4.9187 0.87534 1.7017 2.0338 2.25 4.7538 2.25h3.5965l-0.56247-4.1935zm8.9001-3.3939c1.7669-4.2288 1.1058-5.3936-4.137-7.2895-2.7685-1.0011-3.9435-1.0426-4.8133-0.16977s-0.62472 1.5711 0.99139 2.8506c1.1781 0.93281 2.8772 3.1585 3.7757 4.946s1.87 3.25 2.159 3.25 1.1998-1.6143 2.0242-3.5874zm-16.017-34.913c2.0155-5.8186 1.9029-6.044-3.6606-7.3282-6.7254-1.5524-20.924-1.5639-20.924-0.017 0 0.63514 1.0125 3.3286 2.25 5.9854l2.25 4.8306 6.7174-0.18468c3.6946-0.10157 7.051 0.14899 7.4588 0.5568 1.796 1.796 4.5827-0.0166 5.9081-3.8429zm-120.53-3.75c0.0315-0.1375 0.31065-4.8625 0.62029-10.5l0.56298-10.25h-4.1203c-4.5128 0-4.9501 0.80385-2.4845 4.5669 0.93531 1.4274 1.8493 5.4805 2.1344 9.4648 0.35626 4.9792 0.88838 6.9683 1.8642 6.9683 0.7511 0 1.3914-0.1125 1.4229-0.25zm119.87-11.97c0.59024-1.6932 1.0732-4.3256 1.0732-5.8498 0-2.2611-0.54783-2.8916-2.9756-3.4249-1.6366-0.35945-3.4733-0.34595-4.0816 0.03s-4.2878 0.97181-8.1767 1.3241l-7.0707 0.64052-1.3709 3.9683c-0.75399 2.1826-1.1892 4.4326-0.96716 5 0.23738 0.60662 4.9551 1.1056 11.45 1.2109l11.046 0.17924 1.0732-3.0785zm-5.5795-13.362 7.6527-0.69346v-9.9108l-9.75 0.71281c-5.3625 0.39205-9.9025 0.849-10.089 1.0155-0.84531 0.75511-2.1321 8.6964-1.5594 9.6232 0.35239 0.57018 1.8674 0.79134 3.3668 0.49148s6.1697-0.85727 10.379-1.2387zm0.37548-14.099c3.4225-0.30166 6.6293-1.0593 7.1262-1.6837s0.67468-3.7671 0.39519-6.9838l-0.50815-5.8486-3.118 0.72487c-1.7149 0.39868-5.368 1.019-8.118 1.3786-6.6246 0.86608-7.1161 1.2764-7.838 6.543-0.84469 6.1627-0.052 7.8991 3.2293 7.0741 1.4348-0.36071 5.4089-0.90266 8.8314-1.2043zm14.277-6.819c0-2.475-0.45-4.5-1-4.5s-1 2.025-1 4.5 0.45 4.5 1 4.5 1-2.025 1-4.5zm-13-10.155c3.025-0.35507 5.725-0.98239 6-1.394s0.34753-3.494 0.16118-6.8496c-0.32674-5.8836-0.43372-6.0977-3-6.0047-1.4636 0.053-5.1362 0.61553-8.1612 1.25l-5.5 1.1536-0.58375 6c-0.70281 7.2237-0.43782 7.8603 2.951 7.0894 1.448-0.32943 5.1078-0.88947 8.1328-1.2446zm14-2.8448c0-1.375-0.4125-2.5-0.91667-2.5-1.1713 0-1.9255 2.128-1.329 3.75 0.79598 2.1645 2.2457 1.3576 2.2457-1.25zm-11.594-15.142 4.1746-0.5722-0.40531-6.6428c-0.43857-7.1877-1.5927-9.6093-4.086-8.573-3.2935 1.3689-8.0898 2.188-8.0898 1.3816 0-1.3865 4.2933-3.9514 6.6141-3.9514 1.5058 0 2.37-0.80059 2.8262-2.618 0.36139-1.4399 0.52268-2.7164 0.35841-2.8367-2.5577-1.8726-11.946-6.5453-13.151-6.5453-0.90707 0-1.9364 1.1999-2.3591 2.75-1.3228 4.8511-0.53122 24.37 1.2128 29.906 0.2668 0.84693 1.4834 0.77068 4.5475-0.28502 2.3008-0.79269 6.0619-1.6988 8.3579-2.0135zm13.094-14.858c0-1.0083-0.50706-2.0024-1.1268-2.2089-1.3171-0.43903-2.6538 2.4459-1.7848 3.852 0.9313 1.5069 2.9116 0.38939 2.9116-1.643zm3.3881-10.25c-0.14446-1.5125 0.49662-4.1902 1.4246-5.9503 2.3493-4.456 2.2045-4.9481-2.2928-7.7871-4.7174-2.9779-6.0199-3.1346-6.0199-0.72398 0 0.98371-0.89092 3.536-1.9798 5.6718-1.9593 3.8431-1.449 6.5396 1.2376 6.5396 0.55709 0 2.0555 1.125 3.3298 2.5 3.0278 3.267 4.6275 3.174 4.3005-0.25zm-12.418-11.426c0.5664-2.0131 1.3673-3.997 1.7798-4.4087 1.523-1.52 0.68288-4.1999-1.5-4.7849-6.4606-1.7314-10.176 0.24776-11.334 6.0377-0.54815 2.7408-0.2325 3.2408 3.2381 5.1299 5.1013 2.7767 6.5844 2.4021 7.8157-1.974zm18.477-7.7249c0.55957-1.0456 1.2712-4.3081 1.5813-7.25s0.79262-6.4249 1.0722-7.7399c1.0483-4.9307 0.37833-23.981-1.1995-34.109-0.89969-5.775-1.9205-13.164-2.2684-16.42-0.86417-8.0871-3.067-8.6914-3.3294-0.91342-0.3381 10.021-0.6273 15.625-1.1267 21.833-0.26545 3.3-0.74919 9.875-1.075 14.611-0.72235 10.502-2.715 16.486-6.702 20.128-1.6607 1.5168-2.732 3.2229-2.3808 3.7913s2.6054 1.9579 5.0091 3.0878 4.8984 2.6905 5.5437 3.4681c1.6328 1.9674 3.6708 1.7638 4.8755-0.48723zm-141.95-29.047c0-1.0717 1.1403-3.1789 2.534-4.6828 5.366-5.7901 6.7448-10.736 7.2115-25.869 0.47157-15.291-0.50986-20.77-3.3045-18.451-2.352 1.952-3.9274-0.19811-2.7281-3.7232 0.71143-2.0911 0.36881-5.6856-1.3178-13.826-1.2536-6.05-2.3035-12.8-2.3331-15-0.1104-8.1952-3.2894-28.12-5.0258-31.5-1.3073-2.5446-1.6635-4.8901-1.305-8.5928 0.44187-4.5634 0.0615-5.8792-3.6591-12.658-2.2837-4.1611-4.7694-7.8024-5.5238-8.0919s-1.9517-2.1307-2.6608-4.0916c-1.289-3.5648-3.513-4.7045-4.4443-2.2776-0.27176 0.70821-0.72824 11.396-1.0144 23.75s-0.73138 26.512-0.98939 31.462 0.0581 19.012 0.70244 31.248c1.101 20.908 1.0639 22.367-0.61554 24.223-1.2587 1.3908-1.6104 2.8583-1.1894 4.9632 0.39366 1.9683 0.0968 3.4893-0.86957 4.4557-0.80699 0.80699-1.4673 1.8015-1.4673 2.21 0 1.7935 3.5371 4.4002 5.9708 4.4002 2.043 0 3.1604 0.88873 4.8118 3.8271 2.4154 4.2976 6.9991 8.9756 12.217 12.469 2.7559 1.8448 3.4388 2.9128 3.2122 5.0236-0.15832 1.4744 0.17918 2.6807 0.75 2.6807s1.0378-0.87682 1.0378-1.9485zm140.5-52.621c0-1.9697-0.56262-3.0113-1.75-3.24-1.8306-0.35253-2.3508 2.0805-1.1268 5.2701 0.97281 2.5351 2.8768 1.1915 2.8768-2.0301zm-120.47-62.18c1.5144-7.7243 1.7506-16.93 0.58373-22.75-0.44113-2.2-0.93952-4.1428-1.1075-4.3174-0.74482-0.77396 1.9064-7.8195 4.5738-12.154 1.6072-2.6121 2.9223-5.847 2.9223-7.1887s0.44604-2.8854 0.99119-3.4306c1.4944-1.4944 3.0012-9.8402 3.5945-19.909 0.29168-4.95 0.7166-9.5664 0.94427-10.259s-0.0633-2.4923-0.64665-4-1.4525-5.8913-1.9316-9.7413c-1.4716-11.827-2.5581-17.508-3.5255-18.435-0.50943-0.48833-2.9512-1.2785-5.4262-1.756-3.591-0.69276-4.803-1.4798-6-3.8962-0.825-1.6654-2.6993-4.577-4.1652-6.4702-2.7649-3.571-6.9995-14.235-9.6063-24.192-1.0468-3.9985-1.9963-5.75-3.117-5.7501-1.4486-7e-5 -1.5818 2.6536-1.3168 26.25 0.16211 14.438 0.38711 29.175 0.5 32.75 0.16427 5.2023-0.0942 6.5-1.2948 6.5-2.2891 0-3.0364-8.0216-3.2142-34.5-0.1597-23.781 0.88066-33.551 3.6874-34.628 1.0563-0.40534 1.2848-6.0854 0.58807-14.622-0.0337-0.4125-0.7041-0.75-1.4899-0.75-0.94805 0-2.6684 3.9528-5.1141 11.75-2.027 6.4625-4.5341 13.522-5.5714 15.688-1.4386 3.0038-1.8885 6.206-1.8968 13.5-0.0103 9.1313-0.87737 13.66-4.32 22.562-0.85073 2.2-1.7827 5.8-2.071 8s-0.97126 6.025-1.5176 8.5c-1.5413 6.9817-1.261 12.468 0.91947 18 1.1 2.7907 2 6.2124 2 7.6037s1.0808 3.9622 2.4017 5.713c3.4302 4.5465 5.792 10.776 5.1124 13.483-0.41145 1.6393 0.0397 2.8277 1.5326 4.0365 1.8948 1.5343 1.9815 2.0076 0.83031 4.5342-1.1182 2.4542-1.0638 2.9451 0.41888 3.7748 0.93732 0.52456 1.7042 2.0615 1.7042 3.4154 0 2.7785 6.248 12.411 10.984 16.934 3.2346 3.089 9.0155 13.4 9.0155 16.081 0 2.1398 4.5396 6.4246 6.8067 6.4246 1.5454 0 2.1433-1.253 3.221-6.75zm-14.113-43c-0.0469-0.9625-0.023-4 0.0531-6.75 0.10885-3.9332-0.40634-5.7348-2.4148-8.4443-1.4042-1.8944-2.5531-4.2003-2.5531-5.1243s-0.719-3.6491-1.5978-6.0557c-3.6199-9.9136-4.5871-16.876-2.3446-16.876 1.2443 0 3.9424 5.4682 3.9424 7.9902 0 1.1492 0.9 3.8536 2 6.0098s2 4.9758 2 6.2659 1.125 3.8704 2.5 5.7341c1.7578 2.3826 2.5 4.6709 2.5 7.7078 0 2.3756 0.52102 5.1536 1.1578 6.1732 1.6408 2.6274 0.36251 5.1189-2.6264 5.1189-1.7117 0-2.559-0.56667-2.6166-1.75zm123.31 31.75c1.163 0 2.8937 0.70515 3.8461 1.567 1.9914 1.8022 1.8113 1.9942 9.4345-10.067 4.1242-6.5253 4.3849-7.3426 3.8435-12.052-0.49913-4.3414-0.14068-5.9238 2.5489-11.252 6.12-12.124 7.7973-18.196 5.0259-18.196-1.0001 0-7.939 14.374-9.932 20.574-2.5746 8.0096-9.9159 22.935-11.435 23.25-3.366 0.69648-2.8241-3.1759 1.7075-12.202 2.5186-5.0169 6.8744-13.847 9.6794-19.622 2.805-5.775 6.8896-13.423 9.0769-16.996s3.9769-7.0847 3.9769-7.8049 0.82039-3.1971 1.8231-5.5044c5.8012-13.349 8.0196-21.108 7.4208-25.952-0.30948-2.504 0.10141-4.6208 1.2319-6.346 1.0373-1.5831 1.8699-5.368 2.1432-9.7427 0.24584-3.9347 0.91314-8.8921 1.4829-11.017 1.111-4.1426 0.32881-11.637-1.2145-11.637-0.51527 0-1.3759 1.2375-1.9125 2.75s-1.3792 3.4574-1.8725 4.3219c-4.6571 8.1628-8.7685 17.503-9.6521 21.928-0.3844 1.925-1.5056 4.642-2.4915 6.0378s-2.3151 5.4458-2.9536 9-1.5759 7.8442-2.083 9.5332-0.92205 4.25-0.92205 5.691-0.45 2.8981-1 3.238-1.0028 1.604-1.0062 2.809-0.58333 3.316-1.2888 4.691-2.1117 4.75-3.125 7.5-2.8541 6.125-4.0906 7.5-2.7853 4.1812-3.4418 6.2361-1.6108 3.9939-2.1206 4.309-0.92704 1.2823-0.92704 2.1493-1.0738 2.5715-2.3862 3.7878c-1.4428 1.3371-2.6736 3.9524-3.1131 6.6147-0.39977 2.4218-1.1319 4.9064-1.6269 5.5215-1.094 1.3592-1.1909 6.4753-0.30679 16.189 0.61259 6.73 0.77882 7.1444 2.1057 5.25 0.79236-1.1312 2.3922-2.0568 3.5552-2.0568zm-155.75-49.7c-3.4153-8.174-4.736-18.262-4.0322-30.8 0.8486-15.116 1.7808-20.038 4.3189-22.803 1.1092-1.2084 2.3243-3.6521 2.7004-5.4304 0.8145-3.8516-1.7266-13.417-4.658-17.534-1.8137-2.547-4.7464-13.352-4.5673-16.826 0.0399-0.77366 2e-3 -4.2192-0.085-7.6566-0.12047-4.7798-0.50561-6.25-1.6372-6.25-1.5317 0-4.7766 5.5803-5.8498 10.06-1.174 4.9009-0.80045 23.554 0.81996 40.94 2.5392 27.243 3.1529 32.071 4.8895 38.46 0.89098 3.278 1.62 8.528 1.62 11.667 0 5.0612 0.31097 5.9385 2.75 7.7582 4.371 3.2612 5.5469 2.7615 3.7308-1.5852zm147.41-10.261c1.174-2.7289 4.9419-9.8164 8.3732-15.75s7.3288-14.163 8.6613-18.288 3.6485-10.2 5.1468-13.5c3.5904-7.9076 7.6033-21.592 8.4103-28.68 0.35846-3.1483 1.3213-6.2398 2.1601-6.936 2.792-2.3171 3e-3 -33.884-2.9941-33.884-0.50468 0-0.66163-1.9125-0.34877-4.25 0.4382-3.274-0.0473-5.6929-2.1141-10.533-1.4756-3.4557-3.1329-6.1557-3.6829-6-0.59438 0.16826-0.85931 3.3784-0.65314 7.9142 0.33539 7.3787-0.31212 9.486-2.4744 8.0529-0.56764-0.37621-1.6324-5.9776-2.3661-12.448-1.3379-11.798-2.7714-15.371-5.194-12.949-0.8024 0.8024-0.80402 2.2758-6e-3 5.4076 1.547 6.0708 2.1763 12.13 2.1609 20.805-7e-3 4.125 2e-3 8.7079 0.0206 10.184 0.036 2.8517-1.6178 4.6157-2.9801 3.1786-0.44986-0.47458-1.0396-6.0379-1.3105-12.363-0.66782-15.592-2.8303-32.12-4.1468-31.694-0.5778 0.18694-1.6602 2.332-2.4054 4.7668s-2.2122 7.127-3.2601 10.427-1.9007 7.0275-1.8952 8.2832-1.0534 4.4058-2.3534 7-2.9098 6.4043-3.5776 8.4668c-0.7809 2.412-1.8286 3.75-2.9365 3.75-2.1982 0-4.1224 1.9139-4.1224 4.1004 0 0.93524-1.7873 5.5873-3.9717 10.338s-4.4784 10.533-5.0978 12.85-1.5422 4.7203-2.0508 5.3415-1.1157 3.0499-1.3492 5.397-0.89839 4.7413-1.4775 5.3205c-1.9628 1.9628-1.0657 7.9813 2.947 19.772 2.2 6.4645 4 12.23 4 12.813s1.575 4.469 3.5 8.6365 3.5 8.1334 3.5 8.8131 0.61576 2.078 1.3684 3.1072c1.3338 1.824 1.3928 1.8225 2.3349-0.0589 0.53162-1.0616 1.564-4.6302 2.2941-7.9302s2.2016-6.9792 3.2698-8.176 1.6589-2.6345 1.3126-3.195 1.1539-8.1313 3.334-16.824 4.2341-18.505 4.5646-21.805c0.90725-9.0608 3.4436-22.822 4.3786-23.757 0.45529-0.45529 1.3866-0.15448 2.0696 0.66848 1.2628 1.5215 1.251 1.6368-3.0636 30.088-0.58385 3.85-1.4206 7.9-1.8595 9-2.7548 6.905-7.3183 30.5-5.899 30.5 1.1102 0 3.0746-4.6456 7.3998-17.5 2.0357-6.05 4.0796-11.465 4.5419-12.034s1.3604-3.9439 1.9958-7.5 1.5157-8.4907 1.9565-10.966c0.44073-2.475 1.3682-8.55 2.0611-13.5 1.3651-9.7523 2.4526-12.292 3.4912-8.1536 0.60627 2.4156-0.24345 13.224-2.4491 31.154-1.1672 9.4882-8.1393 30.379-13.581 40.693-6.6981 12.695-10.704 22.655-10.002 24.867 0.97487 3.0715 2.0759 2.3103 4.3693-3.021zm12.376-6.0447c4.9418-9.6923 7.5721-19.076 4.4832-15.994-1.9094 1.9053-12.748 22.984-12.748 24.792 0 0.74484 0.77037 1.2059 1.7119 1.0246 1.0074-0.19401 3.704-4.2366 6.5524-9.8233zm-81.701-16.116c0.85194-1.6475 1.4112-4.4314 1.2429-6.1866-0.27124-2.8279 7e-3 -3.2272 2.4439-3.5076 1.5125-0.17403 2.75-0.42473 2.75-0.55711s0.9-5.1393 2-11.126c2.4889-13.547 2.5263-20.86 0.14441-28.246-1.0206-3.1647-2.3829-8.004-3.0275-10.754s-2.8017-10.463-4.7938-17.14c-3.4834-11.676-3.8561-16.877-1.0417-14.542 1.7308 1.4364 11.719 32.577 11.719 36.538 0 0.95873 0.7422 3.1784 1.6493 4.9326 2.3174 4.4813 2.796 18.197 0.82955 23.771-1.031 2.9221-1.1908 4.6283-0.49826 5.3208 1.7904 1.7904 3.1039-0.76557 5.6643-11.023l3.026-12.116c0.31089-1.2418 0.031-3.5476-0.62199-5.1241s-1.5793-5.2854-2.0586-8.2422-1.9604-9.2009-3.2914-13.876c-2.7508-9.6614-7.2678-24.951-8.7676-29.678-0.55458-1.7477-1.2888-5.5454-1.6315-8.4395-0.37057-3.1288-1.6931-6.908-3.2625-9.3224-3.4325-5.2808-5.061-11.094-6.04-21.56-1.4395-15.39-2.1771-19.026-4.0646-20.036-2.4298-1.3004-7.6124-10.623-8.4635-15.225-1.391-7.5198-4.4068-5.6705-6.9488 4.261-2.7011 10.553-5.7966 27.994-6.2565 35.252-0.30469 4.8079 0.062 8.0341 1.2736 11.207 1.9447 5.0922 1.5463 7.6662-1.9943 12.884-1.3793 2.0325-3.1622 6.4996-3.9619 9.9269-1.4725 6.3102-3.1169 10.819-6.7201 18.428-1.761 3.7184-1.9337 5.6956-1.5161 17.358 0.26977 7.534 0.93819 13.629 1.5633 14.254 0.60059 0.60059 1.092 2.6459 1.092 4.5452 0 4.0836 4.701 14.206 8.8919 19.147 2.5461 3.0016 3.5839 3.5 7.2885 3.5h4.3196l0.29129 6.5c0.21582 4.8158 0.76216 6.8887 2.1085 8 0.99945 0.825 2.8637 4.0875 4.1427 7.25 1.7712 4.3793 2.818 5.7536 4.3915 5.7653 1.1363 8e-3 2.7195 0.42873 3.5182 0.93402 1.8609 1.1772 2.7044 0.61539 4.611-3.0716zm-8.4999-50.567c-1.3069-4.6791-3.8453-18.517-6.0188-32.811-1.2285-8.0791-1.5765-45.022-0.51094-54.233 0.39657-3.4282 1.2987-6.7126 2.0047-7.2986 2.0334-1.6876 2.7657 0.58905 1.8825 5.8527-0.85918 5.1205-0.76431 30.981 0.16023 43.679 0.86762 11.916 3.087 25.991 5.5186 35 2.9186 10.812 2.9525 12.921 0.21436 13.311-1.7791 0.25324-2.3843-0.39836-3.2506-3.5zm77.937 50.63c0-0.58246-0.45-0.7809-1-0.44098s-1 0.81648-1 1.059 0.45 0.44098 1 0.44098 1-0.47656 1-1.059zm23.985-19.75c-0.0132-1.4573-0.14929-1.4837-0.98469-0.19098-1.2656 1.9584-1.2656 3.2822 0 2.5 0.55-0.33992 0.99311-1.379 0.98469-2.309zm-164.84-37.941c0.85364-2.1455 0.5099-6.9265-1.5638-21.75-1.992-14.24-2.487-20.815-1.9756-26.246 0.75304-7.9976 2.4896-10.815 4.4306-7.1884 0.89916 1.6801 0.89898 3.5938-8e-4 8.1673-0.64632 3.2852-0.8699 7.7797-0.49684 9.9878 0.6872 4.0675 0.96379 5.8824 2.0628 13.536 0.65537 4.5638 2.1128 6.3264 3.4466 4.1682 0.45268-0.73247 1.7913-5.4646 2.9747-10.516 1.7917-7.6478 2.7158-9.7308 5.5242-12.453 2.8367-2.7494 3.6173-3.0656 4.9135-1.9899 0.84754 0.7034 1.541 1.9254 1.541 2.7155 0 2.7506 1.7708 0.31553 3.4059-4.6835 1.2531-3.8311 1.3842-5.5217 0.5492-7.0819-0.60325-1.1272-0.97201-3.4982-0.81945-5.2689 0.15748-1.8279-0.46022-4.2725-1.4291-5.6558-0.93858-1.34-1.7065-2.8563-1.7065-3.3695s-1.0571-2.3256-2.3491-4.0275c-3.6705-4.835-4.061-9.474-1.6185-19.224 1.6192-6.4634 1.8956-9.189 1.1364-11.206-1.5906-4.2247-2.0716-11.109-1.2875-18.425 1.1825-11.033-1.7407-12.215-3.8386-1.552-0.67486 3.4303-1.8606 7.1414-2.6349 8.2469s-1.4079 3.0779-1.4079 4.3832-1.0125 3.7832-2.25 5.5067c-5.499 7.6586-8.75 15.402-8.75 20.842 0 1.389-0.69882 3.9262-1.5529 5.6383s-1.5318 5.2688-1.5059 7.9036c0.0774 7.8795-0.51878 12.649-1.9035 15.228-1.7106 3.1859-1.9971 29.975-0.38038 35.563 3.8168 13.192 4.3113 15.418 3.7496 16.882-0.75898 1.9779 0.148 4.618 1.5865 4.618 0.58087 0 1.5485-1.2375 2.1503-2.75zm97.48-0.71292c0.30875-0.80461-0.11882-4.2921-0.95017-7.75s-1.801-9.4371-2.1549-13.287c-0.65951-7.1755-4.0503-15.876-7.8916-20.25-4.5274-5.1548-4.7329-1.839-0.60479 9.7582 1.6625 4.6705 3.2491 10.229 3.5258 12.353s1.3914 5.8116 2.4773 8.1951 1.9742 5.4466 1.9742 6.8068c0 4.8485 2.3338 7.5362 3.6242 4.1737zm86.781-23.151c0.63877-1.6646-2.7891-8.6692-3.765-7.6933-0.80888 0.80887-0.84419 8.7696-0.0425 9.5713 0.89856 0.89856 3.1723-0.22296 3.8074-1.878zm-79.296-4.1364c0.0602-0.4125 0.27693-3.675 0.48159-7.25s0.8837-8.75 1.509-11.5 1.281-10.712 1.4572-17.694 0.80647-17.053 1.4006-22.381 1.1076-13.419 1.1411-17.98c0.0462-6.301 0.41099-8.4268 1.5188-8.8519 2.1395-0.821 2.9227 2.0401 2.575 9.4068-0.16871 3.575-0.28095 15.175-0.24943 25.777 0.0383 12.892-0.43967 22.127-1.443 27.881-1.918 10.999-1.9691 20.708-0.11713 22.245 1.5689 1.3021 2.6168-0.40919 2.6168-4.2734 0-1.2137 0.92446-3.9894 2.0544-6.1682 1.1586-2.234 2.7101-8.54 3.5581-14.461 0.82707-5.775 1.9863-13.425 2.576-17 0.93885-5.6912 1.0036-12.141 0.43191-43-0.10497-5.6654 0.10862-6.4814 1.6635-6.3555 1.2036 0.0975 1.6376-0.3904 1.3341-1.5-0.24743-0.9045-0.73474-3.7452-1.0829-6.3128s-1.286-5.2101-2.0841-5.8724c-0.85847-0.71247-1.451-2.9693-1.451-5.5268 0-3.012-1.1274-6.5374-3.7183-11.628-6.3781-12.531-7.7235-18.524-5.1011-22.723 0.91039-1.4578 0.89793-3.1536-0.0544-7.4092-1.3268-5.929-3.1498-8.2619-5.6931-7.286-1.2371 0.47473-1.4249 1.3363-0.84152 3.8619 0.73315 3.1742 1.3586 12.701 1.5592 23.751 0.14103 7.7675-1.671 16.433-5.0189 24-3.6757 8.3083-4.7815 11.552-7.5488 22.142-1.242 4.7532-3.2925 10.378-4.5566 12.5-4.6878 7.8688-5.7064 9.9501-6.7818 13.858-0.60543 2.2-1.763 5.8-2.5725 8-1.1721 3.1856-1.261 5.2127-0.43702 9.9564 0.56908 3.276 1.649 6.5706 2.3997 7.3214s1.365 1.8133 1.365 2.3611 2.048 3.5101 4.5511 6.583c5.0496 6.1989 6.8504 9.903 9.1292 18.778 1.8335 7.1411 2.0191 7.5 3.8788 7.5 0.79254 0 1.4902-0.3375 1.5504-0.75zm74.243-19.5c1.4802-12.324-0.71947-43.517-3.247-46.045-0.60776-0.60776-1.1123-0.90251-1.1213-0.65501-0.0188 0.52113-1.866 21.528-2.4137 27.45-0.4267 4.6137 0.49625 9.9317 4.0351 23.25 0.77131 2.9028 2.1608 0.87944 2.7469-4zm-49.64-7c2.4976-3.261 6.3799-17.438 7.3416-26.81 0.98481-9.5966 0.88667-10.918-1.5758-21.216-3.4555-14.451-3.9864-15.724-6.5605-15.724-1.4693 0-1.9556 0.45898-1.5649 1.477 1.2594 3.2821 2.724 27.502 2.0795 34.39-0.37912 4.052-0.82554 9.902-0.99205 13s-0.61594 7.9952-0.99874 10.883c-0.68846 5.193 0.18238 6.7269 2.2709 4zm-90.588-5.1235c0.77626-1.7037 0.77469-2.9467-6e-3 -4.4046-2.0558-3.8412-2.4737-15.502-0.83636-23.335 0.84925-4.0629 2.082-10.987 2.7394-15.387s2.2715-11.314 3.5868-15.364 2.3914-8.452 2.3914-9.7821 0.6739-4.0312 1.4976-6.0025c1.2256-2.9332 1.3179-5.1522 0.5082-12.218-1.6024-13.984-1.2894-43.066 0.50041-46.498 0.82161-1.5754 1.4938-5.0336 1.4938-7.6849s0.46146-6.0343 1.0255-7.5178c1.0801-2.8409 0.47687-6.433-1.0803-6.433-0.50602 0-2.4895 3.1165-4.4077 6.9256s-3.9292 7.1985-4.4689 7.532-0.75237 1.2028-0.47266 1.9317-1.09 4.0527-3.0437 7.3862-3.5486 6.4352-3.5441 6.8927-1.5191 4.4317-3.3858 8.8317c-4.4892 10.582-6.3384 19.207-7.5882 35.393-1.2968 16.795-1.3176 28.838-0.0593 34.342 0.53617 2.3454 1.3237 7.8306 1.75 12.189 0.43022 4.3984 1.2825 8.0904 1.9152 8.2967 1.065 0.34724 1.8455-3.9146 3.8957-21.269 0.53051-4.4909 2.2047-9.1756 2.5739-7.2022 0.76775 4.1038 0.44224 13.718-0.86636 25.589-1.2409 11.257-1.3295 15.034-0.41201 17.571 0.64278 1.7776 1.1687 4.6257 1.1687 6.3291 0 6.2815 2.9974 8.5553 5.1243 3.8873zm129.81-10.495c0.55-1.0277 0.75373-2.1148 0.45273-2.4158s0.16484-5.0264 1.0352-10.501 1.5824-11.587 1.5824-13.584c0-3.787 0.7728-4.4579 2.8-2.4307 0.93333 0.93333 1.2 0.47915 1.2-2.0438s-0.38566-3.1782-1.726-2.95c-1.4202 0.24177-1.8702-0.84207-2.5398-6.1164-0.53059-4.1797-0.45194-6.772 0.22603-7.45 1.4946-1.4946 1.2889-9.3876-0.38151-14.64-2.6211-8.2414-5.5321-18.476-5.8071-20.417-0.1494-1.0544-0.82432-2.1012-1.4998-2.3261-0.9413-0.31341-1.0842 1.7832-0.61176 8.9754 0.62462 9.509-1.0059 33.206-2.7487 39.949-0.52337 2.0249-1.3723 7.1999-1.8866 11.5s-1.2231 9.2251-1.5752 10.944c-0.54992 2.6853 0.0302 3.9892 4.1156 9.25 2.6157 3.3682 5.1177 6.124 5.5601 6.124s1.2544-0.84083 1.8044-1.8685zm-87.93-40.839c1.375-2.8639 3.9625-6.7103 5.75-8.5476 3.458-3.5543 4.1729-7.2947 2.0453-10.701-0.94228-1.5088-0.92802-3.5753 0.0654-9.4878 1.7599-10.474 1.6232-36.849-0.22934-44.236-2.4995-9.9658-3.7778-19.783-3.3447-25.686 0.70844-9.6552 1.1007-8.6702 5.1237 12.866 0.82194 4.4 2.0476 10.25 2.7238 13 1.5426 6.2741 1.3962 37.113-0.20789 43.804-1.323 5.5181-0.52787 7.1502 1.9778 4.0598 2.6029-3.2103 5.8475-23.266 6.5889-40.728 0.43934-10.348 0.2769-12.047-1.3798-14.432-1.0327-1.4869-3.1124-8.1035-4.6215-14.703s-3.4002-12.527-4.2025-13.172-1.7063-3.0183-2.009-5.2746c-0.46115-3.4381-0.85222-4.0065-2.4153-3.5104-1.6291 0.51705-1.865 0.0296-1.865-3.853 0-2.5322 0.58643-4.9316 1.3628-5.576 1.51-1.2532 3.0342-12.916 2.03-15.533-0.52502-1.3682-0.89971-1.1685-2.1165 1.1282-2.7885 5.2631-6.2763 18.644-6.3119 24.217-0.0567 8.8659-2.3008 16.212-7.0894 23.205-6.9312 10.123-8.6215 15.176-9.2487 27.646-0.0755 1.5009-1.0619 4.3026-2.192 6.226-6.3101 10.74-6.8848 23.858-1.4673 33.497 2.2618 4.0244 2.8959 6.5883 3.2498 13.14 0.4144 7.6723 0.65405 8.3911 4.1677 12.5 6.532 7.6385 10.003 7.6774 13.615 0.1525zm-6.8286-15.295c-0.0648-5.5565-0.34896-10.477-0.63142-10.934-0.94948-1.5363-1.4592-16.516-0.73372-21.565 0.56536-3.9344 1.1118-5 2.5641-5 1.696 0 1.881 1.2568 2.2826 15.5 0.96979 34.396 1.0857 31.466-1.2583 31.801-2.015 0.28769-2.1104-0.13328-2.2232-9.8022zm77.198 11.752c0.33164-1.2375 0.60913-3.2783 0.61664-4.5352s0.63126-3.2818 1.3861-4.5 1.9462-5.7177 2.6473-9.999c1.8332-11.194 0.7327-23.606-3.0988-34.95-2.1563-6.3843-3.2048-11.61-3.4544-17.216-0.59924-13.463-1.3588-17.035-5.576-26.219-4.0229-8.7612-11.393-23.807-15.773-32.2-3.6998-7.0899-4.3498-3.4949-1.082 5.9854 1.6287 4.7251 2.9909 10.794 3.0272 13.487 0.19399 14.39-0.90209 40.237-1.7784 41.938-1.562 3.032-2.4124 14.352-1.2424 16.538 1.7618 3.2919 2.5649 2.1639 3.7054-5.2042 1.1448-7.3963 2.4915-10.036 4.2324-8.2946 1.1153 1.1153-0.35815 16.654-1.9849 20.933-0.54737 1.4397-0.99521 4.5867-0.99521 6.9935s-0.45 4.654-1 4.9939c-1.7806 1.1005-1.0783 7.1307 1.1623 9.9792l2.1623 2.7489 1.2061-2.3641c0.66333-1.3002 1.7449-5.514 2.4035-9.364 2.5361-14.825 3.196-17.336 4.7083-17.916 3.5471-1.3612 4.3229 1.8614 1.8646 7.745-0.82108 1.9651-1.4604 4.6076-1.4208 5.8721 0.0922 2.9408-1.6788 13.12-3.1838 18.299-1.3597 4.6795-1.4218 8.4644-0.22987 14 0.65294 3.0324 1.341 4 2.8443 4 1.774 0 1.9509-0.5799 1.6783-5.5-0.40818-7.367 2.3113-21.144 4.4908-22.75 1.9987-1.4729 2.3671-1.5023 4.2084-0.33641 1.1507 0.72866 0.99809 1.5242-0.87345 4.5525-1.8754 3.0345-2.3575 5.5613-2.786 14.602-0.33824 7.1361-0.16226 10.932 0.50681 10.932 0.56375 0 1.2963-1.0125 1.628-2.25zm-30.007-75.061c0.319-1.271 0.10826-4.0194-0.46832-6.1076-0.70745-2.5622-0.72309-4.6559-0.0481-6.4391 2.2616-5.9746 4.1655-28.797 2.5381-30.424-0.33835-0.33835-2.0977-4.8008-3.9096-9.9167s-4.2118-11.144-5.333-13.396c-1.2639-2.5386-2.5987-8.6186-3.5124-16-2.2131-17.877-4.0494-24.106-8.662-29.383-5.5687-6.3706-6.6223-4.8026-4.3753 6.5116 1.4684 7.3941 1.5644 9.9039 0.60694 15.874-3.4083 21.252-3.288 38.248 0.30148 42.591 0.68186 0.825 2.4557 4.425 3.9418 8 2.7742 6.6735 3.4751 8.2305 10.475 23.269 2.245 4.8232 4.0819 9.8918 4.0819 11.264 0 2.5068 1.9181 6.4671 3.1321 6.4671 0.35807 0 0.91205-1.0399 1.231-2.3109zm-55.827-22.981c1.1198-1.7642 2.8364-5.9077 3.8148-9.2077s2.5973-8.025 3.5977-10.5c5.2605-13.014 6.1636-17.376 5.9198-28.589-0.38197-17.567-0.16205-22.353 1.097-23.87 1.3764-1.6584 4.0054-10.999 4.0228-14.292 0.0242-4.5809-2.2-1.9739-7.0288 8.2387-3.4072 7.2059-4.9593 11.758-4.9593 14.545 0 3.026-0.65464 4.7114-2.5765 6.6332-1.4171 1.4171-3.2586 4.8841-4.0923 7.7046s-1.9158 5.8959-2.4047 6.8344-1.1607 3.6385-1.4928 6-1.2406 5.9903-2.0188 8.0639c-2.1774 5.8019-1.9019 6.7754 1.835 6.4836 3.1466-0.24573 3.2597-0.12091 3.5539 3.9221 0.18967 2.6065-0.67845 7.022-2.3099 11.749-1.4376 4.165-2.3352 8.0233-1.9949 8.5741 1.1185 1.8097 2.968 0.9685 5.0368-2.291zm-10.69-6.1557c0.221-1.14-0.13937-1.6208-1-1.3343-0.74002 0.24642-1.501 1.2501-1.691 2.2303-0.221 1.14 0.13937 1.6208 1 1.3343 0.74002-0.24642 1.501-1.2501 1.691-2.2303zm34.362-40.745c-1.6398-1.6398-3.7127 0.43301-2.8032 2.8032 0.62549 1.63 0.7794 1.6349 2.3399 0.0744 1.3047-1.3047 1.4061-1.9347 0.46325-2.8775zm-0.20714-9.8071c0-2.75-0.45-5-1-5-1.1029 0-1.3982 8.2685-0.33333 9.3333 1.1929 1.1929 1.3333 0.7366 1.3333-4.3333zm3.4258-22.333c-0.35187-0.91697-1.0416-1.6672-1.5328-1.6672-1.0456 0-1.2072 3.3524-0.20968 4.35 1.1247 1.1247 2.4315-0.88729 1.7425-2.6828z"/>
 </g>
</svg>
