<?xml version="1.0" encoding="UTF-8"?>
<svg viewBox="0 0 559.45929 613.96643" xmlns="http://www.w3.org/2000/svg" xmlns:xlink="http://www.w3.org/1999/xlink">
 <defs>
  <linearGradient id="c">
   <stop stop-color="#008200" offset="0"/>
   <stop stop-color="#004f00" offset=".5"/>
   <stop stop-color="#009d00" offset="1"/>
  </linearGradient>
  <linearGradient id="d">
   <stop stop-color="#d56e00" offset="0"/>
   <stop stop-color="#e9b758" offset="1"/>
  </linearGradient>
  <radialGradient id="b" cx="371.3" cy="228.68" r="38.316" gradientTransform="matrix(.77463 1.9602 -.84957 .90684 274.36 -721.12)" gradientUnits="userSpaceOnUse">
   <stop stop-color="#b6bed3" offset="0"/>
   <stop stop-color="#4e3361" offset="1"/>
  </radialGradient>
  <radialGradient id="a" cx="358.82" cy="219.46" r="38.316" gradientTransform="matrix(.56928 2.1944 -1.0814 .75775 391.87 -745.34)" gradientUnits="userSpaceOnUse">
   <stop stop-color="#9997b3" offset="0"/>
   <stop stop-color="#4e3361" offset="1"/>
  </radialGradient>
  <radialGradient id="i" cx="394.54" cy="-305.1" r="148.76" gradientTransform="matrix(-.60147 .27038 -.19716 -.43859 553.68 -139.16)" gradientUnits="userSpaceOnUse" xlink:href="#d"/>
  <radialGradient id="h" cx="343.86" cy="-81.594" r="80.099" gradientTransform="matrix(1 0 0 .85185 -15.466 272.97)" gradientUnits="userSpaceOnUse" xlink:href="#d"/>
  <radialGradient id="g" cx="301.13" cy="-33.087" r="223.16" gradientTransform="matrix(1.4292 .03566 -.02037 .81653 -145.38 283.71)" gradientUnits="userSpaceOnUse" xlink:href="#c"/>
  <radialGradient id="f" cx="201.37" cy="-112.3" r="129.56" gradientTransform="matrix(.01842 -.88357 3.1749 .06617 602.59 353.36)" gradientUnits="userSpaceOnUse" xlink:href="#c"/>
  <radialGradient id="e" cx="264.14" cy="-109.82" r="110.57" gradientTransform="matrix(.67035 -.73479 1.5133 1.3806 253.05 509.6)" gradientUnits="userSpaceOnUse" xlink:href="#c"/>
 </defs>
 <path d="m290.93 120.27c12.55-22.71-8.5423-48.546-17.866-78.132l-14.4 9.0665c-5.2318-10.793-11.139-14.834-17.066-18.666l-17.066 15.466-41.066-39.466-5.8666 10.133c-19.308-14.539-17.599-4.1787-38.399-18.666l-2.1333 12.8c-26.716-4.3153-27.733-1.7778-41.599-2.6666l2.6666 13.333c-10.222-2.2222-17.244 4.6222-23.466 6.9332 16.483 28.637 28.594 22.086 46.399 32.533-9.7807 0.35404-13.795 3.5915-16.533 7.4666 25.587 19.607 41.226 11.806 82.666 35.2l65.599 60.799z" fill="url(#e)"/>
 <path d="m183.46 100.27c-28.264 1.3521-60.114-5.4948-93.332-15.466-4.8714 4.1456-4.9714 4.7656-6.3999 9.5999l-27.733-0.53333-0.79999 18.133-27.466 16 0.26666 21.333c-21.683 13.333-18.666 26.666-28 39.999l36.8 1.0666 3.2 7.9999 16.533-2.1333c32.325-12.46 10.084-15.098 105.6-38.933l87.999 10.133 7.9999-16.533z" fill="url(#f)"/>
 <path d="m172.8 154.13c-8.9264 7.9811-19.54 15.119-34.133 20.266h-47.999l-12.8 27.733c-11.911 0.92758-23.822 8.5393-35.733 18.666l-1.6 12.267-7.9999 7.9999 0.53333 14.4-8.5332 17.066c13.194 0.31676 26.083 0.93855 37.866 2.6666-17.066 11.774-26.754 28.225-25.333 44.266 4.8016 0.47517 7.5763-0.40094 16.266 2.6666-17.241 29.39-9.6204 54.828-9.0666 59.733 8.5308-6.1419 18.336-7.8218 28.266-9.0666v9.0666s24.329-9.0273 26.133-7.4666c2.1333 1.8461 17.6 12.373 17.6 11.733 22.196-10.667 31.266-21.333 33.6-32 10.489 14.533 20.978 18.493 31.466 21.866l172-5.5999c-6.372 26.227-10.848 53.003-0.79999 59.999l9.0666-3.7333c6.012 7.7639 13.37 14.989 22.933 21.333l11.2-1.0666 16 9.0665c4.9096-6.996 7.1576-15.057 8.5332-23.466l8.5332-1.0667c-0.0907-7.0439 2.0703-14.651 4.7999-22.4h6.9332c-3.0361-7.9163-5.0769-21.805-7.4666-33.6l36.8-30.933c-12.851-44.625-24.579-34.274-36.8-47.999v-41.066c-37.41-28.266-19.556-56.533-29.333-84.799l-99.732-22.4c-3.5049 5.8666-15.654 11.733-26.666 17.6l-59.199-8.5332z" fill="url(#g)"/>
 <path d="m402.13 135.73c-26.718 26.063-33.103 43.871-46.608 60.291-40.576 9.3528-33.815 20.909-59.257 33.575l-47.466-17.6 46.666 18.666-21.6 29.066 24.533-28.533c20.64-13.005 45.279-33.856 58.133-29.866 0 0-0.0363 18.388-1.3333 19.733-5.653 5.8622-36 28.266-36 28.266l36.8-25.866 6.3999 42.666s-3.3744-28.754-3.4666-43.199c-0.0506-7.9288 0.36778-18.058 1.6-23.733 1.0571-4.8684 22.4-37.91 33.6-45.599 3.2017 23.562 6.7746 48.609 9.3332 69.599l-6.3999 7.9999-27.466 12.533-15.733 22.4 16.8-20.533 28-12.8-2.1333 14.666-11.467 23.733 14.133-24 2.4-14.4 6.3999-10.133c-3.7128-20.508-5.2976-44.563-6.9332-68.532z" fill="url(#h)"/>
 <path d="m559.46 82.132-208 67.199-59.786-31.334c-6.7488 8.1875-14.4 15.809-19.224 23.997l49.144 18.004 69.332 21.333 142.93-63.999z" fill="url(#i)"/>
 <path transform="matrix(.54961 0 0 .33442 -51.73 160.95)" d="m414.39 236.27a36.266 61.599 0 1 1 -72.532 0 36.266 61.599 0 1 1 72.532 0z" fill="url(#b)" stroke="url(#a)" stroke-linecap="round" stroke-linejoin="round" stroke-width="4.1"/>
 <path transform="matrix(.54961 0 0 .33442 -13.863 145.48)" d="m414.39 236.27a36.266 61.599 0 1 1 -72.532 0 36.266 61.599 0 1 1 72.532 0z" fill="url(#b)" stroke="url(#a)" stroke-linecap="round" stroke-linejoin="round" stroke-width="4.1"/>
 <path transform="matrix(.69046 0 0 .42012 -38.856 136.6)" d="m414.39 236.27a36.266 61.599 0 1 1 -72.532 0 36.266 61.599 0 1 1 72.532 0z" fill="url(#b)" stroke="url(#a)" stroke-linecap="round" stroke-linejoin="round" stroke-width="4.1"/>
 <path transform="matrix(.54961 0 0 .33442 37.869 125.21)" d="m414.39 236.27a36.266 61.599 0 1 1 -72.532 0 36.266 61.599 0 1 1 72.532 0z" fill="url(#b)" stroke="url(#a)" stroke-linecap="round" stroke-linejoin="round" stroke-width="4.1"/>
 <path transform="matrix(.54961 0 0 .33442 60.269 174.28)" d="m414.39 236.27a36.266 61.599 0 1 1 -72.532 0 36.266 61.599 0 1 1 72.532 0z" fill="url(#b)" stroke="url(#a)" stroke-linecap="round" stroke-linejoin="round" stroke-width="4.1"/>
 <path transform="matrix(.54961 0 0 .33442 104.54 181.21)" d="m414.39 236.27a36.266 61.599 0 1 1 -72.532 0 36.266 61.599 0 1 1 72.532 0z" fill="url(#b)" stroke="url(#a)" stroke-linecap="round" stroke-linejoin="round" stroke-width="4.1"/>
 <path transform="matrix(.54961 0 0 .33442 129.6 179.61)" d="m414.39 236.27a36.266 61.599 0 1 1 -72.532 0 36.266 61.599 0 1 1 72.532 0z" fill="url(#b)" stroke="url(#a)" stroke-linecap="round" stroke-linejoin="round" stroke-width="4.1"/>
 <path transform="matrix(.54961 0 0 .33442 82.669 205.75)" d="m414.39 236.27a36.266 61.599 0 1 1 -72.532 0 36.266 61.599 0 1 1 72.532 0z" fill="url(#b)" stroke="url(#a)" stroke-linecap="round" stroke-linejoin="round" stroke-width="4.1"/>
 <path transform="matrix(.69046 0 0 .42012 -77.255 154.2)" d="m414.39 236.27a36.266 61.599 0 1 1 -72.532 0 36.266 61.599 0 1 1 72.532 0z" fill="url(#b)" stroke="url(#a)" stroke-linecap="round" stroke-linejoin="round" stroke-width="4.1"/>
 <path transform="matrix(.54961 0 0 .33442 -56.529 197.21)" d="m414.39 236.27a36.266 61.599 0 1 1 -72.532 0 36.266 61.599 0 1 1 72.532 0z" fill="url(#b)" stroke="url(#a)" stroke-linecap="round" stroke-linejoin="round" stroke-width="4.1"/>
 <path transform="matrix(.69046 0 0 .42012 -78.855 197.94)" d="m414.39 236.27a36.266 61.599 0 1 1 -72.532 0 36.266 61.599 0 1 1 72.532 0z" fill="url(#b)" stroke="url(#a)" stroke-linecap="round" stroke-linejoin="round" stroke-width="4.1"/>
 <path transform="matrix(.54961 0 0 .33442 -33.596 269.21)" d="m414.39 236.27a36.266 61.599 0 1 1 -72.532 0 36.266 61.599 0 1 1 72.532 0z" fill="url(#b)" stroke="url(#a)" stroke-linecap="round" stroke-linejoin="round" stroke-width="4.1"/>
 <path transform="matrix(.69046 0 0 .42012 -97.522 354.73)" d="m414.39 236.27a36.266 61.599 0 1 1 -72.532 0 36.266 61.599 0 1 1 72.532 0z" fill="url(#b)" stroke="url(#a)" stroke-linecap="round" stroke-linejoin="round" stroke-width="4.1"/>
 <path transform="matrix(.54961 0 0 .33442 -66.129 354.01)" d="m414.39 236.27a36.266 61.599 0 1 1 -72.532 0 36.266 61.599 0 1 1 72.532 0z" fill="url(#b)" stroke="url(#a)" stroke-linecap="round" stroke-linejoin="round" stroke-width="4.1"/>
 <path transform="matrix(.69046 0 0 .42012 -93.255 299.8)" d="m414.39 236.27a36.266 61.599 0 1 1 -72.532 0 36.266 61.599 0 1 1 72.532 0z" fill="url(#b)" stroke="url(#a)" stroke-linecap="round" stroke-linejoin="round" stroke-width="4.1"/>
 <path transform="matrix(.54961 0 0 .33442 -57.063 404.14)" d="m414.39 236.27a36.266 61.599 0 1 1 -72.532 0 36.266 61.599 0 1 1 72.532 0z" fill="url(#b)" stroke="url(#a)" stroke-linecap="round" stroke-linejoin="round" stroke-width="4.1"/>
 <path transform="matrix(.54961 0 0 .33442 -20.263 513.48)" d="m414.39 236.27a36.266 61.599 0 1 1 -72.532 0 36.266 61.599 0 1 1 72.532 0z" fill="url(#b)" stroke="url(#a)" stroke-linecap="round" stroke-linejoin="round" stroke-width="4.1"/>
 <path transform="matrix(.54961 0 0 .33442 6.403 417.48)" d="m414.39 236.27a36.266 61.599 0 1 1 -72.532 0 36.266 61.599 0 1 1 72.532 0z" fill="url(#b)" stroke="url(#a)" stroke-linecap="round" stroke-linejoin="round" stroke-width="4.1"/>
 <path transform="matrix(.69046 0 0 .42012 -103.92 429.93)" d="m414.39 236.27a36.266 61.599 0 1 1 -72.532 0 36.266 61.599 0 1 1 72.532 0z" fill="url(#b)" stroke="url(#a)" stroke-linecap="round" stroke-linejoin="round" stroke-width="4.1"/>
 <path transform="matrix(.54961 0 0 .33442 -44.263 490.54)" d="m414.39 236.27a36.266 61.599 0 1 1 -72.532 0 36.266 61.599 0 1 1 72.532 0z" fill="url(#b)" stroke="url(#a)" stroke-linecap="round" stroke-linejoin="round" stroke-width="4.1"/>
 <path transform="matrix(.54961 0 0 .33442 -26.663 414.81)" d="m414.39 236.27a36.266 61.599 0 1 1 -72.532 0 36.266 61.599 0 1 1 72.532 0z" fill="url(#b)" stroke="url(#a)" stroke-linecap="round" stroke-linejoin="round" stroke-width="4.1"/>
 <path transform="matrix(.69046 0 0 .42012 -55.389 455)" d="m414.39 236.27a36.266 61.599 0 1 1 -72.532 0 36.266 61.599 0 1 1 72.532 0z" fill="url(#b)" stroke="url(#a)" stroke-linecap="round" stroke-linejoin="round" stroke-width="4.1"/>
 <path transform="matrix(.54961 0 0 .33442 -14.93 449.48)" d="m414.39 236.27a36.266 61.599 0 1 1 -72.532 0 36.266 61.599 0 1 1 72.532 0z" fill="url(#b)" stroke="url(#a)" stroke-linecap="round" stroke-linejoin="round" stroke-width="4.1"/>
 <path transform="matrix(.54961 0 0 .33442 19.203 434.54)" d="m414.39 236.27a36.266 61.599 0 1 1 -72.532 0 36.266 61.599 0 1 1 72.532 0z" fill="url(#b)" stroke="url(#a)" stroke-linecap="round" stroke-linejoin="round" stroke-width="4.1"/>
 <path transform="matrix(.54961 0 0 .33442 179.2 202.55)" d="m414.39 236.27a36.266 61.599 0 1 1 -72.532 0 36.266 61.599 0 1 1 72.532 0z" fill="url(#b)" stroke="url(#a)" stroke-linecap="round" stroke-linejoin="round" stroke-width="4.1"/>
 <path transform="matrix(.54961 0 0 .33442 147.73 199.88)" d="m414.39 236.27a36.266 61.599 0 1 1 -72.532 0 36.266 61.599 0 1 1 72.532 0z" fill="url(#b)" stroke="url(#a)" stroke-linecap="round" stroke-linejoin="round" stroke-width="4.1"/>
 <path transform="matrix(.69046 0 0 .42012 176.61 177.67)" d="m414.39 236.27a36.266 61.599 0 1 1 -72.532 0 36.266 61.599 0 1 1 72.532 0z" fill="url(#b)" stroke="url(#a)" stroke-linecap="round" stroke-linejoin="round" stroke-width="4.1"/>
 <path transform="matrix(.69046 0 0 .42012 151.54 196.87)" d="m414.39 236.27a36.266 61.599 0 1 1 -72.532 0 36.266 61.599 0 1 1 72.532 0z" fill="url(#b)" stroke="url(#a)" stroke-linecap="round" stroke-linejoin="round" stroke-width="4.1"/>
 <path transform="matrix(.54961 0 0 .33442 222.93 244.68)" d="m414.39 236.27a36.266 61.599 0 1 1 -72.532 0 36.266 61.599 0 1 1 72.532 0z" fill="url(#b)" stroke="url(#a)" stroke-linecap="round" stroke-linejoin="round" stroke-width="4.1"/>
 <path transform="matrix(.54961 0 0 .33442 198.93 312.95)" d="m414.39 236.27a36.266 61.599 0 1 1 -72.532 0 36.266 61.599 0 1 1 72.532 0z" fill="url(#b)" stroke="url(#a)" stroke-linecap="round" stroke-linejoin="round" stroke-width="4.1"/>
 <path transform="matrix(.54961 0 0 .33442 46.403 288.95)" d="m414.39 236.27a36.266 61.599 0 1 1 -72.532 0 36.266 61.599 0 1 1 72.532 0z" fill="url(#b)" stroke="url(#a)" stroke-linecap="round" stroke-linejoin="round" stroke-width="4.1"/>
 <path transform="matrix(.54961 0 0 .33442 -22.397 296.41)" d="m414.39 236.27a36.266 61.599 0 1 1 -72.532 0 36.266 61.599 0 1 1 72.532 0z" fill="url(#b)" stroke="url(#a)" stroke-linecap="round" stroke-linejoin="round" stroke-width="4.1"/>
 <path transform="matrix(.69046 0 0 .42012 -40.456 288.6)" d="m414.39 236.27a36.266 61.599 0 1 1 -72.532 0 36.266 61.599 0 1 1 72.532 0z" fill="url(#b)" stroke="url(#a)" stroke-linecap="round" stroke-linejoin="round" stroke-width="4.1"/>
 <path transform="matrix(.69046 0 0 .42012 -66.589 322.73)" d="m414.39 236.27a36.266 61.599 0 1 1 -72.532 0 36.266 61.599 0 1 1 72.532 0z" fill="url(#b)" stroke="url(#a)" stroke-linecap="round" stroke-linejoin="round" stroke-width="4.1"/>
 <path transform="matrix(.54961 0 0 .33442 -6.9301 382.28)" d="m414.39 236.27a36.266 61.599 0 1 1 -72.532 0 36.266 61.599 0 1 1 72.532 0z" fill="url(#b)" stroke="url(#a)" stroke-linecap="round" stroke-linejoin="round" stroke-width="4.1"/>
 <path transform="matrix(.54961 0 0 .33442 36.269 405.21)" d="m414.39 236.27a36.266 61.599 0 1 1 -72.532 0 36.266 61.599 0 1 1 72.532 0z" fill="url(#b)" stroke="url(#a)" stroke-linecap="round" stroke-linejoin="round" stroke-width="4.1"/>
 <path transform="matrix(.54961 0 0 .33442 57.069 384.94)" d="m414.39 236.27a36.266 61.599 0 1 1 -72.532 0 36.266 61.599 0 1 1 72.532 0z" fill="url(#b)" stroke="url(#a)" stroke-linecap="round" stroke-linejoin="round" stroke-width="4.1"/>
 <path transform="matrix(.54961 0 0 .33442 75.735 355.08)" d="m414.39 236.27a36.266 61.599 0 1 1 -72.532 0 36.266 61.599 0 1 1 72.532 0z" fill="url(#b)" stroke="url(#a)" stroke-linecap="round" stroke-linejoin="round" stroke-width="4.1"/>
 <path transform="matrix(.54961 0 0 .33442 95.469 324.14)" d="m414.39 236.27a36.266 61.599 0 1 1 -72.532 0 36.266 61.599 0 1 1 72.532 0z" fill="url(#b)" stroke="url(#a)" stroke-linecap="round" stroke-linejoin="round" stroke-width="4.1"/>
 <path transform="matrix(.69046 0 0 .42012 -50.056 247)" d="m414.39 236.27a36.266 61.599 0 1 1 -72.532 0 36.266 61.599 0 1 1 72.532 0z" fill="url(#b)" stroke="url(#a)" stroke-linecap="round" stroke-linejoin="round" stroke-width="4.1"/>
 <path transform="matrix(.54961 0 0 .33442 -17.063 239.88)" d="m414.39 236.27a36.266 61.599 0 1 1 -72.532 0 36.266 61.599 0 1 1 72.532 0z" fill="url(#b)" stroke="url(#a)" stroke-linecap="round" stroke-linejoin="round" stroke-width="4.1"/>
 <path transform="matrix(.54961 0 0 .33442 34.136 180.15)" d="m414.39 236.27a36.266 61.599 0 1 1 -72.532 0 36.266 61.599 0 1 1 72.532 0z" fill="url(#b)" stroke="url(#a)" stroke-linecap="round" stroke-linejoin="round" stroke-width="4.1"/>
 <path transform="matrix(.54961 0 0 .33442 18.67 384.41)" d="m414.39 236.27a36.266 61.599 0 1 1 -72.532 0 36.266 61.599 0 1 1 72.532 0z" fill="url(#b)" stroke="url(#a)" stroke-linecap="round" stroke-linejoin="round" stroke-width="4.1"/>
 <path transform="matrix(.54961 0 0 .33442 63.469 324.14)" d="m414.39 236.27a36.266 61.599 0 1 1 -72.532 0 36.266 61.599 0 1 1 72.532 0z" fill="url(#b)" stroke="url(#a)" stroke-linecap="round" stroke-linejoin="round" stroke-width="4.1"/>
 <path transform="matrix(.54961 0 0 .33442 45.336 324.68)" d="m414.39 236.27a36.266 61.599 0 1 1 -72.532 0 36.266 61.599 0 1 1 72.532 0z" fill="url(#b)" stroke="url(#a)" stroke-linecap="round" stroke-linejoin="round" stroke-width="4.1"/>
 <path transform="matrix(.54961 0 0 .33442 18.136 350.81)" d="m414.39 236.27a36.266 61.599 0 1 1 -72.532 0 36.266 61.599 0 1 1 72.532 0z" fill="url(#b)" stroke="url(#a)" stroke-linecap="round" stroke-linejoin="round" stroke-width="4.1"/>
 <path transform="matrix(.54961 0 0 .33442 45.869 356.68)" d="m414.39 236.27a36.266 61.599 0 1 1 -72.532 0 36.266 61.599 0 1 1 72.532 0z" fill="url(#b)" stroke="url(#a)" stroke-linecap="round" stroke-linejoin="round" stroke-width="4.1"/>
 <path transform="matrix(.54961 0 0 .33442 121.07 300.68)" d="m414.39 236.27a36.266 61.599 0 1 1 -72.532 0 36.266 61.599 0 1 1 72.532 0z" fill="url(#b)" stroke="url(#a)" stroke-linecap="round" stroke-linejoin="round" stroke-width="4.1"/>
 <path transform="matrix(.69046 0 0 .42012 29.41 265.13)" d="m414.39 236.27a36.266 61.599 0 1 1 -72.532 0 36.266 61.599 0 1 1 72.532 0z" fill="url(#b)" stroke="url(#a)" stroke-linecap="round" stroke-linejoin="round" stroke-width="4.1"/>
 <path transform="matrix(.69046 0 0 .42012 173.41 263.53)" d="m414.39 236.27a36.266 61.599 0 1 1 -72.532 0 36.266 61.599 0 1 1 72.532 0z" fill="url(#b)" stroke="url(#a)" stroke-linecap="round" stroke-linejoin="round" stroke-width="4.1"/>
 <path transform="matrix(.69046 0 0 .42012 3.8103 216.07)" d="m414.39 236.27a36.266 61.599 0 1 1 -72.532 0 36.266 61.599 0 1 1 72.532 0z" fill="url(#b)" stroke="url(#a)" stroke-linecap="round" stroke-linejoin="round" stroke-width="4.1"/>
 <path transform="matrix(.69046 0 0 .42012 -41.522 178.2)" d="m414.39 236.27a36.266 61.599 0 1 1 -72.532 0 36.266 61.599 0 1 1 72.532 0z" fill="url(#b)" stroke="url(#a)" stroke-linecap="round" stroke-linejoin="round" stroke-width="4.1"/>
 <path transform="matrix(.54961 0 0 .33442 19.736 231.35)" d="m414.39 236.27a36.266 61.599 0 1 1 -72.532 0 36.266 61.599 0 1 1 72.532 0z" fill="url(#b)" stroke="url(#a)" stroke-linecap="round" stroke-linejoin="round" stroke-width="4.1"/>
 <path transform="matrix(.54961 0 0 .33442 36.269 266.55)" d="m414.39 236.27a36.266 61.599 0 1 1 -72.532 0 36.266 61.599 0 1 1 72.532 0z" fill="url(#b)" stroke="url(#a)" stroke-linecap="round" stroke-linejoin="round" stroke-width="4.1"/>
 <path transform="matrix(.69046 0 0 .42012 72.609 227.8)" d="m414.39 236.27a36.266 61.599 0 1 1 -72.532 0 36.266 61.599 0 1 1 72.532 0z" fill="url(#b)" stroke="url(#a)" stroke-linecap="round" stroke-linejoin="round" stroke-width="4.1"/>
 <path transform="matrix(.54961 0 0 .33442 146.67 282.55)" d="m414.39 236.27a36.266 61.599 0 1 1 -72.532 0 36.266 61.599 0 1 1 72.532 0z" fill="url(#b)" stroke="url(#a)" stroke-linecap="round" stroke-linejoin="round" stroke-width="4.1"/>
 <path transform="matrix(.69046 0 0 .42012 72.609 227.8)" d="m414.39 236.27a36.266 61.599 0 1 1 -72.532 0 36.266 61.599 0 1 1 72.532 0z" fill="url(#b)" stroke="url(#a)" stroke-linecap="round" stroke-linejoin="round" stroke-width="4.1"/>
 <path transform="matrix(.69046 0 0 .42012 129.68 242.2)" d="m414.39 236.27a36.266 61.599 0 1 1 -72.532 0 36.266 61.599 0 1 1 72.532 0z" fill="url(#b)" stroke="url(#a)" stroke-linecap="round" stroke-linejoin="round" stroke-width="4.1"/>
 <path transform="matrix(.54961 0 0 .33442 182.4 288.41)" d="m414.39 236.27a36.266 61.599 0 1 1 -72.532 0 36.266 61.599 0 1 1 72.532 0z" fill="url(#b)" stroke="url(#a)" stroke-linecap="round" stroke-linejoin="round" stroke-width="4.1"/>
 <path transform="matrix(.54961 0 0 .33442 167.47 228.15)" d="m414.39 236.27a36.266 61.599 0 1 1 -72.532 0 36.266 61.599 0 1 1 72.532 0z" fill="url(#b)" stroke="url(#a)" stroke-linecap="round" stroke-linejoin="round" stroke-width="4.1"/>
 <path transform="matrix(.54961 0 0 .33442 152.53 255.88)" d="m414.39 236.27a36.266 61.599 0 1 1 -72.532 0 36.266 61.599 0 1 1 72.532 0z" fill="url(#b)" stroke="url(#a)" stroke-linecap="round" stroke-linejoin="round" stroke-width="4.1"/>
 <path transform="matrix(.54961 0 0 .33442 115.2 272.41)" d="m414.39 236.27a36.266 61.599 0 1 1 -72.532 0 36.266 61.599 0 1 1 72.532 0z" fill="url(#b)" stroke="url(#a)" stroke-linecap="round" stroke-linejoin="round" stroke-width="4.1"/>
 <path transform="matrix(.54961 0 0 .33442 75.202 261.75)" d="m414.39 236.27a36.266 61.599 0 1 1 -72.532 0 36.266 61.599 0 1 1 72.532 0z" fill="url(#b)" stroke="url(#a)" stroke-linecap="round" stroke-linejoin="round" stroke-width="4.1"/>
 <path transform="matrix(.54961 0 0 .33442 51.736 204.15)" d="m414.39 236.27a36.266 61.599 0 1 1 -72.532 0 36.266 61.599 0 1 1 72.532 0z" fill="url(#b)" stroke="url(#a)" stroke-linecap="round" stroke-linejoin="round" stroke-width="4.1"/>
 <path transform="matrix(.54961 0 0 .33442 94.402 238.81)" d="m414.39 236.27a36.266 61.599 0 1 1 -72.532 0 36.266 61.599 0 1 1 72.532 0z" fill="url(#b)" stroke="url(#a)" stroke-linecap="round" stroke-linejoin="round" stroke-width="4.1"/>
 <path transform="matrix(.54961 0 0 .33442 112.53 208.41)" d="m414.39 236.27a36.266 61.599 0 1 1 -72.532 0 36.266 61.599 0 1 1 72.532 0z" fill="url(#b)" stroke="url(#a)" stroke-linecap="round" stroke-linejoin="round" stroke-width="4.1"/>
 <path transform="matrix(.54961 0 0 .33442 137.07 225.48)" d="m414.39 236.27a36.266 61.599 0 1 1 -72.532 0 36.266 61.599 0 1 1 72.532 0z" fill="url(#b)" stroke="url(#a)" stroke-linecap="round" stroke-linejoin="round" stroke-width="4.1"/>
</svg>
