<?xml version="1.0" encoding="UTF-8"?>
<svg version="1.1" viewBox="0 0 354.33 354.33" xmlns="http://www.w3.org/2000/svg">
 <path d="m158.08 94.52c-13.467 3.3116-2.2813 23.696 16.116 13.026l-2.4285 3.3116c-28.504 6.9069-24.591-18.177-14.35-17.662z" fill="#5d3700"/>
 <path d="m275.57 140.76c-36.658-31.745-87.264-80.994-130.68-53.967-6.77 5.5384-5.4166 25.289 7.7096 29.296l-1.7833 1.1564c-18.659-9.268-14.639-29.428-8.6246-33.151 21.523-14.15 61.135-20.871 129.52 45.872z" fill="#542b00"/>
 <path d="m185.02 98.494c-18.703-0.83356-51-0.13133-55.635 7.2855l0.63035 1.8562c9.3318-9.2558 40.861-5.0016 54.121-6.934z" fill="#895200" fill-opacity=".99608"/>
 <path d="m199.37 126.97c-7.2855 0.95607-14.571 2.9416-21.857 0 0.32463-1.436 0.5227-2.89 4.857-3.7532-5.2606 0.5722-7.7817-3.2389-10.156-7.2855 1.9249-0.50363 3.8986-0.95845 6.4024-0.88308-5.0415-2.2567-6.5592-5.093-6.6232-8.1686l9.0517 0.88308c-5.7762-10.115-2.0389-11.509-1.3246-15.675 3.0495-0.10576 3.9054 1.9819 5.2986 3.5324 0.86659-12.685 7.4811-7.1691 11.48-9.9348l-2.2077 6.6232c2.3583-1.2595 4.5453-2.0907 5.7401-0.44155-11.191 17.601 8.6009 7.4206 20.475 15.792 3.6853 4.0988 4.0844 5.2548 0.49896 5.4018-3.3101 2.0876-6.5471 4.297-6.4024 12.143l-3.3116-3.7532c-2.483 4.8246-5.8175 4.5401-8.8309 6.1817l1.3246-5.5194z" fill="#446c00" fill-opacity=".95686" stroke="#7db212" stroke-linecap="square" stroke-linejoin="round" stroke-width=".9324"/>
 <path d="m203.12 123c-4.195 1.1042-6.5296 0.34792-8.3894-0.88311l2.8701-4.4154c-2.9355 0.79317-4.6015-0.95251-6.4024-2.4285l7.0648-3.5324c-5.1868-0.12361-6.3553-2.926-8.1686-5.2986l4.6362-0.44156c-4.1409-5.3417-1.1567-7.3949 2.2078-9.2725" fill="none" stroke="#7db212" stroke-linecap="round" stroke-linejoin="round" stroke-width=".666"/>
 <path transform="matrix(-.43002 .90282 -.91711 -.39863 0 0)" d="m275.77-186.58a15.956 14.228 0 0 1 -15.265 14.215 15.956 14.228 0 0 1 -16.587 -12.984 15.956 14.228 0 0 1 13.829 -15.339 15.956 14.228 0 0 1 17.785 11.655" fill="#3e435f" fill-rule="evenodd"/>
 <ellipse transform="matrix(.79333 .60879 -.60879 .79333 0 0)" cx="232.48" cy="191.16" rx="12.671" ry="15.257" fill="#353a52" fill-rule="evenodd"/>
 <path transform="matrix(-.39373 .91922 -.97928 -.2025 0 0)" d="m313.78-203.36a18.051 15.288 0 0 1 -17.27 15.274 18.051 15.288 0 0 1 -18.766 -13.951 18.051 15.288 0 0 1 15.644 -16.482 18.051 15.288 0 0 1 20.121 12.523" fill="#596189" fill-rule="evenodd"/>
 <ellipse transform="matrix(-.14733 -.98909 .98909 -.14733 0 0)" cx="-312.18" cy="22.516" rx="14.681" ry="16.779" fill="#636e9b" fill-rule="evenodd"/>
 <path transform="matrix(.88608 .46353 -.46353 .88608 0 0)" d="m377.53 133.43a17.977 16.204 0 0 1 -17.199 16.189 17.977 16.204 0 0 1 -18.688 -14.787 17.977 16.204 0 0 1 15.58 -17.47 17.977 16.204 0 0 1 20.038 13.274" fill="#282b3c" fill-rule="evenodd"/>
 <path transform="matrix(.88608 .46353 -.46353 .88608 0 0)" d="m381.38 115.23a17.977 16.204 0 0 1 -17.199 16.189 17.977 16.204 0 0 1 -18.688 -14.787 17.977 16.204 0 0 1 15.58 -17.47 17.977 16.204 0 0 1 20.038 13.274" fill="#191b26" fill-rule="evenodd"/>
 <path d="m299.2 181.02c-0.77421-5.6177 1.5316-17.658-1.882-20.636l-13.698 12.247-3.5954-5.3932c6.5071-3.6237 14.164-10.318 16.18-12.584-7.4371-0.38548-14.084 2.3888-20.973 4.1947 0.97153-1.4067-0.41047-2.309 8.3894-5.3932-6.4231 0.79683-15.316-0.15238-17.977-1.7977l-12.584-1.7977 29.962 1.1985 14.382-1.1985 24.495-4.8395 2.3479 6.1641-20.252 4.0685c4.1425 14.899-0.34935 24.401-0.59924 36.554l-5.9924-2.397z" fill="#422200"/>
 <ellipse transform="matrix(.16385 .98649 -.98649 .16385 0 0)" cx="301.5" cy="-1.0159" rx="12.671" ry="15.257" fill="#5c638d" fill-rule="evenodd"/>
 <ellipse cx="222.27" cy="157.77" rx="20.896" ry="14.659" fill="#292c3f" fill-rule="evenodd"/>
 <ellipse cx="239.11" cy="199.56" rx="20.896" ry="14.659" fill="#292c3f" fill-rule="evenodd"/>
 <ellipse cx="206.68" cy="234.49" rx="20.896" ry="14.659" fill="#292c3f" fill-rule="evenodd"/>
 <ellipse cx="253.46" cy="236.99" rx="20.896" ry="14.659" fill="#292c3f" fill-rule="evenodd"/>
 <ellipse cx="230.38" cy="268.8" rx="20.896" ry="14.659" fill="#292c3f" fill-rule="evenodd"/>
 <ellipse cx="192.33" cy="215.15" rx="20.896" ry="14.659" fill="#4a4f72" fill-rule="evenodd"/>
 <ellipse cx="179.23" cy="258.82" rx="20.896" ry="14.659" fill="#373b55" fill-rule="evenodd"/>
 <ellipse cx="191.08" cy="188.33" rx="20.896" ry="14.659" fill="#292c3f" fill-rule="evenodd"/>
 <ellipse cx="186.09" cy="299.36" rx="20.896" ry="14.659" fill="#292c3f" fill-rule="evenodd"/>
 <ellipse cx="127.15" cy="304.04" rx="20.896" ry="14.659" fill="#292c3f" fill-rule="evenodd"/>
 <ellipse cx="210.11" cy="165.56" rx="20.896" ry="14.659" fill="#292c3f" fill-rule="evenodd"/>
 <ellipse cx="221.41" cy="195.71" rx="13.371" ry="15.281" fill="#414563" fill-rule="evenodd"/>
 <path transform="matrix(-.43002 .90282 -.91711 -.39863 0 0)" d="m265.52-219.18a15.956 14.228 0 0 1 -15.265 14.215 15.956 14.228 0 0 1 -16.587 -12.984 15.956 14.228 0 0 1 13.829 -15.339 15.956 14.228 0 0 1 17.785 11.655" fill="#3e435f" fill-rule="evenodd"/>
 <ellipse cx="115.36" cy="276.29" rx="15.256" ry="15.58" fill="#484e6c" fill-rule="evenodd"/>
 <ellipse cx="203.73" cy="248.14" rx="16.666" ry="17.378" fill="#373a54" fill-rule="evenodd"/>
 <ellipse transform="matrix(.79333 .60879 -.60879 .79333 0 0)" cx="261.98" cy="173.24" rx="12.671" ry="15.257" fill="#353a52" fill-rule="evenodd"/>
 <ellipse transform="matrix(.9857 -.16851 .10892 .99405 0 0)" cx="67.349" cy="278.77" rx="14.217" ry="14.525" fill="#4d5577" fill-rule="evenodd"/>
 <path transform="matrix(-.39373 .91922 -.97928 -.2025 0 0)" d="m310.43-237.05a18.051 15.288 0 0 1 -17.27 15.274 18.051 15.288 0 0 1 -18.766 -13.951 18.051 15.288 0 0 1 15.644 -16.482 18.051 15.288 0 0 1 20.121 12.523" fill="#596189" fill-rule="evenodd"/>
 <ellipse transform="matrix(.9753 .22088 -.22088 .9753 0 0)" cx="154.71" cy="258.69" rx="16.544" ry="13.646" fill="#606a93" fill-rule="evenodd"/>
 <ellipse transform="matrix(-.14733 -.98909 .98909 -.14733 0 0)" cx="-320.94" cy="55.898" rx="14.681" ry="16.779" fill="#636e9b" fill-rule="evenodd"/>
 <path transform="matrix(.52575 .85064 -.85064 .52575 0 0)" d="m389.02-50.902a17.977 16.204 0 0 1 -17.199 16.189 17.977 16.204 0 0 1 -18.688 -14.787 17.977 16.204 0 0 1 15.58 -17.47 17.977 16.204 0 0 1 20.038 13.274" fill="#191b26" fill-rule="evenodd"/>
 <path transform="matrix(.52575 .85064 -.85064 .52575 0 0)" d="m389.99-22.831a17.977 16.204 0 0 1 -17.199 16.189 17.977 16.204 0 0 1 -18.688 -14.787 17.977 16.204 0 0 1 15.58 -17.47 17.977 16.204 0 0 1 20.038 13.274" fill="#191925" fill-rule="evenodd"/>
 <ellipse cx="238.35" cy="214.58" rx="15.256" ry="15.58" fill="#404563" fill-rule="evenodd"/>
 <ellipse cx="235.98" cy="226.57" rx="14.681" ry="14.981" fill="#5c638d" fill-rule="evenodd"/>
 <ellipse cx="206.13" cy="221.17" rx="16.666" ry="17.378" fill="#424564" fill-rule="evenodd"/>
 <ellipse cx="253.31" cy="262.22" rx="16.737" ry="17.078" fill="#3d415d" fill-rule="evenodd"/>
 <path transform="matrix(.76848 .63987 -.63987 .76848 0 0)" d="m378.11 96.537a15.225 13.723 0 0 1 -14.566 13.71 15.225 13.723 0 0 1 -15.827 -12.523 15.225 13.723 0 0 1 13.195 -14.795 15.225 13.723 0 0 1 16.97 11.242" fill="#363a52" fill-rule="evenodd"/>
 <ellipse cx="176.95" cy="237.05" rx="14.681" ry="17.678" fill="#4a5072" fill-rule="evenodd"/>
 <ellipse cx="161.07" cy="270.73" rx="15.58" ry="18.76" fill="#4a5072" fill-rule="evenodd"/>
 <ellipse cx="216.16" cy="270.61" rx="16.737" ry="17.078" fill="#353951" fill-rule="evenodd"/>
 <path transform="matrix(.76848 .63987 -.63987 .76848 0 0)" d="m365 86.404a15.225 13.723 0 0 1 -14.566 13.71 15.225 13.723 0 0 1 -15.827 -12.523 15.225 13.723 0 0 1 13.195 -14.795 15.225 13.723 0 0 1 16.97 11.242" fill="#1d202d" fill-rule="evenodd"/>
 <ellipse cx="187.14" cy="284.39" rx="15.88" ry="17.678" fill="#353951" fill-rule="evenodd"/>
 <path transform="matrix(.76848 .63987 -.63987 .76848 0 0)" d="m366.75 109.12a15.225 13.723 0 0 1 -14.566 13.71 15.225 13.723 0 0 1 -15.827 -12.523 15.225 13.723 0 0 1 13.195 -14.795 15.225 13.723 0 0 1 16.97 11.242" fill="#3e435f" fill-rule="evenodd"/>
 <path transform="matrix(-.91091 .41259 -.44375 -.89615 0 0)" d="m36.425-346.68a15.956 14.228 0 0 1 -15.265 14.215 15.956 14.228 0 0 1 -16.587 -12.984 15.956 14.228 0 0 1 13.829 -15.339 15.956 14.228 0 0 1 17.785 11.655" fill="#52597e" fill-rule="evenodd"/>
 <ellipse cx="141.3" cy="299.49" rx="15.58" ry="18.76" fill="#3f4461" fill-rule="evenodd"/>
 <ellipse cx="164.97" cy="294.7" rx="18.277" ry="18.76" fill="#343850" fill-rule="evenodd"/>
 <path transform="matrix(-.7011 .71306 -.83856 -.54481 0 0)" d="m192.51-340.16a18.051 15.288 0 0 1 -17.27 15.274 18.051 15.288 0 0 1 -18.766 -13.951 18.051 15.288 0 0 1 15.644 -16.482 18.051 15.288 0 0 1 20.121 12.523" fill="#585f86" fill-rule="evenodd"/>
 <ellipse transform="matrix(.16385 .98649 -.98649 .16385 0 0)" cx="310.81" cy="-34.247" rx="12.671" ry="15.257" fill="#5c638d" fill-rule="evenodd"/>
 <ellipse transform="matrix(.88873 .45843 -.75222 .65892 0 0)" cx="279.94" cy="226.85" rx="11.559" ry="12.618" fill="#555b82" fill-rule="evenodd"/>
 <ellipse cx="298.29" cy="219.53" rx="14.669" ry="13.338" fill="#414765" fill-rule="evenodd"/>
 <ellipse cx="288.1" cy="242.3" rx="14.669" ry="15.136" fill="#292c3f" fill-rule="evenodd"/>
 <path transform="matrix(.88608 .46353 -.46353 .88608 0 0)" d="m379 91.832a17.977 16.204 0 0 1 -17.199 16.189 17.977 16.204 0 0 1 -18.688 -14.787 17.977 16.204 0 0 1 15.58 -17.47 17.977 16.204 0 0 1 20.038 13.274" fill="#191b26" fill-rule="evenodd"/>
 <ellipse cx="254.32" cy="242.45" rx="12.95" ry="11.685" fill="#424765" fill-rule="evenodd"/>
 <ellipse cx="314.41" cy="209.94" rx="20.6" ry="18.731" fill="#4c5376" fill-rule="evenodd"/>
 <ellipse cx="308.41" cy="230.62" rx="20.6" ry="16.634" fill="#434968" fill-rule="evenodd"/>
 <ellipse cx="292.88" cy="196.01" rx="15.256" ry="15.58" fill="#454b6a" fill-rule="evenodd"/>
 <ellipse cx="275.52" cy="219.68" rx="17.066" ry="16.479" fill="#4e5579" fill-rule="evenodd"/>
 <ellipse cx="289.29" cy="184.02" rx="15.256" ry="15.58" fill="#383d56" fill-rule="evenodd"/>
 <ellipse cx="270.11" cy="167.84" rx="15.256" ry="15.58" fill="#32364d" fill-rule="evenodd"/>
 <ellipse cx="268.31" cy="194.21" rx="15.256" ry="15.58" fill="#50577b" fill-rule="evenodd"/>
 <ellipse cx="261.72" cy="169.64" rx="15.256" ry="15.58" fill="#424765" fill-rule="evenodd"/>
 <ellipse cx="255.97" cy="153.16" rx="12.615" ry="12.884" fill="#383c55" fill-rule="evenodd"/>
 <ellipse cx="238.24" cy="142.07" rx="15.256" ry="15.58" fill="#454a68" fill-rule="evenodd"/>
 <ellipse cx="199.89" cy="196.6" rx="15.256" ry="15.58" fill="#3c415a" fill-rule="evenodd"/>
 <ellipse cx="212.72" cy="182.22" rx="16.666" ry="17.378" fill="#494d6f" fill-rule="evenodd"/>
 <ellipse cx="177.11" cy="215.78" rx="15.256" ry="15.58" fill="#484e6c" fill-rule="evenodd"/>
 <ellipse cx="167.53" cy="245.14" rx="15.256" ry="15.58" fill="#505779" fill-rule="evenodd"/>
 <ellipse transform="matrix(.51122 -.85945 .85945 .51122 0 0)" cx="-157.74" cy="290.83" rx="14.681" ry="16.779" fill="#6874a3" fill-rule="evenodd"/>
 <ellipse cx="153.15" cy="274.51" rx="15.256" ry="15.58" fill="#555d81" fill-rule="evenodd"/>
 <ellipse cx="131.57" cy="284.69" rx="15.256" ry="12.584" fill="#5c658c" fill-rule="evenodd"/>
 <ellipse transform="matrix(-.14733 -.98909 .98909 -.14733 0 0)" cx="-314.79" cy="90.868" rx="14.681" ry="16.779" fill="#6874a3" fill-rule="evenodd"/>
 <ellipse transform="matrix(.9753 .22088 -.22088 .9753 0 0)" cx="192.69" cy="239.05" rx="16.544" ry="13.646" fill="#4c5475" fill-rule="evenodd"/>
 <ellipse transform="matrix(.9753 .22088 -.22088 .9753 0 0)" cx="196.14" cy="208.16" rx="16.544" ry="13.646" fill="#4c5475" fill-rule="evenodd"/>
 <ellipse transform="matrix(.9753 .22088 -.22088 .9753 0 0)" cx="204.77" cy="219.11" rx="16.544" ry="13.646" fill="#565f84" fill-rule="evenodd"/>
 <ellipse transform="matrix(.98919 -.14661 .12539 .99211 0 0)" cx="160.43" cy="177.63" rx="17.477" ry="15.566" fill="#6772a0" fill-rule="evenodd"/>
 <ellipse transform="matrix(.98919 -.14661 .12539 .99211 0 0)" cx="170.61" cy="173.81" rx="12.662" ry="11.277" fill="#5e6993" fill-rule="evenodd"/>
 <ellipse cx="211.87" cy="151.06" rx="15.256" ry="15.58" fill="#434865" fill-rule="evenodd"/>
 <ellipse cx="237.04" cy="164.84" rx="15.256" ry="15.58" fill="#4f5577" fill-rule="evenodd"/>
 <ellipse transform="matrix(.9857 -.16851 .10892 .99405 0 0)" cx="149.93" cy="202.96" rx="14.217" ry="14.525" fill="#5a658d" fill-rule="evenodd"/>
 <ellipse transform="matrix(.99076 -.1356 .1356 .99076 0 0)" cx="168.06" cy="199.51" rx="17.449" ry="14.394" fill="#65709e" fill-rule="evenodd"/>
 <ellipse transform="matrix(.9857 -.16851 .10892 .99405 0 0)" cx="135.45" cy="229.45" rx="14.217" ry="14.525" fill="#4d5577" fill-rule="evenodd"/>
 <ellipse transform="matrix(.9753 .22088 -.22088 .9753 0 0)" cx="277.45" cy="127.69" rx="16.544" ry="13.646" fill="#4c5475" fill-rule="evenodd"/>
 <ellipse cx="252.13" cy="195.41" rx="15.256" ry="15.58" fill="#5e6691" fill-rule="evenodd"/>
 <ellipse cx="237.48" cy="214.58" rx="14.681" ry="16.779" fill="#464b6b" fill-rule="evenodd"/>
 <ellipse cx="211.11" cy="219.38" rx="14.681" ry="16.779" fill="#65709e" fill-rule="evenodd"/>
 <ellipse cx="261.15" cy="221.17" rx="14.082" ry="14.382" fill="#575e86" fill-rule="evenodd"/>
 <ellipse cx="235.98" cy="226.57" rx="14.681" ry="14.981" fill="#5c638d" fill-rule="evenodd"/>
 <ellipse cx="226.04" cy="249.64" rx="17.324" ry="17.678" fill="#5c638d" fill-rule="evenodd"/>
 <ellipse transform="matrix(.51122 -.85945 .85945 .51122 0 0)" cx="-106.14" cy="281.19" rx="14.681" ry="16.779" fill="#606b97" fill-rule="evenodd"/>
 <ellipse cx="197.33" cy="253.23" rx="14.681" ry="15.281" fill="#4a5072" fill-rule="evenodd"/>
 <ellipse cx="189.54" cy="266.42" rx="15.88" ry="14.681" fill="#585f88" fill-rule="evenodd"/>
 <ellipse transform="matrix(.9753 .22088 -.22088 .9753 0 0)" cx="201.58" cy="186.04" rx="16.544" ry="13.646" fill="#606a93" fill-rule="evenodd"/>
 <ellipse transform="matrix(1 .0028569 -.0028569 1 0 0)" cx="126.92" cy="254.59" rx="16.544" ry="13.646" fill="#636d97" fill-rule="evenodd"/>
 <ellipse transform="matrix(.64766 .76193 -.76193 .64766 0 0)" cx="294.87" cy="88.976" rx="15.256" ry="12.584" fill="#636d97" fill-rule="evenodd"/>
 <path transform="matrix(-.68098 .7323 -.88566 -.46433 0 0)" d="m218.74-357.66a18.596 15.439 0 0 1 -17.791 15.425 18.596 15.439 0 0 1 -19.332 -14.089 18.596 15.439 0 0 1 16.116 -16.645 18.596 15.439 0 0 1 20.728 12.647" fill="#50567a" fill-rule="evenodd"/>
 <ellipse transform="matrix(.9753 .22088 -.22088 .9753 0 0)" cx="214.13" cy="156" rx="17.449" ry="14.394" fill="#555e84" fill-rule="evenodd"/>
 <path d="m279.04 145c-32.746-12.696-37.702-7.7852-44.33-6.9386 5.6167-0.33985 29.494 1.4244 52.81 16.961z" fill="#532a00"/>
 <path d="m318.36 145.77-7.7096 1.1564c2.9097 10.619-3.0421 12.377-19.659 3.4693-17.086-9.7971-17.9-32.249-26.598-48.57l-3.8548-0.77095c7.569 18.486 7.816 40.966 25.442 53.967 27.17 15.183 31.602 5.0037 32.38-9.2514z" fill="#714300" fill-opacity=".98824"/>
 <path d="m230.94 99.818-4.6362 3.5324c-3.9765 1.1991-4.548-1.858-6.4024-3.3116-2.3039 1.708-1.3404 5.7499 0.44155 10.376l-9.714 6.844-5.9609 1.1039c-4.1765 3.8267-7.1078 7.6535-14.571 11.48 0.49729 1.2919-1.5143 2.1602 4.4155 3.9739-4.5774 0.0626-5.9736 2.5109-8.3894 4.1947 2.9105 2.6713 5.8317 5.4064 8.1686 4.6362-0.14732 1.2618-0.29437 2.5327-0.44156 5.5193 1.7264 0.79845 3.5205 1.4279 6.4024-0.66232l0.44153 5.5193c3.4192-0.19821 4.3684-2.0429 6.1816-3.3116 0.5377 2.5531 2.2952 3.8865 3.9739 5.2986 4.4972-2.2658 4.5636-3.1374 6.6232-4.6362l-0.22085 4.857c2.8402-0.60459 4.8709-3.6378 6.844-6.844 0.63094 0.53568 1.1067 1.5369 0 7.2855 3e-3 0.65949 2.5915-1.2669 4.857-2.87 0.0461 1.9184-2.4935 7.1319-1.1038 8.1686 2.2862-1.5082 2.5083 0.82959 6.1816-4.6362l1.3246 6.1817c3.0622 0.15372 0.97404-9.5088 2.2077-10.156l4.1947 5.2986c6.1488-3.6796 3.7306-7.3591 0-11.039-0.97513-1.8424 2.7871-0.30106 5.7401 0.66232 1.347-6.6627-2.2329-10.041-9.714-10.818-5.3625-4.0443 1.7046-6.889 5.0778-5.0778 2.2702 1.5787 4.0522 4.6223 5.7401 7.9478l1.3246 3.0908c-0.87309-4.0325 2.3056-0.55237 1.7662-5.5194l4.857 5.5194c2.4924-1.0351 1.555-4.9994-4.1947-7.9478 1.4413-3.9253 5.9247-0.14945 8.8309 0-1.0813-2.2615-0.63448-5.7851-3.9739-6.1817l4.4154-3.3116c-1.4925-1.1884-2.8465-2.55-6.6232-0.88311l-0.22085-4.6362-9.0517-13.246z" fill="#3f6900" fill-opacity=".96471" stroke="#7db212" stroke-linecap="round" stroke-linejoin="round" stroke-width=".9324"/>
 <path d="m241.09 115.05c-6.4372 27.345-31.239 17.042-48.129 22.96" fill="none" stroke="#7db212" stroke-linecap="round" stroke-linejoin="round" stroke-width=".666"/>
 <path d="m262.08 102.21c2.9369-3.6671 10.812 16.128 14.263 16.576l1.5419-5.0112c2.0021 1.8527 5.534 2.1756 9.2514 2.3128l-1.1564-3.8548c4.062 1.9316 6.6592 0.42339 9.6369-0.38548l-3.4693-6.1676c2.3084-0.2038 4.4865-0.10337 8.4805-4.2402l-7.7095-2.3129c2.6903-0.38947 3.8661-1.5363 4.2402-3.0838l-6.1676-2.3128c6.0654 6.7e-4 10.1-2.5375 13.877-5.3967l-7.7096-1.1564c6.6857-3.5974 6.8338-7.7892 7.3241-11.95h-5.0112c2.7284-3.7363 1.7955-6.2522 1.1564-8.866l-4.6257 3.8548c1.4844-4.0773 0.19767-6.4918-1.1564-8.866-2.8956 2.1246-4.3629 2.821-6.1676 3.8548l-1.5419-2.6983c-3.7085 1.234-5.9325 3.5814-7.324 6.5531 2.4653 4.8014-0.0541 5.7259-2.6984 6.5531-3.9943-2.6973-1.4273-5.9912 0.77096-9.2515-3.61-2.0981-0.80309-2.2711 1.1564-2.6984 4.3538 0.85463 7.1149-3.0689 10.408-5.3967-1.1261-0.90956-2.9174-1.5974-5.7822-1.9274 1.081-2.0559 2.9693-4.1118 6.9386-6.1676-2.7166-0.65065-4.415-2.0364-9.2515-1.1564-1.4527 0.0053-0.49196-1.9193 3.8548-6.5531-1.9222-0.58597-4.6302 8e-3 -7.7096 1.1564 1.3843-5.3667 1.5382-8.0125 1.1564-11.179-4.0978 1.0175-7.2754 3.0257-9.6369 4.6257-0.41143-1.8755-1.3294-2.738-2.3128-3.4693l-5.7822 5.7822c-1.6934-0.68707-1.7924-3.3903-4.6257-3.4693-1.8881 1.3718-6.4023 9.0782-8.095 13.492-0.90591-1.7924-1.4728-3.9239-3.4693-4.6257-5.9365 8.9215 2.4215 11.926 0.21765 14.716-1.924-1.2917-3.9134-1.7997-6.3853-1.9957 0.024 3.5219 4.0447 12.789 10.793 13.106 1.4563-0.25601 2.0823 7.5994-3.4693 5.0112-2.2484-3.3407-1.5404-5.3675-8.4805-10.793l-1.9274 3.0838c-2.6028-3.7296-4.4966-4.6232-6.5531-6.1676-2.348 2.4823-1.744 4.2265-1.9274 6.1676-2.0559-1.0737-4.1118-1.3915-6.1676-1.9274-0.35471 3.9679 0.73503 7.2135 2.6983 10.022l-5.0112-1.5419c-0.67932 4.7313 1.438 8.7635 5.3967 12.335l-7.7096-0.38548c0.63661 3.8816 6.6031 6.6973 13.877 9.2515l-4.6257 1.1564c0.87408 2.8586 7.0365 6.5602 10.153 6.6155l-3.4567 3.4195 3.7552 1.8776-7.125 4.1221c2.8329 4.3641 5.8451 2.1201 9.0086 4.3955l0.6031 3.8733c3.8725-1.4134 9.4148-3.262 10.974-4.6755l-1.4238 5.751c5.9153-2.8168 11.859-6.4335 12.205-10.731-0.0512-4.471-0.26965-9.2768 1.9274-9.2514z" fill="#1b3d00" stroke="#a1b20b" stroke-linecap="square" stroke-linejoin="round" stroke-width=".9324"/>
 <path d="m262.11 101.78c-3.0234-25.334 3.0547-47.14 13.928-64.947" fill="none" stroke="#a1b212" stroke-linecap="round" stroke-linejoin="round" stroke-width=".666"/>
 <path d="m263.85 66.648c4.0742-5.3934 6.561-11.263 16.104-15.016" fill="none" stroke="#a1b212" stroke-linecap="round" stroke-linejoin="round" stroke-width=".666"/>
 <path d="m261.24 79.487c-9.3146-12.664-8.0002-17.735-9.7929-25.026" fill="none" stroke="#a1b212" stroke-linecap="round" stroke-linejoin="round" stroke-width=".666"/>
 <path d="m261.68 83.622c6.9108-16.661 12.473-19.842 18.28-25.462" fill="none" stroke="#a1b212" stroke-linecap="round" stroke-linejoin="round" stroke-width=".666"/>
 <path d="m270.38 68.389c1.7423 0.28608 3.9971-0.96514 6.311-2.3938" fill="none" stroke="#a1b212" stroke-linecap="round" stroke-linejoin="round" stroke-width=".666"/>
 <path d="m293.67 67.301c-7.821 12.649-15.989 24.875-31.773 27.855-14.046-5.9966-23.811-15.918-30.902-28.291" fill="none" stroke="#a1b212" stroke-linecap="round" stroke-linejoin="round" stroke-width=".666"/>
 <path d="m241 109.3c8.5285-3.4924 14.808-8.7843 20.456-14.581 15.483-0.63818 18.685 9.094 31.773 6.5286" fill="none" stroke="#a1b212" stroke-linecap="round" stroke-linejoin="round" stroke-width=".666"/>
 <path d="m241 72.088c-0.27884 1.3703 0.20912 4.6577 1.0881 8.9224-2.581 0.1958-5.7262-0.54865-11.751-6.0934" fill="none" stroke="#a1b212" stroke-linecap="round" stroke-linejoin="round" stroke-width=".666"/>
 <path d="m273.43 80.358c-1.9382 4.451-2.9915 8.4596-2.6114 11.751 10.26 6.0366 14.265 3.3156 18.933 1.5234" fill="none" stroke="#a1b212" stroke-linecap="round" stroke-linejoin="round" stroke-width=".666"/>
 <path d="m278.65 86.669c6.1659 2.9262 12.332 1.3075 18.498-1.5233" fill="none" stroke="#a1b212" stroke-linecap="round" stroke-linejoin="round" stroke-width=".666"/>
 <path d="m286.92 71c-1.6929 3.2684-4.0257 6.6434-2.3938 9.3577 4.7023 3.2814 8.681-0.67314 12.84-2.829" fill="none" stroke="#a1b212" stroke-linecap="round" stroke-linejoin="round" stroke-width=".666"/>
 <path d="m248.4 87.322c-5.562 0.5784-12-1.4711-18.715-4.3524" fill="none" stroke="#a1b212" stroke-linecap="round" stroke-linejoin="round" stroke-width=".666"/>
 <path d="m256.4 92.85c-7.4716 0.94002-15.106 2.2214-22.577-2.4814" fill="none" stroke="#a1b212" stroke-linecap="round" stroke-linejoin="round" stroke-width=".666"/>
 <path d="m251.88 102.99c-3.1192 0.0927-6.2384 0.41569-9.3577 1.0881" fill="none" stroke="#a1b212" stroke-linecap="round" stroke-linejoin="round" stroke-width=".666"/>
 <path d="m252.97 102.56c0.90115 4.6186-0.10362 8.1482-3.2643 10.446" fill="none" stroke="#a1b212" stroke-linecap="round" stroke-linejoin="round" stroke-width=".666"/>
 <path d="m256.99 99.093c0.86953 5.0773 0.1039 8.9308-0.0975 13.473" fill="none" stroke="#a1b212" stroke-linecap="round" stroke-linejoin="round" stroke-width=".666"/>
 <path d="m273.86 97.767c-0.45453 4.1376 1.18 7.9766 4.7876 11.534" fill="none" stroke="#a1b212" stroke-linecap="round" stroke-linejoin="round" stroke-width=".666"/>
 <path d="m281.7 100.81c0.86239 3.3111 2.9834 6.1187 6.7462 8.2696" fill="none" stroke="#a1b212" stroke-linecap="round" stroke-linejoin="round" stroke-width=".666"/>
 <path d="m116.49 128.95c1.9706 23.238 23.373 18.007 22.88 3.9638l1.7701 2.2252c1.6482 12.106-27.3 19.251-26.298-6.7151z" fill="#5d3800"/>
 <path d="m139.59 136.4c-4.3576-13.968-25.102-0.87147-12.676 17.814l-3.6444-2.3435c-9.1153-29.571 17.554-27.072 17.673-16.253z" fill="#895200"/>
 <path d="m125.37 151.97c9.1859 13.498 27.499-2.8863 15.135-8.1631 20.06 5.3064-10.236 24.686-17.27 7.594z" fill="#895200"/>
 <path d="m131.23 105.67c-7.6636 11.358-0.11375 28.817 7.5186 17.018l0.17823 2.8377c-7.8928 8.0877-19.372-4.2631-8.8962-20.948z" fill="#754600"/>
 <path d="m136.93 125.67c4.4203-13.949-20.086-15.08-20.59 7.3542l-1.6475-4.0075c9.448-29.467 29.888-12.155 23.794-3.2151z" fill="#895200"/>
 <path d="m256.33 129.84c-6.3674-2.8182-12.157-7.5157-20.753-3.0908-0.67602-2.441-0.28827-4.73-4.857-7.727" fill="none" stroke="#7db212" stroke-linecap="round" stroke-linejoin="round" stroke-width=".666"/>
 <path d="m219.24 123.44c5.7652 0.097 11.298 0.65926 15.896 3.0908-0.65087 5.0632-2.791 10.954 1.5454 13.246-5.6649 6.3039-4.5372 7.7494-5.0778 11.259" fill="none" stroke="#7db212" stroke-linecap="round" stroke-linejoin="round" stroke-width=".666"/>
 <path d="m236.46 139.12c4.2601 0.18728 3.4914 4.4891 1.3246 9.9348" fill="none" stroke="#7db212" stroke-linecap="round" stroke-linejoin="round" stroke-width=".666"/>
 <path d="m226.74 132.93c0.58381 10.553-4.3027 12.9-9.4933 14.792" fill="none" stroke="#7db212" stroke-linecap="round" stroke-linejoin="round" stroke-width=".666"/>
 <path d="m224.53 133.16c-1.3026-2.8783-9.4714-3.7561-16.116-5.0778" fill="none" stroke="#7db212" stroke-linecap="round" stroke-linejoin="round" stroke-width=".666"/>
 <path d="m201.35 130.95c5.4148 0.6668 8.2902 2.0052 7.9478 4.1947" fill="none" stroke="#7db212" stroke-linecap="round" stroke-linejoin="round" stroke-width=".666"/>
 <path d="m217.03 135.36c-1.1824 4.5388-5.0829 7.5244-10.376 9.714" fill="none" stroke="#7db212" stroke-linecap="round" stroke-linejoin="round" stroke-width=".666"/>
 <path d="m219.31 108.25-18.181 7.2435" fill="none" stroke="#7db212" stroke-linecap="round" stroke-linejoin="round" stroke-width=".666"/>
 <path d="m212.17 111.52c1.0997 2.6337 0.95923 5.0194-0.88308 7.0648" fill="none" stroke="#7db212" stroke-linecap="round" stroke-linejoin="round" stroke-width=".666"/>
 <path d="m212.97 104.92c-3.8728 1.5365-9.2148 4.3967-12.5 4.1702" fill="none" stroke="#7db212" stroke-linecap="round" stroke-linejoin="round" stroke-width=".666"/>
 <path d="m192.76 114.35c-4.0287 0.69834-7.667-2.468-9.9523-5.2565" fill="none" stroke="#7db212" stroke-linecap="round" stroke-linejoin="round" stroke-width=".666"/>
 <path d="m192.67 106.09c-3.6163-2.129-6.6853-5.6855-6.7735-9.5785" fill="none" stroke="#7db212" stroke-linecap="round" stroke-linejoin="round" stroke-width=".666"/>
 <path d="m194.28 117.5c-2.3862 0.73187-4.831 2.6344-9.9225 1.7431" fill="none" stroke="#7db212" stroke-linecap="round" stroke-linejoin="round" stroke-width=".666"/>
 <path d="m150.87 115.8c22.098-0.51556 17.215-20.936 3.9013-21.284l2.4692-1.1532c11.548-0.85661 17.996 26.266-6.5099 23.812z" fill="#5d3400"/>
 <path d="m171.99 108.87c13.302-7.9067-1.1345-26.182-6.844-14.792 6.1842-18.669 22.759 11.116 6.1816 16.779z" fill="#734400"/>
</svg>
