<?xml version="1.0" encoding="UTF-8"?>
<svg version="1.1" viewBox="0 0 250 300" xmlns="http://www.w3.org/2000/svg" xmlns:xlink="http://www.w3.org/1999/xlink">
 <defs>
  <filter id="d" x="-.20724" y="-.15909" width="1.4145" height="1.3182">
   <feGaussianBlur stdDeviation="6.3242072"/>
  </filter>
  <filter id="c">
   <feGaussianBlur stdDeviation="0.91907147"/>
  </filter>
  <linearGradient id="a" x1="179.31" x2="179.82" y1="174.52" y2="86.879" gradientUnits="userSpaceOnUse">
   <stop stop-color="#0d4395" offset="0"/>
   <stop stop-color="#77a3e8" offset="1"/>
  </linearGradient>
  <filter id="b" x="-.091605" y="-.33642" width="1.1832" height="1.6728">
   <feGaussianBlur stdDeviation="3.5177657"/>
  </filter>
 </defs>
 <g transform="translate(0 8.0037)">
  <path d="m57.057 115.11c0-3.8533-5.5659-7.7066-8.1347-17.982-2.5689-10.276-4.7034-35.104 4.7096-51.377 9.4027-16.255 32.26-48.633 65.608-44.955 18.44 2.034 26.574 13.215 29.204 24.826 1.1708 5.1686 30.553 8.9466 48.593 15.957 17.54 6.816 31.972 20.891 36.109 36.5 6.0646 22.882 0.4912 47.693-8.2425 62.902-8.91 15.516-34.042 39.236-52.988 39.615-15.35 0.3074-31.611 1.7959-46.834-7.854-18.432-11.684-23.732-26.506-29.94-36.915-2.2336-3.7449-9.1799-15.622-13.995-12.998-5.7261 3.1206-13.814 8.1235-19.808 7.4812-5.1377-5.7799-4.2814-11.346-4.2814-15.199z" fill="#d7e3f4" stroke="#afc6e9" stroke-width="1px"/>
  <path d="m167.46 96.494c-13.378 0.039-25.336 0.375-30.75 0.375-14.437 0-66.643-2.2321-79.969 11.094-7.7735 25.541-3.3125 59.982-3.3125 77.75 0 17.768 1.105 52.181-10 58.844-11.105 6.663-31.745 12.617-37.75 18.875-15.633 16.293 10.461 31.48 41.062 26.656 19.745-3.1125 52.194-13.318 45.531-23.312-6.663-9.9944-15.525-11.114-22.188-22.219-6.663-11.105-14.456-54.403-11.125-73.281 3.3315-18.878 3.3538-39.977 8.9062-47.75 4.8786-6.83 10.601-10.244 15.688-10.969 21.939 7.2201 20.707 40.511 48.969 54.812 33.948 15.503 61.327 5.1851 82.813-23 9.5535-13.092 8.125-41.75 8.125-41.75h-0.094c-0.1041-0.4219-0.4783-0.8605-1.1562-1.3124-6.2465-4.1644-32.453-4.8776-54.75-4.8126z" color="#000000" fill="#fff" stroke="#c8beb7" stroke-width="2"/>
  <path d="m57.041 100.73c-0.26849-0.0714-0.9886-1.1412-1.6441-2.4425-2.0608-4.0913-3.4734-9.6018-4.0372-15.749-0.20914-2.2803-0.17538-8.0468 0.06274-10.718 0.88104-9.8827 3.7162-20.15 7.8383-28.386 2.2317-4.459 4.7102-8.2025 8.3006-12.537 5.8654-7.0813 11.997-13.009 17.713-17.123 6.9569-5.0077 15.334-8.3238 23.525-9.3124 2.0198-0.24378 6.7328-0.285 8.7283-0.07635 3.1645 0.33088 5.7505 0.86708 8.4125 1.7443 2.9727 0.97961 4.9011 2.0216 4.9011 2.6483 0 0.60096-0.88468 0.64252-3.9738 0.18669-4.0765-0.60152-6.0414-0.76646-9.2723-0.7783-1.7121-0.0063-3.7878 0.06223-4.6126 0.15223-10.434 1.1384-20.314 5.8256-30.357 14.403-3.4043 2.9072-10.199 9.9922-13.398 13.971-5.6922 7.0787-9.7884 15.876-12.549 26.951-1.3829 5.5482-1.9945 10.152-2.0974 15.786-0.12616 6.9102 0.5395 11.999 2.3418 17.902 0.73981 2.4232 0.81681 2.7566 0.72292 3.1307-0.08273 0.32961-0.16653 0.36393-0.60449 0.24753z" color="#000000" fill="#fff" stroke="#fff"/>
  <path d="m197.24 109.25c17.515-3.1137 24.132-2.3353 26.078-6.2275m-134.28 9.3413c25.299 3.1138 44.371 2.7246 55.269 1.9461" color="#000000" fill="none" stroke="#c8beb7" stroke-width="2"/>
  <path d="m67.672 125.01c10.519-0.9475 15.522-10.311 22.502-11.993 14.574-3.5114 24.611-10.287 44.487-31.89 19.876-21.603 11.962-65.465 13.783-55.513 1.1708 5.1686 30.553 8.9466 48.593 15.957 17.54 6.816 31.972 20.891 36.109 36.5 6.0646 22.882 0.4912 47.693-8.2425 62.902-8.91 15.516-34.042 39.236-52.988 39.615-15.35 0.3074-31.611 1.7959-46.834-7.854-18.432-11.684-23.732-26.506-29.94-36.915-2.2336-3.7449-9.1799-15.622-13.995-12.998-5.7261 3.1206-10.551 7.5477-16.545 6.9054 0.62051-5.9718 3.0707-0.86238 3.0707-4.7157z" fill="url(#a)" opacity=".3" stroke="#214478" stroke-width="1px"/>
  <path d="m163.31 39.293c16.881 1.9806 40.3 7.1997 51.66 18.4 17.376 17.403 9.2148 27.9 9.9075 40.338 0 0-13.671-9.2217-18.753-24.415-3.9968-11.948-23.576-28.614-42.814-34.322z" fill="#d7e3f4"/>
  <path d="m69.982 123.92c0.03429-0.0335 0.80464-0.65631 1.7119-1.384 0.90725-0.72769 2.362-2.0974 3.2328-3.0437 3.1343-3.4064 6.5562-6.4869 9.4539-8.5108 3.8712-2.7038 7.5074-4.4952 14.616-7.2007 3.8354-1.4598 6.5395-3.0106 10.698-6.1352 7.6973-5.7837 15.342-13.614 20.009-20.496 3.5429-5.2243 8.3408-14.824 10.801-21.61 2.2445-6.1917 3.2201-13.355 2.7929-20.509-0.26485-4.4354-0.67787-7.5138-1.8811-14.02-0.29987-1.6217-0.5235-3.1702-0.49694-3.4413l0.0483-0.49283 0.48039 0.73216c0.97836 1.4911 2.5689 5.7904 3.5436 9.5783 1.9596 7.6157 2.3912 15.755 1.2078 22.778-0.9056 5.3746-2.656 10.427-5.7668 16.646-3.6858 7.3681-6.5554 12.004-10.151 16.399-7.8076 9.5438-20.551 19.816-28.068 22.625-0.32917 0.12302-1.8441 0.64713-3.3665 1.1647-9.4311 3.2062-14.574 6.1705-21.527 12.408-1.0387 0.93169-2.0568 1.8782-2.2625 2.1034-0.66228 0.72485-2.1326 1.6205-3.364 2.0492-1.0488 0.36512-1.8985 0.54427-1.7107 0.36065z" color="#000000" fill="#88a3ce" filter="url(#c)"/>
  <path d="m86.996 123.13c-0.58624-0.0984-1.1799-0.32018-1.1799-0.44083 0-0.23595 0.62906-0.50772 2.5564-1.1044 9.3819-2.9046 11.653-3.7628 17.174-6.4888 12.344-6.0954 24.316-15.166 31.053-23.526 1.2389-1.5376 2.3102-3.3478 4.1173-6.9575 3.6259-7.2424 5.119-10.868 7.2527-17.609 2.4419-7.7152 3.1792-11.184 3.7254-17.525 0.21944-2.5481 0.25557-9.4052 0.0656-12.454-0.38667-6.2069-0.43186-7.6019-0.27099-8.3659 0.17341-0.82352 0.36547-0.99441 0.86289-0.76777 0.60754 0.27681 1.8532 2.285 2.806 4.5236 3.1253 7.3429 4.4744 16.798 3.6692 25.717-0.87783 9.724-3.9977 18.467-11.04 30.939-2.5733 4.5573-4.1854 6.691-7.6785 10.163-4.5154 4.4882-9.9622 8.6521-16.177 12.366-10.843 6.4808-21.072 10.328-30.381 11.426-1.4912 0.17591-5.7279 0.24378-6.5549 0.10499z" color="#000000" fill="#214478" filter="url(#d)" opacity=".75"/>
  <path transform="translate(0 -8.0037)" d="m91.656 273.91c-14.625 10.987-31.329 17.535-47.969 19.688-12.923 0.59573-28.3 0.94411-38.125-12.094-1.699-2.1877-2.3832-4.5809-2.375-6.9688-9.7968 15.05 14.912 28.079 43.562 23.562 19.745-3.1125 52.194-13.318 45.531-23.312-0.20408-0.30612-0.41692-0.58499-0.625-0.875z" color="#000000" fill="#c8beb7" filter="url(#b)"/>
 </g>
</svg>
