<?xml version="1.0" encoding="UTF-8"?>
<svg viewBox="0 0 219.27 121.12" xmlns="http://www.w3.org/2000/svg">
 <g stroke="#500">
  <path d="m35.251 120.87h0.056-21.237c-0.40103-1.5335 8.0645-3.6744 10.304-4.8323 7.7179-3.9911 8.6453-6.3559 8.7878-22.408 0.14935-16.821-0.74073-20.59-5.3304-22.57-15.367-6.6283-22.422-18.13-20.479-33.386 0.69321-5.4436 6.9537-27.788 8.3208-30h39.212c1.3671 2.212 7.6276 24.557 8.3208 30 1.9428 15.256-5.1122 26.758-20.479 33.386-4.5896 1.9797-5.4797 5.7484-5.3304 22.57 0.14255 16.052 1.0699 18.417 8.7878 22.408 2.2393 1.158 10.705 3.2988 10.304 4.8323h-21.237z" fill="#fff"/>
  <g fill="none">
   <path d="m187.5 120.62h0.056-21.237c-0.40103-1.5335 8.0645-3.6744 10.304-4.8323 7.7179-3.9911 8.6453-6.3559 8.7878-22.408 0.14935-16.821-0.74072-20.59-5.3304-22.57-15.367-6.6283-22.422-18.13-20.479-33.386 0.69321-5.4436 6.9537-27.788 8.3208-30h39.212c1.3671 2.212 7.6276 24.557 8.3208 30 1.9428 15.256-5.1122 26.758-20.479 33.386-4.5896 1.9797-5.4797 5.7484-5.3304 22.57 0.14255 16.052 1.07 18.417 8.7878 22.408 2.2393 1.158 10.705 3.2988 10.304 4.8323h-21.237z"/>
   <path d="m109.88 120.87h0.056-21.237c-0.40103-1.5335 8.0645-3.6744 10.304-4.8323 7.7179-3.9911 8.6453-6.3559 8.7878-22.408 0.14935-16.821-0.74073-20.59-5.3304-22.57-15.367-6.6283-22.422-18.13-20.479-33.386 0.69321-5.4436 6.9537-27.788 8.3208-30h39.212c1.3671 2.212 7.6276 24.557 8.3208 30 1.9428 15.256-5.1122 26.758-20.479 33.386-4.5896 1.9797-5.4797 5.7484-5.3304 22.57 0.14256 16.052 1.07 18.417 8.7878 22.408 2.2393 1.158 10.705 3.2988 10.304 4.8323h-21.237z"/>
  </g>
 </g>
 <ellipse cx="35.135" cy="46.963" rx="22.642" ry="16.824" fill="#7f0000" stroke="#7f0000" stroke-width="5"/>
 <line x1="11.55" x2="58.091" y1="32.026" y2="30.768" fill="none" stroke="#fff" stroke-width="16"/>
 <g fill="#7f0000" stroke="#7f0000" stroke-width="5">
  <ellipse cx="109.82" cy="47.276" rx="22.642" ry="16.824"/>
  <ellipse cx="187.49" cy="46.962" rx="22.642" ry="16.824"/>
 </g>
 <g fill="none" stroke="#fff" stroke-width="16">
  <line x1="85.293" x2="131.83" y1="32.497" y2="31.239"/>
  <line x1="163.59" x2="210.14" y1="32.182" y2="30.925"/>
 </g>
</svg>
