<?xml version="1.0" encoding="UTF-8"?>
<svg enable-background="new 0 0 275.421 156.869" viewBox="0 0 275.421 156.869" xmlns="http://www.w3.org/2000/svg">
 <path d="m16.78,54.684-6.336,4.716c-3.744.684-6.12,2.232-6.984,4.5-.972,2.268.648,7.02 1.548,9.252 .828,2.196 2.016,3.384 3.564,3.708-3.492,4.357-5.832,8.533-7.164,12.923-1.368,4.357-2.088,9.324-.756,12.961 1.332,3.527 3.96,6.264 8.424,8.207 1.908,3.637 3.924,6.373 5.904,8.209s4.068,2.627 6.12,2.664c2.556,3.096 5.04,5.363 7.452,6.805 2.448,1.367 4.608,1.906 6.876,1.619 1.332,2.809 2.484,4.752 3.852,5.543 1.332.758 2.484.648 3.852-.611 .252,1.584.72,2.736 1.26,3.313 .504.539 1.368.432 2.016.252 .576-.217 1.008-.684 1.44-1.404 .36,1.584 3.6,3.42 9.864,5.652 6.264,2.16 21.276,6.229 27.396,7.488 6.012,1.115 8.676,1.152 8.424-.289 4.536,2.053 9,3.637 13.788,4.609 4.716.863 10.98,1.223 14.328,1.223 3.168-.035 4.788-.395 4.86-1.223 3.888,1.836 7.812,2.52 11.772,2.051 3.888-.539 7.812-2.195 11.771-5.111 5.076,1.512 10.692,1.799 17.389,1.008 6.624-.936 13.823-2.736 21.996-5.939 6.695.359 13.859-.828 21.491-3.709s15.517-7.451 24.048-13.572l17.929-16.74c5.436-2.555 9.396-5.975 12.023-10.654 2.593-4.752 3.601-10.262 3.313-17.064 .18-5.293.864-9.289 2.052-12.132 1.26-2.88 5.652-2.88 5.112-4.716-.72-1.872-3.744-3.996-9.216-6.372 4.428-.54 6.264-1.152 5.111-1.44-1.188-.324-4.968-.72-11.735-.792-1.08-2.304-1.98-3.888-2.845-4.752-.899-.864-1.619-1.116-2.304-.612-.647-2.52-1.188-4.176-1.764-5.112s-1.044-1.08-1.548-.432c1.26-5.292 1.26-9.648 0-12.924-1.368-3.42-3.313-5.364-7.92-6.948-4.753-1.656-11.232-2.34-19.98-2.448-4.428-3.996-8.424-6.876-12.276-8.64-3.852-1.872-7.38-2.628-10.728-2.268-4.176-4.212-8.388-7.02-12.78-8.82-4.428-1.764-8.352-1.44-13.572-1.656-5.327-.288-11.34-.216-18.18.216-3.744-2.16-7.452-3.708-10.979-4.5-3.744-.864-7.344-.864-10.512-.432-3.168.324-5.796,1.152-8.172,2.484-1.728-2.268-3.132-3.168-4.356-2.7s-2.16,2.16-2.808,5.364c-3.24-.792-6.588-.864-10.476-.216-4.032.504-9.36,2.628-12.528,3.888-3.06,1.26-5.076,2.376-5.904,3.492-3.744-.72-7.056-.936-10.476-.792-3.492.144-7.2.684-9.72,1.62-2.52.9-4.356,2.16-5.364,3.924-3.744-.504-6.948-.18-10.008.828-3.06,1.044-5.04,3.168-8.172,5.112-3.276,1.764-8.892,3.888-11.016,5.544-2.268,1.512-2.808,2.916-2.016,3.924-3.312,1.044-5.616,2.268-6.912,3.672-1.404,1.404-1.62,2.988-1.044,4.752-5.004,1.476-7.848,3.168-8.928,4.932-1.044,1.836-.108,3.564 2.808,5.724-.756.933-1.512,1.869-2.304,2.841z" fill-rule="evenodd" stroke="#000" stroke-miterlimit="10" stroke-width=".036"/>
 <path d="m41.044,59.4c-2.268-.576-5.184-1.008-8.892-1.152-3.852-.288-8.928-.648-13.14-.108-4.248.504-8.928,1.98-11.412,3.024-2.376.828-2.592,1.584-3.024,2.556-.504.972-.756,2.124-.468,3.456 .036,1.332.684,2.988 1.116,4.428 .288,1.296.756,2.448 1.404,3.312 .648.72 1.548,1.152 2.7,1.296l1.26-1.296c-1.44-1.044-2.628-2.484-3.168-4.32-.756-1.98-2.16-5.148-.612-6.876 1.62-1.764 6.66-2.772 10.116-3.42 3.276-.72 4.932-.972 9.684-.756 4.752.108 10.836.612 18.54,1.512l-4.104-1.656z" fill="#e9da6f" fill-rule="evenodd" stroke="#000" stroke-miterlimit="10" stroke-width=".036"/>
 <path d="m17.896,69.084c-2.916-1.656-4.032-3.276-3.492-4.464 .54-1.332 3.456-2.844 6.66-3.168 3.06-.432 8.424.324 12.204.756 3.744.36 7.128.864 10.296,1.512 .468-.036 1.368-.036 2.556,0 1.188-.072 2.664-.108 4.572-.108l-.144-1.404c-3.708-.396-7.56-.828-11.412-1.152-3.996-.504-8.424-.792-11.88-1.008-3.42-.252-6.228-.216-8.568.108-2.628.252-4.968,1.08-6.192,1.908-1.26.792-1.296,1.404-.792,2.952 .504,1.512 1.872,3.24 3.96,5.724 .72-.54 1.476-1.08 2.232-1.656z" fill="#e9da6f" fill-rule="evenodd" stroke="#000" stroke-miterlimit="10" stroke-width=".036"/>
 <path d="m19.804,67.536 3.456-.756c-.54-.648-.9-1.368-1.08-1.764-.288-.576-.396-.684-.18-1.152 .18-.54.9-1.224 1.764-2.052l-3.024.144c-.972.468-1.404,1.188-1.584,2.16s.036,1.98.648,3.42z" fill="#e9da6f" fill-rule="evenodd" stroke="#000" stroke-miterlimit="10" stroke-width=".036"/>
 <path d="m25.672,65.772c-.504-.216-.72-.612-.792-.9-.144-.432-.144-.756.288-1.26 .396-.504 1.044-1.152 2.088-1.8l2.052.252c-1.044.324-1.728.792-1.908,1.404-.252.504-.144,1.188.468,1.908-.72.108-1.44.252-2.196.396z" fill="#e9da6f" fill-rule="evenodd" stroke="#000" stroke-miterlimit="10" stroke-width=".036"/>
 <path d="m48.316,64.692c-3.816-.18-7.74,0-12.204.54-4.572.396-10.116.864-14.256,2.52-4.104,1.728-7.488,5.112-10.152,7.632-2.736,2.304-4.14,3.456-5.868,6.769-1.872,3.24-4.104,9.287-4.752,12.852-.612,3.42.036,5.725 1.116,8.027 1.008,2.16 1.908,3.602 5.076,5.58 3.168,2.088 7.524,4.213 13.608,6.373 5.976,1.871 16.704,4.068 22.032,5.219 5.22,1.117 5.652,1.801 9.216,1.514 3.564-.396 8.496-1.656 11.736-3.926 3.024-2.41 4.968-7.344 6.66-10.078 1.62-2.736 2.628-4.896 3.168-6.338 .36-.791.36-1.26 0-1.547-.432-.289-1.08-.324-2.232-.107-1.728,4.211-3.528,7.596-5.4,10.547-1.98,2.881-3.852,5.041-6.012,6.625-2.232,1.439-4.284,2.195-7.128,2.412-2.916.107-5.184-.361-10.152-1.404-5.22-1.188-14.004-2.844-19.98-4.969-6.012-2.051-12.204-4.463-15.372-7.379-3.168-3.205-3.636-6.949-3.492-10.801 .072-3.962 1.584-8.462 3.96-12.097 2.304-3.672 6.552-7.452 9.54-9.684 2.844-2.304 4.176-3.204 7.452-4.068 3.24-.936 8.388-1.44 11.7-1.656 3.132-.324 5.616-.36 7.308-.108 1.476-.792 2.952-1.62 4.428-2.448z" fill="#e9da6f" fill-rule="evenodd" stroke="#000" stroke-miterlimit="10" stroke-width=".036"/>
 <path d="m40.072,69.408c-2.88.144-5.436.216-8.064.504-2.628.144-5.112-.144-7.452.792-2.412.9-4.788,3.204-6.984,4.824-2.34,1.548-4.464,3.168-6.66,4.716 2.772-2.592 5.148-4.536 7.128-6.228 1.944-1.692 2.736-2.88 4.608-3.708 1.836-.936 3.996-1.476 6.336-1.764 2.232-.36 4.608-.54 7.128-.54 2.376-.18 4.86-.252 7.308-.36l-3.348,1.764z" fill="#e9da6f" fill-rule="evenodd" stroke="#000" stroke-miterlimit="10" stroke-width=".036"/>
 <path d="m15.34,78.084c4.032,1.08 7.128,1.368 9.684,1.008 2.376-.54 2.268-2.808 5.076-3.456 2.7-.576 6.552-.792 11.412-.252l1.116,2.808c-4.032-.936-7.416-1.152-10.296-.648-2.844.432-3.78,3.024-6.84,3.456-3.312.324-7.236-.145-12.348-1.404 .72-.504 1.44-1.008 2.196-1.512z" fill="#e9da6f" fill-rule="evenodd" stroke="#000" stroke-miterlimit="10" stroke-width=".036"/>
 <path d="m50.692,66.888c.72.216 1.188.468 1.26.756 .036.18-.324.432-.936.612-2.232.612-3.816,1.368-4.896,2.556-1.152,1.116-2.52,2.844-1.62,4.212 .864,1.188 4.428,2.196 6.66,3.42 2.196,1.259 4.716,2.449 6.192,3.708 1.332,1.043 1.872,2.016 1.764,2.916l-4.284.252c-1.296-1.873-2.736-3.313-4.464-4.465-1.8-1.188-4.68-1.476-6.012-2.412-1.404-1.152-1.872-2.376-2.232-3.672-.504-1.368-.504-2.952 0-4.068 .504-1.332 1.656-2.268 3.168-2.952 1.404-.647 3.204-.935 5.4-.863z" fill="#e9da6f" fill-rule="evenodd" stroke="#000" stroke-miterlimit="10" stroke-width=".036"/>
 <path d="m34.852,70.56 1.908,3.708-2.7.108-1.764-3.816h2.556z" fill="#e9da6f" fill-rule="evenodd" stroke="#000" stroke-miterlimit="10" stroke-width=".036"/>
 <path d="m35.788,77.688 2.376,6.373h3.348l-2.376-5.869-3.348-.504z" fill="#e9da6f" fill-rule="evenodd" stroke="#000" stroke-miterlimit="10" stroke-width=".036"/>
 <path d="m40.072,88.633c1.08,3.059 2.412,5.039 4.14,6.371 1.62,1.188 2.52.973 6.012,1.008 3.492-.035 8.172-.467 14.58-1.152l-2.52-.611c-5.004.469-8.82.684-11.592.504-2.844-.145-3.6-.611-4.896-1.549-1.296-1.15-2.304-2.627-2.88-4.822-.936.069-1.872.141-2.844.251z" fill="#e9da6f" fill-rule="evenodd" stroke="#000" stroke-miterlimit="10" stroke-width=".036"/>
 <path d="m12.496,80.244c.648.756 2.124,1.477 4.428,2.016 2.304.469 6.264.9 9.36,1.152 3.096.217 6.84.072 8.892.396 1.908.252 2.7.719 2.52,1.26-1.728.215-2.952.252-3.816.396-.936.07-1.224.107-1.26.107-1.908.107-4.176.072-6.948-.107-2.88-.324-7.272-.396-9.828-1.045-2.628-.684-4.536-1.477-5.724-2.664l2.376-1.511z" fill="#e9da6f" fill-rule="evenodd" stroke="#000" stroke-miterlimit="10" stroke-width=".036"/>
 <path d="m10.12,82.908c-1.008,1.439-1.224,2.447-.648,3.455 .504.828.9,1.873 3.816,2.018s9.072-.648 13.464-1.01c4.284-.504 8.496-1.332 12.06-1.654 3.384-.324 4.428-.324 8.388-.145 3.924.035 8.856.396 15.084.791 1.152.396 1.944.721 2.376,1.117 .36.324.36.576 0,.9-2.88.07-5.796-.145-8.892-.252-3.168-.217-6.336-.938-9.648-.9-3.312-.037-5.4.215-10.008.756-4.86.467-13.716,1.836-18.216,2.16-4.428.143-7.092.215-8.568-.756-1.584-1.045-2.052-2.773-1.116-5.328 .612-.361 1.26-.755 1.908-1.152z" fill="#e9da6f" fill-rule="evenodd" stroke="#000" stroke-miterlimit="10" stroke-width=".036"/>
 <path d="m69.088,96.012c.612-.035 1.224-.035 1.44.396 .18.252.36.936.144,1.656-2.484.828-5.076,1.619-7.92,2.52-2.88.756-6.588,1.836-9.036,2.699-2.448.828-3.708,2.412-6.012,2.412-2.628-.215-5.544-1.619-8.748-2.807-3.348-1.117-7.524-3.133-10.296-3.961-2.772-.973-4.68-1.477-6.012-1.512-.396-.432-.504-.9-.324-1.404 .18-.576.504-1.08 1.26-1.656 2.412.613 5.292,1.764 9.036,3.061 3.564,1.297 9.612,4.428 12.852,4.969 3.132.432 3.024-1.225 6.336-2.053 3.276-.973 10.692-2.447 13.644-3.168 2.916-.721 4.032-1.152 3.636-1.152z" fill="#e9da6f" fill-rule="evenodd" stroke="#000" stroke-miterlimit="10" stroke-width=".036"/>
 <path d="m6.484,87.875c-1.296,3.24-1.836,6.121-1.764,8.785 0,2.592 1.116,5.111 2.376,6.984 1.188,1.799 2.376,2.52 5.076,3.959 2.664,1.369 6.912,2.771 10.8,4.213 3.888,1.367 8.496,2.447 12.024,3.527 3.384.9 6.192,1.549 8.424,1.943-5.04-1.332-10.116-2.771-15.228-4.715-5.148-2.016-12.132-4.32-15.552-6.625-3.492-2.412-4.644-4.932-5.544-7.02-1.08-2.088-.54-3.852-.612-5.58-.144-1.834-.144-3.705 0-5.471z" fill="#e9da6f" fill-rule="evenodd" stroke="#000" stroke-miterlimit="10" stroke-width=".036"/>
 <path d="m19.156,91.188c.288,1.332.072,2.52-.648,3.564-.864.936-3.204,1.367-3.96,2.664s-.684,3.455-.612,5.076c-.036,1.547.216,2.699.612,3.852l2.556,1.117c-1.044-3.35-1.62-5.762-1.584-7.381s.612-1.908 1.584-2.412c.828-.648 2.88-.324 3.636-1.404 .612-1.225.72-3.131.324-5.725-.612.217-1.26.434-1.908.649z" fill="#e9da6f" fill-rule="evenodd" stroke="#000" stroke-miterlimit="10" stroke-width=".036"/>
 <path d="m17.572,105.049c2.952-.721 5.652-.938 8.1-.504 2.412.287 4.896,1.764 6.48,2.916 1.44,1.008 2.016,2.592 2.556,3.779 .504,1.225.612,2.16.468,3.203l2.988,1.008c.144-2.123-.324-4.066-1.404-5.975-1.188-2.016-3.132-4.176-5.256-5.365-2.196-1.115-5.004-1.475-7.452-1.512-2.484-.215-4.86,0-7.272.504 .252.649.504,1.297.792,1.946z" fill="#e9da6f" fill-rule="evenodd" stroke="#000" stroke-miterlimit="10" stroke-width=".036"/>
 <path d="m35.644,120.023c-.072.613-.072,1.764 0,3.313 .036,1.477-.36,4.068.324,5.977 .54,1.908 2.052,4.031 3.168,5.111 1.044.9 2.196,1.115 3.312.504-1.764-1.043-3.024-2.52-3.78-4.572-.9-2.123-.9-6.012-.972-7.631-.18-1.656-.072-2.34.18-2.197-.72-.143-1.476-.325-2.232-.505z" fill="#e9da6f" fill-rule="evenodd" stroke="#000" stroke-miterlimit="10" stroke-width=".036"/>
 <path d="m47.056,136.691c-.324.648-.648,1.08-1.116.9-.54-.145-1.116-.145-1.584-1.656-.504-1.729-.972-5.471-1.116-8.027-.18-2.664-.18-4.896 0-7.236l2.88,1.008c-.396,1.404-.612,2.844-.504,4.717 .036,1.871.684,4.139.972,5.975 .252,1.692.36,3.132.468,4.319z" fill="#e9da6f" fill-rule="evenodd" stroke="#000" stroke-miterlimit="10" stroke-width=".036"/>
 <path d="m44.824,117.107c.036-.432.36-.936.972-1.512s1.512-1.439 2.7-2.195l2.052,1.908c-.828.215-1.512.611-2.052,1.043-.576.432-1.008.936-1.296,1.512l-2.376-.756z" fill="#e9da6f" fill-rule="evenodd" stroke="#000" stroke-miterlimit="10" stroke-width=".036"/>
 <path d="m53.86,111.133c.324-.434 1.332-.686 3.168-.758 1.764-.07 4.248,0 7.452.361l-1.584,2.303c-2.016-.107-3.6-.287-4.896-.143-1.296.107-2.196.143-2.7.504-.468-.755-.936-1.511-1.44-2.267z" fill="#e9da6f" fill-rule="evenodd" stroke="#000" stroke-miterlimit="10" stroke-width=".036"/>
 <path d="m69.556,112.393c.072-.217.864-.18 2.232.252 1.332.324 3.24,1.008 5.868,2.051l-1.584,1.656c-1.656-.719-3.276-1.223-4.464-1.656-1.224-.432-2.412-.684-3.168-.756 .36-.504.72-1.008 1.116-1.547z" fill="#e9da6f" fill-rule="evenodd" stroke="#000" stroke-miterlimit="10" stroke-width=".036"/>
 <path d="m88.42,117.107c4.428.648 8.532,1.152 12.852,1.512 4.212.324 7.956,0 12.348.541 4.356.432 8.712,1.152 13.5,2.16l-.648,3.168c-5.148-1.188-9.756-1.943-14.256-2.412-4.536-.432-8.532.035-12.528-.252-4.104-.396-8.064-1.08-11.88-2.053 .18-.863.396-1.763.612-2.664z" fill="#e9da6f" fill-rule="evenodd" stroke="#000" stroke-miterlimit="10" stroke-width=".036"/>
 <path d="m33.7,88.74c1.008,2.447 2.268,4.535 3.78,6.264 1.44,1.764 2.088,3.385 5.004,4.031 2.916.541 8.856-.756 12.42-1.115 3.42-.432 6.228-1.152 8.424-1.764-4.608.359-8.568.719-12.024.791-3.492.145-6.228,1.117-8.604-.143-2.52-1.404-4.392-4.141-6.012-8.209-.972.038-1.98.073-2.988.145z" fill="#e9da6f" fill-rule="evenodd" stroke="#000" stroke-miterlimit="10" stroke-width=".036"/>
 <path d="m65.704,108.504c-2.808-1.188-5.292-1.943-7.596-2.557-2.34-.611-4.356-.936-6.192-.971-1.044.611-1.872,1.043-2.628,1.295-.72.252-1.368.252-1.8.145 2.304.217 4.752.469 7.632,1.152 2.772.504 5.832,1.439 9.18,2.412 .468-.468.936-.972 1.404-1.476z" fill="#e9da6f" fill-rule="evenodd" stroke="#000" stroke-miterlimit="10" stroke-width=".036"/>
 <path d="m76.936,104.328c-1.62,2.305-2.088,3.924-1.404,5.004 .648,1.008 2.448,1.477 5.4,1.26l-1.62,2.088c-3.96-.539-6.444-1.332-7.596-2.232-1.152-.971.18-2.051.792-3.383 .468-1.369 1.368-3.025 2.412-4.824 .648.683 1.332,1.366 2.016,2.087z" fill="#e9da6f" fill-rule="evenodd" stroke="#000" stroke-miterlimit="10" stroke-width=".036"/>
 <path d="m87.52,111.889c2.448.359 4.572.467 6.804.18 2.088-.289 4.14-.936 6.012-1.945 .72.686 1.728,1.262 3.024,1.441 1.296.252 2.736.107 4.608-.145-1.332,1.367-3.672,2.34-7.02,3.061-3.384.611-7.74.971-13.212.936-.072-1.153-.144-2.341-.216-3.528z" fill="#e9da6f" fill-rule="evenodd" stroke="#000" stroke-miterlimit="10" stroke-width=".036"/>
 <path d="m74.128,132.48c.036-2.125.648-4.357 1.98-7.236 1.296-2.953 3.492-6.768 5.616-9.648 1.944-2.916 5.58-5.977 6.192-7.379 .468-1.477-1.332-2.412-2.772-1.297-1.656.973-3.744,4.535-5.832,7.381-2.052,2.879-4.644,6.371-5.976,9.646-1.332,3.098-2.052,6.193-2.016,9.145 .936-.18 1.872-.397 2.808-.612z" fill="#e9da6f" fill-rule="evenodd" stroke="#000" stroke-miterlimit="10" stroke-width=".036"/>
 <path d="m78.52,105.48c.252-.396.54-.145 1.008.467 .396.576.864,1.801 1.404,3.385l2.196-2.412c-.288-.684-.864-1.115-1.584-1.297-.864-.287-1.728-.287-3.024-.143z" fill="#e9da6f" fill-rule="evenodd" stroke="#000" stroke-miterlimit="10" stroke-width=".036"/>
 <path d="m82.732,115.74c.072.936.072,2.771.396,5.795 .144,2.916.432,9.289 1.008,11.881 .576,2.52 1.332,3.492 2.412,3.061h4.176c-1.584-.973-2.916-2.736-3.6-5.293-.684-2.627-1.116-7.523-1.008-10.115-.036-2.592.72-4.428.612-5.652-.18-1.297-.972-2.232-1.98-2.412-.648.899-1.332,1.8-2.016,2.735z" fill="#e9da6f" fill-rule="evenodd" stroke="#000" stroke-miterlimit="10" stroke-width=".036"/>
 <path d="m91.948,140.652c1.116,1.871 3.024,3.023 6.012,3.852 2.916.684 7.884.9 11.592.648 3.636-.324 6.876-1.08 10.008-2.412l1.404-3.527c-4.5,1.654-8.676,2.52-12.816,2.734-4.176.145-8.064-.395-11.808-1.619l-4.392.324z" fill="#e9da6f" fill-rule="evenodd" stroke="#000" stroke-miterlimit="10" stroke-width=".036"/>
 <path d="m55.912,117.684c-.432-2.879-1.764-5.291-3.996-7.236-2.376-2.051-5.724-2.951-9.612-4.643-3.96-1.801-9.648-4.141-13.608-5.473-4.104-1.367-7.452-2.125-10.44-2.412l-1.584,1.439c3.42.18 6.732.721 9.792,1.621 3.06.863 5.472,2.268 8.64,3.672 3.096,1.332 7.056,2.592 9.792,4.176 2.592,1.477 4.464,3.133 6.012,4.824 1.44,1.656 2.376,3.131 2.808,4.824 1.188-.361 1.98-.576 2.376-.648 .288-.18.36-.18-.18-.144z" fill="#e9da6f" fill-rule="evenodd" stroke="#000" stroke-miterlimit="10" stroke-width=".036"/>
 <path d="m55.516,122.004c.324.469.792,1.477 1.404,2.736 .576,1.225 1.188,2.988 1.98,5.004l2.196-.828-3.384-7.381c-.72.145-1.44.289-2.196.469z" fill="#e9da6f" fill-rule="evenodd" stroke="#000" stroke-miterlimit="10" stroke-width=".036"/>
 <path d="m68.908,128.916c-1.584.217-3.492.648-6.012,1.152-2.628.359-6.876,1.043-9,1.908-2.124.936-2.916,2.447-3.204,3.707-.36,1.045-1.152,1.98 1.224,3.385 2.304,1.367 7.668,3.455 12.6,5.148 4.968,1.654 11.88,3.348 16.416,4.5 4.284,1.043 7.416,1.439 9.396,1.764 1.728.143 2.196.035 1.8-.324-.432-.359.108-1.008-3.78-1.943-4.068-1.262-13.752-2.953-19.62-4.645-5.904-1.729-13.248-3.637-15.228-5.328-2.016-1.836.396-3.672 3.204-4.969 2.772-1.26 7.2-2.268 13.428-2.736l.396-2.23c-.54.179-1.08.394-1.62.611z" fill="#e9da6f" fill-rule="evenodd" stroke="#000" stroke-miterlimit="10" stroke-width=".036"/>
 <path d="m49.684,133.596c-1.08-.252-1.764-.576-2.196-.973-.54-.504-1.044-1.691-.396-1.764 .648-.18 2.124.289 4.428,1.117l-1.836,1.62z" fill="#e9da6f" fill-rule="evenodd" stroke="#000" stroke-miterlimit="10" stroke-width=".036"/>
 <path d="m54.688,136.152c2.124.684 5.472,1.764 10.44,3.24 4.932,1.512 13.464,3.707 18.792,5.615 5.22,1.801 8.964,3.6 12.204,4.969 2.988,1.115 2.988,1.691 6.228,2.412 3.204.684 9.648,1.799 13.212,2.088 3.384.215 5.148-.072 7.812-.469 2.664-.432 6.804-.936 8.388-2.088 1.548-1.188 1.764-2.951.792-5.148l-3.384.973c1.188.611 1.584,1.152 1.188,1.764-.432.504-1.512,1.08-3.78,1.584-2.484.469-6.156,1.115-10.44.973-4.392-.324-9.432-.756-15.408-2.557-6.084-1.943-12.888-5.795-20.412-8.352-7.524-2.592-15.732-4.752-24.624-6.768-.324.577-.648,1.151-1.008,1.764z" fill="#e9da6f" fill-rule="evenodd" stroke="#000" stroke-miterlimit="10" stroke-width=".036"/>
 <path d="m59.116,133.74c3.528-.18 6.48-.18 9-.145s3.6-.035 6.012.324c2.232.287 5.688.721 7.596,1.439 1.764.504 2.628,1.26 3.42,2.412 .72,1.117 1.044,2.664.972,4.5l-3.168-1.295c-.396-1.945-1.404-3.24-3.024-4.176-1.692-1.01-4.14-1.117-6.804-1.297-2.736-.252-5.868-.252-9.396,0-1.512-.574-3.06-1.15-4.608-1.762z" fill="#e9da6f" fill-rule="evenodd" stroke="#000" stroke-miterlimit="10" stroke-width=".036"/>
 <path d="m86.944,138.096c2.448.324 4.716.037 7.2-.467 2.34-.613 4.14-.613 7.2-3.061 2.988-2.52 6.66-6.445 11.016-11.916l3.996.504c-2.412,3.131-4.752,5.76-7.02,8.172-2.412,2.34-4.176,4.463-6.804,5.977-2.736,1.332-6.516,2.051-9,2.555-2.556.469-4.464.576-6.012.324-.18-.684-.36-1.368-.576-2.088z" fill="#e9da6f" fill-rule="evenodd" stroke="#000" stroke-miterlimit="10" stroke-width=".036"/>
 <path d="m89.752,133.416c1.332-.396 2.592-1.045 4.176-2.088 1.476-1.152 3.78-2.736 4.824-4.176 .972-1.512 1.26-2.916 1.008-4.5l-3.204-.324c.324,2.412-.144,4.393-1.404,5.795-1.332,1.441-3.313,2.305-6.229,2.736 0,.686.072,1.369.216,1.764 .073.361.325.721.613.793z" fill="#e9da6f" fill-rule="evenodd" stroke="#000" stroke-miterlimit="10" stroke-width=".036"/>
 <path d="m112.144,130.535c.324-.18 1.476-.432 3.6-.467 2.124-.18 4.932-.145 8.82-.18l-2.592,5.795c-2.772.828-5.58,1.549-8.424,1.764-2.88.324-5.76.145-8.784-.143l2.592-2.412c1.62.287 3.348.287 5.616,0 2.16-.361 4.572-1.008 7.38-1.945-2.592-.107-4.68-.107-6.408-.143-1.836-.037-3.024-.037-3.996,0 .72-.755 1.44-1.513 2.196-2.269z" fill="#e9da6f" fill-rule="evenodd" stroke="#000" stroke-miterlimit="10" stroke-width=".036"/>
 <path d="m104.152,130.068c-.576.18-1.44.287-2.592.324-1.296-.037-2.7-.145-4.608-.324l-2.808,2.088c.288.467.72.9 1.584,1.439 .828.469 1.8,1.008 3.204,1.621l2.016-1.477-3.6-1.584 4.608.467c.72-.825 1.44-1.69 2.196-2.554z" fill="#e9da6f" fill-rule="evenodd" stroke="#000" stroke-miterlimit="10" stroke-width=".036"/>
 <path d="m113.944,150.48c1.44-.18 2.664-.613 4.212-1.297 1.332-.719 2.7-.432 4.392-2.879 1.764-2.701 4.176-8.496 5.832-12.24 1.476-3.781 2.916-6.768 3.204-9.648 0-2.844-1.332-5.977-2.196-7.057-.936-1.152-2.412-.252-2.628.469-.18.576 1.656,1.26 1.62,3.564-.144,2.268-1.008,6.227-2.196,9.936-1.296,3.637-3.708,9.035-5.436,11.736-1.8,2.52-1.908,3.023-5.184,3.852-3.384.791-8.28,1.225-14.832,1.152 1.152.576 2.772,1.008 5.004,1.439 2.16.36 4.896.684 8.208.973z" fill="#e9da6f" fill-rule="evenodd" stroke="#000" stroke-miterlimit="10" stroke-width=".036"/>
 <path d="m72.724,120.889c-2.16.395-4.032.504-5.616.324-1.62-.289-2.952-.828-3.996-1.766l-1.8.973c1.26,1.26 2.844,2.305 4.608,2.736 1.728.396 3.78.576 6.012.145 .252-.793.504-1.584.792-2.412z" fill="#e9da6f" fill-rule="evenodd" stroke="#000" stroke-miterlimit="10" stroke-width=".036"/>
 <path d="m60.916,121.535c1.152.721 2.196,1.729 2.988,2.881 .756,1.152 1.404,2.447 1.8,4.031l-3.384.469c-.18-.973-.468-1.943-1.008-3.203-.576-1.297-1.26-2.594-2.196-4.178h1.8z" fill="#e9da6f" fill-rule="evenodd" stroke="#000" stroke-miterlimit="10" stroke-width=".036"/>
 <path d="m54.508,124.92-8.028-.18 .216-1.908c1.368.18 2.592.18 3.816.145 1.224-.145 2.16-.361 3.204-.648 .252.862.504,1.728.792,2.591z" fill="#e9da6f" fill-rule="evenodd" stroke="#000" stroke-miterlimit="10" stroke-width=".036"/>
 <path d="m42.304,123.301h-3.816l-.18-2.412 4.392.646-.396,1.766z" fill="#e9da6f" fill-rule="evenodd" stroke="#000" stroke-miterlimit="10" stroke-width=".036"/>
 <path d="m34.276,122.004c-1.512,0-3.492,0-5.796-.145-2.448-.18-5.976.072-8.208-.646-2.16-.938-3.636-2.412-5.004-3.996-1.512-1.514-2.844-3.277-3.996-5.148l2.808.936c.72,1.871 1.8,3.275 3.384,4.355 1.476.9 2.808,1.549 5.796,1.945 2.952.467 6.696.684 11.628.791-.18.611-.396,1.259-.612,1.908z" fill="#e9da6f" fill-rule="evenodd" stroke="#000" stroke-miterlimit="10" stroke-width=".036"/>
 <path d="m23.08,122.508c2.34,2.016 4.572,3.42 6.408,4.5 1.8,1.008 3.492,1.549 4.788,1.621v-2.412c-2.34-.576-4.068-1.225-5.184-1.801-1.152-.611-1.692-1.297-1.62-1.908h-4.392z" fill="#e9da6f" fill-rule="evenodd" stroke="#000" stroke-miterlimit="10" stroke-width=".036"/>
 <path d="m19.876 117.68-2.988-3.852 5.184 2.412 2.016 2.557-4.212-1.117z" fill="#e9da6f" fill-rule="evenodd" stroke="#000" stroke-miterlimit="10" stroke-width=".036"/>
 <path d="m32.692,109.98c-1.044-.289-2.196-.396-3.6-.324-1.44.072-2.88.287-4.608.791l5.4,1.621c.288-.361.756-.576 1.404-.504 .576-.037 1.476.18 2.412.648-.324-.72-.648-1.476-1.008-2.232z" fill="#e9da6f" fill-rule="evenodd" stroke="#000" stroke-miterlimit="10" stroke-width=".036"/>
 <path d="m29.884,107.568c-.864-.145-1.836-.145-3.204.145-1.404.18-2.952.611-4.788,1.295l-2.808-.791c.648-.793 1.548-1.441 2.988-1.801 1.404-.396 3.096-.648 5.22-.611 .864.576 1.728,1.15 2.592,1.763z" fill="#e9da6f" fill-rule="evenodd" stroke="#000" stroke-miterlimit="10" stroke-width=".036"/>
 <path d="m27.472,94.535c-.036-.791.432-1.439 1.404-1.943 .972-.611 2.448-1.043 4.428-1.439l1.188,2.088c-1.584-.072-2.916.145-3.6.504-.72.287-1.188.863-1.008,1.584-.792-.253-1.584-.505-2.412-.794z" fill="#e9da6f" fill-rule="evenodd" stroke="#000" stroke-miterlimit="10" stroke-width=".036"/>
 <path d="m44.284,89.244c.54-.396 2.52-.504 6.228-.324s8.712.611 15.588,1.439c.576.469.576.938 0,1.117-.612.252-1.62.215-3.6.18-2.088-.252-5.94-.721-8.784-.828-2.88-.145-5.796-.037-8.604.324-.252-.613-.54-1.259-.828-1.908z" fill="#e9da6f" fill-rule="evenodd" stroke="#000" stroke-miterlimit="10" stroke-width=".036"/>
 <path d="m6.88,91.008c.396,1.691 1.476,2.699 3.384,2.881 1.872.143 4.428-.396 7.812-1.766 .72.828.72,1.477 0,2.09-.864.467-2.772,1.223-4.608,1.295-1.908.072-4.104-.252-6.588-.828v-3.672z" fill="#e9da6f" fill-rule="evenodd" stroke="#000" stroke-miterlimit="10" stroke-width=".036"/>
 <path d="m22.468,91.332 9.612-1.943c-1.62.684-3.168,1.475-4.788,2.088-1.692.576-3.312,1.26-5.004,1.764 .036-.612.108-1.261.18-1.909z" fill="#e9da6f" fill-rule="evenodd" stroke="#000" stroke-miterlimit="10" stroke-width=".036"/>
 <path d="m38.308,107.568c.54,1.043.936,1.98 1.188,3.348 .252,1.225.216,2.664.18,4.176l2.412.648c.144-1.691.036-3.24-.18-4.5-.288-1.404-.756-2.377-1.404-3.348-.72-.109-1.44-.216-2.196-.324z" fill="#e9da6f" fill-rule="evenodd" stroke="#000" stroke-miterlimit="10" stroke-width=".036"/>
 <path d="m56.704,104.652c1.944-1.045 3.816-1.801 6.012-2.412 2.052-.611 4.248-1.08 6.588-1.26l-.792,2.088c-1.476.145-2.88.359-4.212.791-1.332.361-2.592.9-3.78,1.621-1.26-.251-2.52-.541-3.816-.828z" fill="#e9da6f" fill-rule="evenodd" stroke="#000" stroke-miterlimit="10" stroke-width=".036"/>
 <path d="m76.54,133.271c-.72-1.043-.612-2.807.18-5.291 .756-2.557 2.34-5.832 4.608-9.828l.612,3.24c-1.512,1.691-2.52,3.455-3.024,5.436-.504,2.016-.612,3.924-.18,6.264-.72.037-1.44.107-2.196.179z" fill="#e9da6f" fill-rule="evenodd" stroke="#000" stroke-miterlimit="10" stroke-width=".036"/>
 <path d="m77.332,136.477 .18,3.059 2.412.793-.396-3.023-2.196-.829z" fill="#e9da6f" fill-rule="evenodd" stroke="#000" stroke-miterlimit="10" stroke-width=".036"/>
 <path d="m78.34,144.035-.216,1.117 1.8.504 .216-1.297-1.8-.324z" fill="#e9da6f" fill-rule="evenodd" stroke="#000" stroke-miterlimit="10" stroke-width=".036"/>
 <path d="m87.34,122.652c2.448.504 4.284.828 5.796.971 1.404.072 2.34-.035 2.808-.322l-.612,2.268c-1.764.035-3.348-.072-4.608-.18-1.296-.182-2.412-.396-3.204-.648-.036-.684-.108-1.37-.18-2.089z" fill="#e9da6f" fill-rule="evenodd" stroke="#000" stroke-miterlimit="10" stroke-width=".036"/>
 <path d="m100.732,123.623c1.98-.252 3.78-.359 5.4-.322 1.584-.072 2.88.035 4.032.18l-2.196,2.879c-.756.037-1.764.037-3.024,0-1.332-.107-2.772-.215-4.608-.467 .108-.756.252-1.512.396-2.27z" fill="#e9da6f" fill-rule="evenodd" stroke="#000" stroke-miterlimit="10" stroke-width=".036"/>
 <path d="m128.956,154.26c1.548,1.045 3.492,1.621 5.832,1.584 2.34-.072 5.076-.432 8.208-1.764 2.952-1.477 5.688-3.492 10.008-6.443 4.393-2.953 11.809-7.236 15.984-10.908 3.996-3.709 6.624-7.92 8.027-11.268 1.404-3.492 1.332-6.59.181-9.145-1.26-2.592-6.156-5.221-7.597-5.941-1.619-.791-2.088-.035-1.403,1.441 .72,1.404 4.968,4.031 5.796,6.912 .828,2.771.432,6.156-1.188,9.324-1.872,3.023-6.3,6.299-9.396,9-3.204,2.592-6.3,4.57-9.433,6.912-3.203,2.34-6.264,5.004-9.18,6.73-3.06,1.477-6.588,2.197-8.64,2.592-2.088.361-3.348.252-3.78-.322-1.115.432-2.267.864-3.419,1.296z" fill="#e9da6f" fill-rule="evenodd" stroke="#000" stroke-miterlimit="10" stroke-width=".036"/>
 <path d="m147.39 146.84c2.305-2.699 4.969-5.688 7.992-8.676 3.096-3.168 7.992-6.66 9.828-9.648 1.584-2.916 1.584-5.688 0-8.027l0.792-3.385c2.664 2.377 3.996 4.645 3.996 7.236-0.072 2.447-2.124 4.969-4.212 7.705-2.196 2.734-5.076 5.398-8.784 8.387-3.204 2.125-6.408 4.248-9.612 6.408z" fill="#e9da6f" fill-rule="evenodd" stroke="#000" stroke-miterlimit="10" stroke-width=".036"/>
 <path d="m165.784,114.875c2.052,1.693 3.528,3.061 4.428,4.645 .9,1.369.792,2.484.792,4.176-.107,1.693-.576,3.529-1.404,5.797 1.837-1.404 3.024-2.809 3.421-4.645 .359-1.799-.108-4.211-1.009-6.119-1.044-2.16-3.815-5.293-4.823-5.941-1.081-.612-1.549.036-1.405,2.087z" fill="#e9da6f" fill-rule="evenodd" stroke="#000" stroke-miterlimit="10" stroke-width=".036"/>
 <path d="m161.788,118.225c-.072,2.016-.072,3.959 0,5.975 0,1.945.18,3.816.396,5.762l2.016-2.232c-.432-2.053-.685-3.889-.612-5.797 .072-2.016.937-4.859.792-5.471-.396-.614-1.116-.073-2.592,1.763z" fill="#e9da6f" fill-rule="evenodd" stroke="#000" stroke-miterlimit="10" stroke-width=".036"/>
 <path d="m159.592,120.637c.36.611.433,1.799.612,3.563 .072,1.729.072,3.924 0,6.732l-2.628,1.764c.324-1.295.396-2.268.216-3.059-.216-.756-.684-1.332-1.404-1.584 .072-2.018.252-3.492.396-4.824 .072-1.404.324-2.412.612-2.881 .323-.467.72.18 1.188.289 .36.035.648.035 1.008,0z" fill="#e9da6f" fill-rule="evenodd" stroke="#000" stroke-miterlimit="10" stroke-width=".036"/>
 <path d="m150.196,124.344c1.691.828 2.844,1.873 3.996,2.736 .972.828 1.979,1.367 2.195,2.736 .072,1.332.324,3.527-1.188,5.471-1.548,1.945-4.5,4.105-8.028,5.941-3.672,1.584-9.972,3.348-13.212,4.176-3.204.791-4.536.18-5.796.791-1.404.504-1.944,1.873-2.016,2.592-.072.686.54.973 1.836,1.262l-4.608.826c-.72-1.367-.72-2.555 0-3.707 .612-1.08 1.08-2.195 4.176-3.203 3.168-1.152 10.224-2.484 14.22-3.709 3.852-1.295 6.983-2.592 8.819-4.031 1.692-1.656 1.944-3.492 1.584-5.113-.504-1.619-2.304-3.348-3.996-4.355-1.764-1.043-3.779-1.836-6.191-2.088l8.209-.325z" fill="#e9da6f" fill-rule="evenodd" stroke="#000" stroke-miterlimit="10" stroke-width=".036"/>
 <path d="m136.588,124.668c3.024.072 5.22.973 6.588,2.557s2.16,4.68 1.404,6.912c-.864,2.088-3.06,4.066-6.588,5.795l-5.004,1.117c3.132-1.189 5.328-2.736 6.588-4.5 1.116-1.945 1.979-4.537.792-6.266s-3.672-3.059-7.596-3.996l-.216-3.059c1.332.467 2.664.936 4.032,1.44z" fill="#e9da6f" fill-rule="evenodd" stroke="#000" stroke-miterlimit="10" stroke-width=".036"/>
 <path d="m126.76,140.58c2.016-.756 3.852-1.512 5.796-2.412 1.908-.863 3.672-1.871 5.436-2.881-.54-.756-1.152-1.367-1.836-1.439-.72-.252-1.512.037-2.376.469-1.692,1.152-3.024,1.908-3.996,2.555-1.08.576-1.62.9-2.016.973-.324.899-.648,1.8-1.008,2.735z" fill="#e9da6f" fill-rule="evenodd" stroke="#000" stroke-miterlimit="10" stroke-width=".036"/>
 <path d="m130.18,133.344c.864-.576 2.016-.9 3.6-.973 1.584-.143 3.312-.035 5.58.324l-.181-2.088c-1.943-.576-3.456-.9-4.824-.971-1.404-.145-2.412-.037-3.168.324-.323,1.116-.647,2.231-1.007,3.384z" fill="#e9da6f" fill-rule="evenodd" stroke="#000" stroke-miterlimit="10" stroke-width=".036"/>
 <path d="m145.372,130.932c1.62.037 2.952.252 3.996.504 1.044.18 1.584.541 2.016.936l-1.008,2.412-4.788-1.26-.216-2.592z" fill="#e9da6f" fill-rule="evenodd" stroke="#000" stroke-miterlimit="10" stroke-width=".036"/>
 <path d="m113.368,114.049c1.188,1.439 2.664,2.627 4.572,3.563 1.8.9 5.436,1.908 6.624,1.908 1.116-.072 1.512-1.188.216-2.088-1.512-.936-4.212-2.16-8.64-3.527-.9.034-1.836.072-2.772.144z" fill="#e9da6f" fill-rule="evenodd" stroke="#000" stroke-miterlimit="10" stroke-width=".036"/>
 <path d="m103.36,115.02c1.44.613 3.06,1.225 5.004,1.441 1.908.322 3.996.252 6.408.18l1.584,1.908c-.504-.182-2.016-.289-4.392-.324-2.376-.109-5.76-.109-10.008-.145-1.584-.289-2.736-.611-3.6-.973-.864-.395-1.332-.828-1.404-1.295 2.124-.251 4.248-.503 6.408-.792z" fill="#e9da6f" fill-rule="evenodd" stroke="#000" stroke-miterlimit="10" stroke-width=".036"/>
 <path d="m121.144,124.523 .216,3.996 2.988.504-.18-4.355-3.024-.145z" fill="#e9da6f" fill-rule="evenodd" stroke="#000" stroke-miterlimit="10" stroke-width=".036"/>
 <path d="m165.604,141.695c-.721,1.873-.505,3.133.792,4.176 1.332.9 3.743,1.908 6.804,1.621 3.023-.396 7.128-1.764 10.8-3.527 3.42-1.945 7.128-4.537 10.008-7.236 2.736-2.629 5.473-5.473 6.805-8.676 1.224-3.457 1.691-6.984 1.008-11.27l3.42-1.764c1.151,2.484 1.332,5.545.396,9.18-1.008,3.672-2.735,8.389-6.012,12.35-3.456,3.779-9.18,8.1-13.824,10.475-4.788,2.268-9.972,2.916-13.607,3.348-3.564.324-6.048-.504-7.597-1.115-1.584-.648-1.439-1.98-1.8-2.881-.396-1.043-.647-2.016-.611-3.059 1.114-.542 2.266-1.081 3.418-1.622z" fill="#e9da6f" fill-rule="evenodd" stroke="#000" stroke-miterlimit="10" stroke-width=".036"/>
 <path d="m162.4,148.787c-1.656.289-3.24.576-4.608.469-1.439,0-2.664-.396-3.816-.791l-2.808,2.555c3.024.576 5.904.9 8.64.973 2.736.035 5.328-.18 7.776-.648-1.584-.252-2.736-.576-3.6-.973-.864-.505-1.44-.899-1.584-1.585z" fill="#e9da6f" fill-rule="evenodd" stroke="#000" stroke-miterlimit="10" stroke-width=".036"/>
 <path d="m180.796,144.611c1.332-.539 2.736-2.268 4.212-5.328 1.477-3.203 2.88-9.287 4.608-12.996 1.656-3.672 2.16-5.832 5.399-8.855 3.276-3.168 9.576-6.012 13.608-9.648 3.816-3.6 6.84-7.668 9.216-12.059 .216,3.42-.72,6.408-2.808,9.504-2.196,2.916-7.128,6.299-9.792,8.352-2.664,1.98-4.248,1.908-6.012,3.527-1.944,1.477-3.24,2.16-5.005,5.797-1.8,3.672-3.672,8.893-5.615,16.057-.324.898-1.116,1.764-2.376,2.734-1.331.9-3.095,1.872-5.435,2.915z" fill="#e9da6f" fill-rule="evenodd" stroke="#000" stroke-miterlimit="10" stroke-width=".036"/>
 <path d="m190.624,137.195 4.212-3.527c.145-3.168.792-5.797 1.8-8.027 .937-2.27 2.376-3.889 4.177-5.148l-.396-3.061c-1.512.504-2.808,1.691-4.176,3.852-1.404,2.125-2.952,5.941-3.816,8.678-.937,2.698-1.585,4.966-1.801,7.233z" fill="#e9da6f" fill-rule="evenodd" stroke="#000" stroke-miterlimit="10" stroke-width=".036"/>
 <path d="m203.224,132.371c1.225-.863 3.708-1.764 7.597-2.555 3.888-.865 9-1.621 15.624-2.412l-.396,2.879c-5.508.613-10.151,1.549-14.22,2.412-4.104.828-7.344,1.98-10.008,3.061 .467-1.115.935-2.233 1.403-3.385z" fill="#e9da6f" fill-rule="evenodd" stroke="#000" stroke-miterlimit="10" stroke-width=".036"/>
 <path d="m194.44,142.668c6.012-1.152 11.268-2.447 16.199-4.031 4.752-1.584 7.452-2.629 12.816-5.617 5.436-3.24 11.772-7.451 19.404-13.176-3.853,4.393-7.813,8.209-12.42,11.592-4.645,3.313-10.044,6.193-14.796,8.496-4.896,2.232-9.828,4.285-13.824,5.328-4.068.936-7.272,1.332-10.008.793 .865-1.117 1.729-2.233 2.629-3.385z" fill="#e9da6f" fill-rule="evenodd" stroke="#000" stroke-miterlimit="10" stroke-width=".036"/>
 <path d="m182.021,141.553c-3.492.611-6.48.719-8.82.467-2.484-.287-4.104-1.08-5.4-2.232l1.8-2.268c2.089.613 4.429,1.117 7.021,1.117 2.484.107 5.22-.289 8.208-.793-.938,1.224-1.874,2.447-2.809,3.709z" fill="#e9da6f" fill-rule="evenodd" stroke="#000" stroke-miterlimit="10" stroke-width=".036"/>
 <path d="m173.416,134.316c-.18.072.684.18 2.592.324 1.836.143 4.752.252 8.604.467l.216,1.764c-2.988.576-5.544.9-7.813.828-2.34-.07-4.14-.504-5.796-1.295 .721-.683 1.441-1.369 2.197-2.088z" fill="#e9da6f" fill-rule="evenodd" stroke="#000" stroke-miterlimit="10" stroke-width=".036"/>
 <path d="m175.612,132.875c1.836-.936 3.708-2.016 6.012-3.383 2.232-1.369 4.645-3.023 7.38-4.824l-1.8,5.148c-2.124.576-3.852,1.115-5.184,1.764-1.404.576-2.412,1.225-3.024,1.943l-3.384-.648z" fill="#e9da6f" fill-rule="evenodd" stroke="#000" stroke-miterlimit="10" stroke-width=".036"/>
 <path d="m178.42,125.461c.756.215 2.088-.072 3.996-.469 1.908-.432 4.176-1.369 7.2-2.412l2.016-3.205-8.208,1.586 6.408-2.881c.216-1.729.144-2.844-.216-3.205-.432-.359-.612-.143-2.196.793-1.691.721-4.248,2.053-7.812,3.852-.036,1.549-.217,2.881-.396,3.852-.216,1.009-.432,1.655-.792,2.089z" fill="#e9da6f" fill-rule="evenodd" stroke="#000" stroke-miterlimit="10" stroke-width=".036"/>
 <path d="m137.56,145.549c-1.224.936-1.332,1.691-.18,2.412 1.152.611 3.276,1.15 6.805,1.619l2.016-1.297c-2.844,0-4.536-.215-5.22-.936-.721-.719-.433-1.799 1.008-3.24-1.477.469-2.953.938-4.429,1.442z" fill="#e9da6f" fill-rule="evenodd" stroke="#000" stroke-miterlimit="10" stroke-width=".036"/>
 <path d="m215.248,107.207c4.212.938 7.813,1.297 11.196.938 3.348-.432 6.408-1.404 8.604-3.205 2.053-1.836 3.276-4.248 3.816-7.379-1.008,2.771-2.34,4.68-4.393,6.264-2.124,1.439-4.716,2.34-7.632,2.557-2.952.143-6.12-.289-9.792-1.441l.792-2.088c2.592.793 5.256,1.152 7.992.793 2.772-.289 6.552-1.477 8.424-2.736 1.62-1.404 1.62-3.457 1.8-5.617 .145-2.375-.72-5.688-.792-7.848-.18-2.195-.359-3.814 0-4.859 .252-1.08.9-1.512 1.801-1.439 .071-2.772.899-4.645 2.195-5.617 1.332-.936 3.78-.72 5.796-.324 1.944.288 3.996.468 6.013,2.088 1.836,1.548 4.68,4.429 5.616,7.093 .863,2.447 2.088,4.104-.217,8.027-2.483,3.924-7.128,9.072-14.22,15.588 .324-1.045.612-2.232 1.008-3.709 .396-1.512.756-3.275 1.225-5.291 3.312-5.184 5.256-8.965 5.976-11.736 .504-2.771-.576-3.635-1.98-4.68-1.367-1.188-4.896-2.52-6.012-1.908-1.151.611-.72,3.275-.792,5.615-.252,2.16-.18,5.006-.216,7.705-.144,2.664.396,5.867-.18,8.207-.612,2.197-1.332,3.637-3.42,5.148-2.305,1.439-5.364,3.133-9.612,3.529-4.248.252-9.36-.289-15.624-1.766 .864-.612 1.728-1.261 2.628-1.909z" fill="#e9da6f" fill-rule="evenodd" stroke="#000" stroke-miterlimit="10" stroke-width=".036"/>
 <path d="m246.676,99.469c2.34-2.773 4.068-5.293 5.185-7.561 1.044-2.34 1.872-4.428 1.224-6.264-.792-2.053-3.744-3.996-5.399-5.293-1.656-1.295-3.313-2.087-4.429-2.231-1.224-.18-2.16.288-2.808,1.26 .036-2.052.792-2.916 2.412-2.736 1.584.18 5.328,2.34 7.2,3.852 1.728,1.367 2.88,3.096 3.6,4.5 .756,1.332 1.08,1.871.828,3.564-.504,1.619-1.656,4.355-3.024,6.264-1.333,1.799-2.881,3.348-4.789,4.645z" fill-rule="evenodd" stroke="#000" stroke-miterlimit="10" stroke-width=".036"/>
 <path d="m228.064,124.885c3.527-2.018 6.947-3.816 10.8-5.941 3.78-2.123 8.1-4.463 11.592-6.443 3.313-2.016 5.796-3.061 8.424-5.473 2.521-2.482 5.437-6.047 6.805-9.143 1.224-3.168 1.691-6.014 1.008-9.648-.828-3.672-2.916-8.965-5.004-12.384-2.088-3.6-4.608-7.092-7.021-8.676-2.483-1.548-4.968-1.116-7.596-.648-2.664.288-5.4,1.152-8.208,2.592l-.612,2.879c2.16-1.62 4.464-2.484 7.2-2.88 2.7-.468 6.192-1.008 8.82.612 2.52,1.62 4.535,5.868 6.191,9 1.512,3.096 3.024,5.975 3.42,9.325 .288,3.311.504,6.73-1.008,9.971-1.62,3.096-4.284,5.617-7.992,8.533-3.779,2.879-9.54,5.58-14.22,8.496-4.68,2.771-9.288,5.508-13.824,8.207 .397.541.793,1.08 1.225,1.621z" fill="#e9da6f" fill-rule="evenodd" stroke="#000" stroke-miterlimit="10" stroke-width=".036"/>
 <path d="m224.86,121.969c2.268-.504 4.824-1.621 7.812-3.205 2.916-1.799 6.229-4.463 9.792-6.588 3.492-2.16 8.101-3.672 11.196-5.939 2.952-2.449 5.472-5.4 7.02-7.885 1.477-2.484 1.98-4.355 2.196-6.732 .145-2.555-.144-5.004-1.008-7.738-.937-2.846-2.521-5.905-4.176-8.353-1.765-2.448-3.708-4.896-5.832-5.796-2.305-.936-4.933-.072-7.2.504-2.304.468-4.392,1.368-6.408,2.556l-.576,2.412c2.448-.864 4.716-1.692 6.805-2.088 2.052-.504 3.815-1.368 5.58-.792 1.728.504 3.168,2.016 4.607,3.852 1.332,1.8 2.664,4.213 3.601,6.408 .863,2.088 1.836,3.527 1.8,5.977-.181,2.268-.468,5.219-2.376,8.027-1.944,2.699-6.301,6.084-9.036,8.352-2.736,2.125-4.824,3.168-7.38,4.68-2.736,1.477-5.652,2.594-8.604,4.32-3.023,1.621-6.048,3.492-9.216,5.617 .467.79.935,1.583 1.403,2.411z" fill="#e9da6f" fill-rule="evenodd" stroke="#000" stroke-miterlimit="10" stroke-width=".036"/>
 <path d="m227.668,125.352c-1.152-1.08-2.088-1.943-3.204-2.879-1.26-.938-2.195-.828-3.204-2.592-.972-1.873-1.62-4.609-2.231-8.354l-3.78-.646c.108,3.311 1.044,6.264 2.808,8.855 1.765,2.555 4.356,4.752 7.776,6.588l1.835-.972z" fill="#e9da6f" fill-rule="evenodd" stroke="#000" stroke-miterlimit="10" stroke-width=".036"/>
 <path d="m223.24,126.324c-1.98-.541-3.708-1.512-5.185-3.061-1.619-1.584-2.987-3.996-3.815-6.119-.828-2.27-1.116-4.428-1.008-6.912l-1.98-.469-1.008,1.297c.432,4.32 1.044,7.74 1.979,10.115 .9,2.232 2.269,3.205 3.421,4.176 1.044,1.045 2.088,1.693 2.987,2.088 1.514-.359 3.061-.718 4.609-1.115z" fill="#e9da6f" fill-rule="evenodd" stroke="#000" stroke-miterlimit="10" stroke-width=".036"/>
 <path d="m206.428,129.061c.864-.938 1.872-1.836 3.024-2.412 1.116-.613 2.268-1.188 3.6-1.441l-1.62-3.238c-1.115.467-2.159,1.008-2.987,1.619-.9.611-1.584,1.26-2.196,2.088 .035,1.114.107,2.231.179,3.384z" fill="#e9da6f" fill-rule="evenodd" stroke="#000" stroke-miterlimit="10" stroke-width=".036"/>
 <path d="m206.64 122.94 3.779-1.908-0.576-3.24-2.016 1.152-1.187 3.996z" fill="#e9da6f" fill-rule="evenodd" stroke="#000" stroke-miterlimit="10" stroke-width=".036"/>
 <path d="m221.44,113.473c.071.252 1.044.287 3.204-.182 2.088-.395 5.22-1.295 9.396-2.41-2.304.719-4.428,1.584-6.372,2.592-1.979.971-3.744,2.088-5.436,3.348-.252-1.118-.503-2.233-.792-3.348z" fill="#e9da6f" fill-rule="evenodd" stroke="#000" stroke-miterlimit="10" stroke-width=".036"/>
 <path d="m200.632,137.557c1.044.035 2.269-.037 3.816-.613 1.512-.576 3.312-1.439 5.399-2.592l7.2-1.115c-2.231,1.439-4.968,2.879-8.208,4.176-3.348,1.332-7.02,2.52-11.412,3.707 1.045-1.188 2.125-2.376 3.205-3.563z" fill="#e9da6f" fill-rule="evenodd" stroke="#000" stroke-miterlimit="10" stroke-width=".036"/>
 <path d="m191.236,109.115c1.979-.971 8.172-1.295 11.376-3.203 3.023-2.16 5.292-5.652 7.632-8.676 2.448-3.096 5.364-8.1 6.804-9.18 1.296-1.045 1.729.287 1.008,2.592-.936,2.232-3.636,7.379-6.012,10.439-2.412,3.023-4.392,5.436-8.028,7.381-3.708,1.799-11.483,3.203-13.607,3.383-2.125.038-1.297-1.798.827-2.736z" fill="#e9da6f" fill-rule="evenodd" stroke="#000" stroke-miterlimit="10" stroke-width=".036"/>
 <path d="m223.456,84.527c-.324,2.449-.504,4.789-.396,7.561 .144,2.592 1.151,6.805.792,8.352-.54,1.477-3.204,1.549-3.816.648-.72-1.043-.36-3.889-.18-6.443 .071-2.521.396-5.508.972-8.82 .864-.432 1.728-.864 2.628-1.298z" fill="#e9da6f" fill-rule="evenodd" stroke="#000" stroke-miterlimit="10" stroke-width=".036"/>
 <path d="m231.052,60.264c3.889,1.584 7.38,2.016 10.62,1.44 3.276-.648 7.74-2.916 8.389-5.148 .432-2.376-.973-5.112-5.58-8.352-4.752-3.384-20.772-9.9-22.645-11.232-1.836-1.332 6.265,1.368 11.232,3.528 4.932,2.124 14.472,5.724 17.784,9 3.06,3.204 2.411,7.74.827,10.116-1.728,2.232-6.84,2.844-10.619,3.384-3.816.396-7.776.18-12.024-.648 .649-.684 1.332-1.368 2.016-2.088z" fill="#e9da6f" fill-rule="evenodd" stroke="#000" stroke-miterlimit="10" stroke-width=".036"/>
 <path d="m227.056,63.972c.685-1.116 1.332-2.196 1.801-3.24 .54-1.188 1.619-1.836 1.008-3.348-.864-1.512-2.592-3.492-5.616-5.796l1.404,4.032c1.403.576 2.088,1.188 2.195,2.232 .072,1.008-.575,2.052-1.8,3.528 .324.864.648,1.728 1.008,2.592z" fill="#e9da6f" fill-rule="evenodd" stroke="#000" stroke-miterlimit="10" stroke-width=".036"/>
 <path d="m236.452,65.232c1.8-.18 4.068-.54 6.804-.936 2.7-.504 6.265-1.188 9.433-1.764 3.023-.72 6.552-1.836 8.783-2.088 2.124-.252 4.032.324 4.213.612 .071.072-1.729.288-3.601.648-2.052.36-4.032.9-8.028,1.764-4.104.792-9.287,1.872-15.983,3.24-.541-.468-1.081-.972-1.621-1.476z" fill="#e9da6f" fill-rule="evenodd" stroke="#000" stroke-miterlimit="10" stroke-width=".036"/>
 <path d="m227.236,64.908c.864-.612 1.872-1.08 3.023-1.116 1.08-.18 2.664-.108 3.78.504 1.116.504 2.232,1.512 2.808,2.88 .36,1.332-.071,3.744-.18,5.148-.107,1.332.036,1.368-.396,2.736-.469,1.26-.973,3.096-2.628,4.825-1.872,1.691-4.393,3.311-7.992,5.146l-1.008-2.088c3.312-1.26 5.579-2.627 7.199-4.5 1.513-1.908 1.584-4.572 2.017-6.444 .324-1.908.432-3.744.18-4.68-.288-.936-.9-1.512-1.979-1.44-1.152-.072-3.024.108-5.221.828 .109-.575.253-1.187.397-1.799z" fill="#e9da6f" fill-rule="evenodd" stroke="#000" stroke-miterlimit="10" stroke-width=".036"/>
 <path d="m224.86,77.472c1.296-1.728 2.628-3.348 3.996-5.004 1.296-1.62 2.628-3.276 3.996-4.824l-.181,4.212c-1.403,1.368-2.7,2.664-4.032,4.176-1.367,1.476-2.699,2.88-3.995,4.5 .072-1.009.144-2.016.216-3.06z" fill="#e9da6f" fill-rule="evenodd" stroke="#000" stroke-miterlimit="10" stroke-width=".036"/>
 <path d="m264.892,79.38c-.72-2.52-.611-4.608.181-6.408 .756-1.8 4.14-3.06 4.607-4.176 .36-1.152-.756-2.124-1.979-2.916-1.296-.972-3.061-1.728-5.437-2.556l3.204-.648c2.124.72 3.744,1.512 5.004,2.232 1.152.72 1.62,1.368 2.232,2.088 .468.576 1.44,1.08.972,1.8-.575.612-2.808,1.404-3.779,2.232-.9.792-1.62.396-2.017,2.412-.576,1.908-.972,4.86-1.188,9-.576-1.008-1.188-2.016-1.8-3.06z" fill="#e9da6f" fill-rule="evenodd" stroke="#000" stroke-miterlimit="10" stroke-width=".036"/>
 <path d="m262.696,73.62c1.296-2.34 1.764-4.284 1.404-5.976s-1.62-3.132-3.637-4.176l-3.204.324c2.376,1.152 3.853,2.52 4.429,3.708 .504,1.152.216,2.52-1.009,3.708 .649.792 1.333,1.584 2.017,2.412z" fill="#e9da6f" fill-rule="evenodd" stroke="#000" stroke-miterlimit="10" stroke-width=".036"/>
 <path d="m255.892,66.384 3.169-.504 1.619,1.944-2.987.144-1.801-1.584z" fill="#e9da6f" fill-rule="evenodd" stroke="#000" stroke-miterlimit="10" stroke-width=".036"/>
 <path d="m257.692,59.292c-.036-1.08-.469-1.98-1.008-2.556-.576-.648-1.549-.972-2.629-1.116l-.396,2.376c.432-.036.792.18 1.224.648 .36.396.648,1.044 1.008,1.944 .577-.432 1.189-.864 1.801-1.296z" fill="#e9da6f" fill-rule="evenodd" stroke="#000" stroke-miterlimit="10" stroke-width=".036"/>
 <path d="m248.26,54c-1.8.576-4.176.36-6.983-.792-2.916-1.152-7.128-4.032-10.008-6.12-2.988-2.34-5.076-4.788-7.236-6.912s-3.024-3.996-5.796-5.472c-2.952-1.584-6.66-2.772-11.412-3.708l-.18,1.944c3.456.36 6.407,1.08 9,2.556 2.483,1.332 3.456,3.132 6.407,5.796s6.588,7.38 11.196,9.972c4.5,2.556 9.576,4.032 15.624,4.968-.18-.72-.396-1.476-.612-2.232z" fill="#e9da6f" fill-rule="evenodd" stroke="#000" stroke-miterlimit="10" stroke-width=".036"/>
 <path d="m247.685,57.852c-2.881-.612-5.437-1.368-8.209-2.412-2.844-1.08-5.472-2.268-8.027-3.852-2.448-1.8-4.716-4.68-6.804-6.12-2.269-1.476-4.465-2.088-6.589-2.232l3.78,3.528c1.584.792 2.844,1.62 4.212,2.88 1.188,1.152 1.404,2.772 3.42,4.176 2.053,1.26 6.048,2.772 8.784,3.708 2.7.828 4.86,1.548 7.021,1.764 .791-.468 1.583-.936 2.412-1.44z" fill="#e9da6f" fill-rule="evenodd" stroke="#000" stroke-miterlimit="10" stroke-width=".036"/>
 <path d="m240.45 61.236-2.988-3.204-2.988-1.152 2.988 4.68 2.988-0.324z" fill="#e9da6f" fill-rule="evenodd" stroke="#000" stroke-miterlimit="10" stroke-width=".036"/>
 <path d="m245.452,51.588c-1.224-.504-3.492-1.584-6.408-3.384-3.132-1.836-6.768-4.248-11.592-7.38 1.872,2.196 3.672,3.996 5.796,5.796 2.124,1.692 4.212,3.564 6.408,4.5 2.088.828 3.888.936 5.796.468z" fill="#e9da6f" fill-rule="evenodd" stroke="#000" stroke-miterlimit="10" stroke-width=".036"/>
 <path d="m250.276,46.728c.936-2.268 1.08-4.572.576-6.912-.576-2.484-1.692-5.4-3.78-7.236-2.269-1.8-5.22-2.844-9-3.528-3.78-.792-8.208-1.116-13.428-.972l2.016,2.412c4.68-.072 8.568.252 11.808.972 3.133.612 5.868,1.872 7.38,3.384 1.297,1.584 1.116,4.356 1.404,5.94 .288,1.368.433,2.268.433,2.556 .863,1.116 1.727,2.232 2.591,3.384z" fill="#e9da6f" fill-rule="evenodd" stroke="#000" stroke-miterlimit="10" stroke-width=".036"/>
 <path d="m248.08,45.612c-.288-.432-.792-1.404-1.8-3.06-1.08-1.62-.756-5.076-4.032-6.768-3.312-1.908-8.352-3.06-15.408-3.996l1.404,2.88c4.032.828 7.056,1.764 9.216,2.412 2.088.504 2.304.72 3.42,1.764 1.08,1.044 1.872,2.844 2.772,5.004 1.476.576 2.952,1.152 4.428,1.764z" fill="#e9da6f" fill-rule="evenodd" stroke="#000" stroke-miterlimit="10" stroke-width=".036"/>
 <path d="m228.064,37.224c-.648-2.844-1.765-5.256-3.204-7.38-1.584-2.268-2.952-3.384-5.616-5.292-2.772-1.836-7.164-4.644-10.404-5.796-3.275-1.296-6.12-1.836-8.819-1.764l1.619,2.412c3.78.468 7.129,1.692 10.584,3.384 3.349,1.728 7.236,4.536 9.433,6.912 2.124,2.232 2.988,4.32 2.988,6.408 1.115.36 2.267.72 3.419,1.116z" fill="#e9da6f" fill-rule="evenodd" stroke="#000" stroke-miterlimit="10" stroke-width=".036"/>
 <path d="m202.216,30.492c-.432-3.816-1.115-7.092-2.195-9.972-1.152-2.988-2.017-5.076-4.393-7.236-2.448-2.304-6.048-4.5-9.828-5.76-3.852-1.26-8.136-1.044-12.996-1.296s-10.151-.36-16.02-.18l2.412,2.412c10.403-.756 18.359-.432 24.012.828 5.544,1.296 7.308,4.464 9.612,6.732 2.16,2.124 2.735,3.456 3.815,5.796 1.08,2.232 2.053,4.644 2.772,7.38l2.809,1.296z" fill="#e9da6f" fill-rule="evenodd" stroke="#000" stroke-miterlimit="10" stroke-width=".036"/>
 <path d="m222.628,35.784c0-1.944-.504-3.6-1.368-4.968-.899-1.404-1.332-2.664-4.212-3.384-3.132-.792-7.668-1.224-14.004-1.296 .036,1.26.145,2.124.18,2.592 .036.396.036.396 0,0 3.276-.396 6.049-.396 8.604,0 2.484.396 5.076,1.188 6.408,2.232 1.224.9 1.512,1.98 1.008,3.24 1.116.504 2.232,1.044 3.384,1.584z" fill="#e9da6f" fill-rule="evenodd" stroke="#000" stroke-miterlimit="10" stroke-width=".036"/>
 <path d="m212.836,25.02c.324.108-.396-.108-2.016-.792-1.765-.648-4.284-1.764-7.992-3.204l.216,3.528c2.88.36 5.148.576 6.804.648 1.692.072 2.556-.036 2.988-.18z" fill="#e9da6f" fill-rule="evenodd" stroke="#000" stroke-miterlimit="10" stroke-width=".036"/>
 <path d="m195.016,20.52c-3.203-.468-6.228-.684-9.216-.648-3.096-.108-7.164.432-8.604.504-1.477.072-1.477.072 0,0-.288,1.224.359,2.124 1.8,2.412 1.44.252 3.852-.612 6.804-.504 2.845.144 6.048.432 10.008,1.152-.252-.972-.504-1.944-.792-2.916z" fill="#e9da6f" fill-rule="evenodd" stroke="#000" stroke-miterlimit="10" stroke-width=".036"/>
 <path d="m196.816,25.668-7.813-.648c1.332,1.152 2.736,1.908 4.212,2.412 1.513.396 2.952.504 4.608.324-.323-.684-.647-1.368-1.007-2.088z" fill="#e9da6f" fill-rule="evenodd" stroke="#000" stroke-miterlimit="10" stroke-width=".036"/>
 <path d="m192.208,17.136c-4.14-.144-8.172-.144-12.384,0-4.284.072-11.196.288-12.816.648-1.655.36 1.261.936 3.204,1.296 1.908.144 4.968-.18 8.208-.144 3.168-.072 7.74.072 10.404.144 2.556.036 4.104.144 4.788.324-.467-.756-.936-1.512-1.404-2.268z" fill="#e9da6f" fill-rule="evenodd" stroke="#000" stroke-miterlimit="10" stroke-width=".036"/>
 <path d="m189.616,14.256c-2.628,0-5.688,0-9.612-.144-3.96-.144-8.352-.36-13.607-.648 1.26.612 2.124,1.332 2.592,1.764 .396.396.396.9 0,1.116 3.924.036 7.523.036 11.231,0 3.601-.072 7.021-.18 10.404-.324-.324-.576-.648-1.152-1.008-1.764z" fill="#e9da6f" fill-rule="evenodd" stroke="#000" stroke-miterlimit="10" stroke-width=".036"/>
 <path d="m167.98,16.02c-3.168-2.412-5.796-4.392-8.173-6.084-2.304-1.764-3.275-2.556-5.832-3.888-2.844-1.476-7.056-3.384-10.403-4.176-3.384-.756-6.66-.864-9.396-.468-2.736.18-5.076,1.008-7.02,2.088l1.62,2.088c2.052-1.26 4.464-2.052 7.38-2.232 2.916-.252 6.372-.216 9.828.936 3.275,1.116 6.66,3.564 10.008,5.796 3.384,2.16 8.208,5.616 10.008,6.912 1.656,1.116 1.656,1.116 0,0 .648-.324 1.296-.648 1.98-.972z" fill="#e9da6f" fill-rule="evenodd" stroke="#000" stroke-miterlimit="10" stroke-width=".036"/>
 <path d="m186.232,13.788c-.072-1.044-.828-1.8-2.412-2.412-1.548-.612-3.42-1.044-7.021-1.296-3.815-.324-8.819-.432-15.408-.468l3.421,1.908c5.004.036 8.748,0 11.376.18 2.556.036 3.168.144 4.212.468 .972.252 1.62.684 1.8,1.296 1.332.108 2.664.216 4.032.324z" fill="#e9da6f" fill-rule="evenodd" stroke="#000" stroke-miterlimit="10" stroke-width=".036"/>
 <path d="m239.656,41.256c1.151-.504.72-1.008-1.008-1.908-1.872-.9-5.04-1.98-9.792-3.24l.18,1.62c3.528,1.152 7.056,2.34 10.62,3.528z" fill="#e9da6f" fill-rule="evenodd" stroke="#000" stroke-miterlimit="10" stroke-width=".036"/>
 <path d="m128.56,7.668c-.288-1.188-.936-2.16-1.8-3.204-1.008-1.044-2.628-2.844-3.6-2.916-.972-.144-1.476.684-2.196,1.944-.936,1.116-1.8,2.448-2.592,4.824-.756,2.268-1.476,5.364-2.016,9.144l2.988-.144c-.432-3.348-.252-6.084.396-8.208 .576-2.232 2.592-4.248 3.42-4.644 .648-.396.396,1.368 1.188,2.232 .756.792 2.016,1.656 3.636,2.592 .18-.54.36-1.08.576-1.62z" fill="#e9da6f" fill-rule="evenodd" stroke="#000" stroke-miterlimit="10" stroke-width=".036"/>
 <path d="m161.788,16.344c-1.62-2.016-4.104-4.104-7.596-6.12-3.601-2.16-9.252-5.724-13.212-6.264-3.96-.612-7.813.576-10.008,2.736-2.268,2.16-3.24,5.436-3.204,10.116l2.592-.144c-.36-3.564.144-6.192 1.224-8.028 1.116-1.908 3.096-2.88 5.4-3.06 2.161-.36 4.068-.396 7.812,1.44 3.708,1.8 8.46,4.86 14.4,9.324h2.592z" fill="#e9da6f" fill-rule="evenodd" stroke="#000" stroke-miterlimit="10" stroke-width=".036"/>
 <path d="m144.58,7.668c-2.052.144-3.6.72-4.788,1.44-1.26.684-2.016,1.8-2.412,3.06-.468,1.152-.54,2.736-.216,4.356h3.42c-1.908-2.556-2.196-4.248-1.008-5.472 1.26-1.224 3.815-1.764 8.208-1.62-1.044-.576-2.124-1.152-3.204-1.764z" fill="#e9da6f" fill-rule="evenodd" stroke="#000" stroke-miterlimit="10" stroke-width=".036"/>
 <path d="m150.196,10.548c-1.332-.288-2.736-.288-4.212,0-1.692.144-4.141.684-4.824,1.62-.576,1.008-.108,2.268 1.404,4.176l4.428-.144c-2.736-1.584-3.672-2.664-2.808-3.24 .899-.648 3.42-.756 7.991-.468-.647-.648-1.295-1.296-1.979-1.944z" fill="#e9da6f" fill-rule="evenodd" stroke="#000" stroke-miterlimit="10" stroke-width=".036"/>
 <path d="m155.776,14.112c-2.809-.36-4.752-.468-5.977-.324-1.224.072-1.584.72-1.224,1.116 .252.36 1.836.828 3.204,1.116 1.368.144 2.988.144 5.004,0-.323-.612-.647-1.26-1.007-1.908z" fill="#e9da6f" fill-rule="evenodd" stroke="#000" stroke-miterlimit="10" stroke-width=".036"/>
 <path d="m136.984,9.936-4.428-.828-.792,1.44 3.816,1.476 1.404-2.088z" fill="#e9da6f" fill-rule="evenodd" stroke="#000" stroke-miterlimit="10" stroke-width=".036"/>
 <path d="m140.188,8.316-6.408-.324c1.332-.828 2.592-1.368 3.78-1.62 1.152-.36 2.448-.18 3.204,0 .648.108.973.432.828.828-.468.36-.936.72-1.404,1.116z" fill="#e9da6f" fill-rule="evenodd" stroke="#000" stroke-miterlimit="10" stroke-width=".036"/>
 <path d="m131.98,12.492c-.216.684-.396,1.332-.396,2.088-.072.684.036,1.476.18,2.232l2.808-.612c-.216-1.044-.468-1.944-.612-2.412-.144-.612-.324-.792-.396-.828-.504-.144-1.044-.288-1.584-.468z" fill="#e9da6f" fill-rule="evenodd" stroke="#000" stroke-miterlimit="10" stroke-width=".036"/>
 <path d="m122.98,7.344c-1.044.792-1.836,1.836-2.232,3.528-.432,1.656-.612,3.564-.396,6.12l2.628-.18c-.576-1.476-.648-2.628-.216-3.996 .36-1.296 1.224-2.628 2.592-3.852l-2.376-1.62z" fill="#e9da6f" fill-rule="evenodd" stroke="#000" stroke-miterlimit="10" stroke-width=".036"/>
 <path d="m117.148,6.048c-3.348-.18-6.372.036-9.612.504-3.276.396-6.732,1.188-9.396,2.232-2.772,1.116-4.608,2.556-6.624,4.032-2.088,1.152-4.536,2.484-5.4,3.852-1.008,1.44-1.008,3.6 0,4.68 .936.936 2.88,1.404 5.832,1.26l3.204-.972c-4.464-.108-7.021-.54-7.813-1.44-.792-.972 1.044-2.304 2.988-3.852 1.836-1.62 5.22-4.14 8.208-5.472 2.88-1.296 6.084-2.052 9.216-2.412 3.024-.468 5.976-.576 9-.324 .109-.684.253-1.368.397-2.088z" fill="#e9da6f" fill-rule="evenodd" stroke="#000" stroke-miterlimit="10" stroke-width=".036"/>
 <path d="m116.356,9.612c-3.06.936-5.724,2.268-7.992,3.996-2.34,1.692-4.284,3.78-5.832,6.264l3.6-.468c1.584-2.376 3.384-4.14 5.004-5.292 1.584-1.152 3.384-1.836 5.004-1.764 .072-.9.144-1.8.216-2.736z" fill="#e9da6f" fill-rule="evenodd" stroke="#000" stroke-miterlimit="10" stroke-width=".036"/>
 <path d="m101.956,17.46c-2.808-.072-5.184.036-7.416.18-2.268.144-4.104.36-5.796.648-.54.504-.648.972-.612,1.26 0,.252.432.468 1.008.504 1.944-.18 3.996-.288 6.012-.324 2.052-.072 4.068-.072 6.192,0 .18-.756.396-1.512.612-2.268z" fill="#e9da6f" fill-rule="evenodd" stroke="#000" stroke-miterlimit="10" stroke-width=".036"/>
 <path d="m83.344,19.728c-2.52.468-4.86,1.26-7.02,2.088-2.232.792-4.14,1.44-6.012,3.06-1.908,1.584-3.528,3.78-5.004,6.588l3.42-.972c-.18-2.124.972-3.888 3.6-5.292 2.556-1.404 6.444-2.664 11.808-3.384-.252-.684-.504-1.368-.792-2.088z" fill="#e9da6f" fill-rule="evenodd" stroke="#000" stroke-miterlimit="10" stroke-width=".036"/>
 <path d="m66.316,18.612c1.44-1.44 3.636-2.52 6.192-3.24 2.628-.828 6.876-1.116 9.432-1.26 2.412-.144 4.032-.036 5.004.468l1.8-1.116c-4.032-.72-7.272-1.044-10.404-.972-3.06.072-5.616.504-7.812,1.44-2.376.72-4.896,2.772-5.616,3.528-.756.756-.288,1.188 1.404,1.152z" fill="#e9da6f" fill-rule="evenodd" stroke="#000" stroke-miterlimit="10" stroke-width=".036"/>
 <path d="m93.352,14.904 5.976,1.764-5.58.468-2.016-1.116 1.62-1.116z" fill="#e9da6f" fill-rule="evenodd" stroke="#000" stroke-miterlimit="10" stroke-width=".036"/>
 <path d="m84.928,15.696c-1.944-.504-4.032-.612-6.408-.324-2.52.252-5.868,1.224-7.812,2.088-1.836.72-2.592,2.196-3.384,3.06-.936.828-1.44,1.764-1.8,2.412l2.196.504c.576-1.872 1.656-3.096 3.384-4.212 1.764-1.08 4.5-1.908 6.804-2.088 2.232-.252 4.176-.036 6.228.648 .252-.684.504-1.368.792-2.088z" fill="#e9da6f" fill-rule="evenodd" stroke="#000" stroke-miterlimit="10" stroke-width=".036"/>
 <path d="m65.92,19.728c-1.188-.72-2.52-1.152-3.996-1.296-1.476-.216-3.096-.432-5.004.18-2.052.576-4.536,1.692-7.02,3.204-2.736,1.404-5.868,3.816-8.424,5.292-2.664,1.332-5.868,2.124-6.984,3.06-1.08.828-1.152,1.764.18,2.412l2.412-.972c-.468-.72-.252-1.116.792-1.584 1.08-.504 2.916.144 5.22-.972 2.124-1.188 5.112-4.32 7.596-5.796 2.412-1.512 4.356-2.808 6.804-3.06 2.412-.288 4.752.144 7.416,1.296 .324-.576.648-1.152 1.008-1.764z" fill="#e9da6f" fill-rule="evenodd" stroke="#000" stroke-miterlimit="10" stroke-width=".036"/>
 <path d="m49.9,24.876c1.332-.828 3.024-1.26 5.22-1.296 2.088-.144 5.328.828 7.776.972 2.412.072 4.68-.036 6.804-.324l-2.196,1.908c-3.492-.18-6.444-.324-9.396-.144-2.952-.036-5.94.036-7.992.792-2.088.72-3.564,2.052-4.428,3.852l-1.404-1.26c.9-.396 1.836-1.08 2.808-1.764 .9-.72 1.836-1.728 2.808-2.736z" fill="#e9da6f" fill-rule="evenodd" stroke="#000" stroke-miterlimit="10" stroke-width=".036"/>
 <path d="m84.316,22.464 1.62,1.584c-1.296.72-2.628,1.26-3.996,1.62s-3.096-.036-4.212.468c-1.224.288-1.692,1.44-2.808,1.944-1.152.468-2.484.792-3.996.972 .108-1.476.972-2.556 2.196-3.24 1.296-.756 3.42-.612 5.4-1.116 1.908-.54 3.744-1.332 5.796-2.232z" fill="#e9da6f" fill-rule="evenodd" stroke="#000" stroke-miterlimit="10" stroke-width=".036"/>
 <path d="m70.528,21.024 1.584,1.116-1.404,1.116-1.8-.324 1.62-1.908z" fill="#e9da6f" fill-rule="evenodd" stroke="#000" stroke-miterlimit="10" stroke-width=".036"/>
 <path d="m81.94,18.108c-.432-.396-1.44-.396-3.024-.144-1.62.18-3.816.756-6.588,1.584l.792,2.268c1.26-.9 2.412-1.548 3.996-1.944 1.44-.468 3.096-.684 4.824-.648v-1.116z" fill="#e9da6f" fill-rule="evenodd" stroke="#000" stroke-miterlimit="10" stroke-width=".036"/>
 <path d="m114.556,8.964c-1.8-.288-3.852-.288-6.012,0-2.304.288-4.932.828-7.2,1.764-2.304.828-4.392,2.052-6.408,3.528l4.824,1.44c1.368-1.692 2.7-2.916 3.996-3.672 1.224-.828 1.728-.504 3.6-.972 1.836-.54 4.14-1.188 7.2-2.088z" fill="#e9da6f" fill-rule="evenodd" stroke="#000" stroke-miterlimit="10" stroke-width=".036"/>
 <path d="m115.348,17.64-1.8-3.204c-1.908.36-2.7.936-2.376,1.44 .36.468 1.62,1.152 4.176,1.764z" fill="#e9da6f" fill-rule="evenodd" stroke="#000" stroke-miterlimit="10" stroke-width=".036"/>
 <path d="m64.732,26.964c-3.492.756-6.12,2.088-8.028,3.996-1.944,1.836-2.916,4.248-3.204,7.236l3.6-2.412c-.072-1.908.432-3.348 1.8-4.32 1.332-1.008 3.24-1.548 6.012-1.62l1.62-2.556-1.8-.324z" fill="#e9da6f" fill-rule="evenodd" stroke="#000" stroke-miterlimit="10" stroke-width=".036"/>
 <path d="m60.124,26.64c-3.672-.504-6.48-.18-8.82,1.116-2.34,1.224-3.96,3.42-5.004,6.444l1.008,3.996c1.188-3.6 2.772-6.12 4.608-7.704 1.836-1.62 3.924-2.16 6.408-1.764 .576-.684 1.188-1.368 1.8-2.088z" fill="#e9da6f" fill-rule="evenodd" stroke="#000" stroke-miterlimit="10" stroke-width=".036"/>
 <path d="m51.7,52.524c-4.932-1.836-7.848-3.456-8.604-5.004-.864-1.62 3.276-2.736 3.816-4.32 .504-1.62-.468-3.528-.828-5.328-.504-1.872-1.116-4.716-1.98-5.76-1.008-1.152-2.304-1.008-3.6-.828-1.44.036-2.772,1.224-4.428,1.764-1.836.54-4.32,1.008-5.796,1.8-1.512.684-2.376,1.584-2.988,2.556-.612,1.008-.936,1.944-.828,3.204l2.808-.144c-.432-1.584-.144-2.916 1.008-3.708 1.044-.864 3.888-.972 5.616-1.44 1.728-.612 3.492-1.908 4.608-1.944 1.008-.072.936.468 1.584,1.62 .54,1.224 2.088,3.456 2.016,5.148-.216,1.44-2.124,2.592-2.808,3.852-.9,1.332-1.764,2.376-1.62,3.528 .144.9.504,1.008 2.628,2.268 2.088,1.26 5.148,3.024 9.612,5.292-.072-.828-.144-1.692-.216-2.556z" fill="#e9da6f" fill-rule="evenodd" stroke="#000" stroke-miterlimit="10" stroke-width=".036"/>
 <path d="m51.52,60.372c-3.096-1.908-6.156-3.564-9.036-4.824-2.952-1.476-5.688-3.276-8.604-3.024-3.096.216-6.084,1.764-9.396,4.644l2.988.18c2.232-1.692 4.32-2.556 6.408-2.736 2.052-.252 3.78.504 6.012,1.584 2.16,1.044 4.608,2.556 7.2,4.68 1.476-.144 2.952-.324 4.428-.504z" fill="#e9da6f" fill-rule="evenodd" stroke="#000" stroke-miterlimit="10" stroke-width=".036"/>
 <path d="m31.288,57.348 3.996-2.412 2.808,1.26-3.42,1.44-3.384-.288z" fill="#e9da6f" fill-rule="evenodd" stroke="#000" stroke-miterlimit="10" stroke-width=".036"/>
 <path d="m39.28,53.172 3.204-2.124 2.808,1.296-3.78,1.62-2.232-.792z" fill="#e9da6f" fill-rule="evenodd" stroke="#000" stroke-miterlimit="10" stroke-width=".036"/>
 <path d="m42.304,40.14c-4.932.936-9.072,1.8-12.42,2.736-3.528.828-6.408,1.584-7.812,2.556-1.368.792-1.152,1.584-.18,2.916 .9,1.368 2.88,3.132 5.796,5.292l-2.412,1.44c-2.124-1.476-3.852-2.916-5.184-4.176-1.476-1.404-2.952-2.592-3.024-3.708-.144-1.188 1.224-2.052 2.592-2.88s3.24-1.332 5.616-1.944c2.232-.756 5.544-1.548 8.424-2.232 2.844-.756 5.724-1.404 8.784-2.088-.036.684-.108,1.368-.18,2.088z" fill="#e9da6f" fill-rule="evenodd" stroke="#000" stroke-miterlimit="10" stroke-width=".036"/>
 <path d="m31.9,51.876c-2.412-.288-3.672-1.296-3.636-2.736-.036-1.512 1.224-3.6 3.636-6.264l-4.608,1.584c-1.26,2.088-1.8,3.672-1.62,5.148 .144,1.368 1.008,2.448 2.592,3.24 1.188-.324 2.412-.648 3.636-.972z" fill="#e9da6f" fill-rule="evenodd" stroke="#000" stroke-miterlimit="10" stroke-width=".036"/>
 <path d="m33.7,39.168 2.772-3.384-4.176.972-2.016,3.384 3.42-.972z" fill="#e9da6f" fill-rule="evenodd" stroke="#000" stroke-miterlimit="10" stroke-width=".036"/>
 <path d="m35.68,42.552c-.828.576-1.476.972-1.8,1.584-.468.468-.648.36-.396,1.62 .216,1.26.936,3.096 2.016,5.796l2.988.468c-1.476-2.592-2.34-4.464-2.592-5.616-.288-1.224.18-.504 1.008-1.296 .684-.864 2.016-2.088 3.6-3.672-1.584.36-3.204.72-4.824,1.116z" fill="#e9da6f" fill-rule="evenodd" stroke="#000" stroke-miterlimit="10" stroke-width=".036"/>
 <path d="m38.884,37.872 2.196-2.232 .828,1.584-3.024.648z" fill="#e9da6f" fill-rule="evenodd" stroke="#000" stroke-miterlimit="10" stroke-width=".036"/>
 <path d="m24.268,55.404c-.504-.18-1.368-.144-2.592-.18-1.296.036-2.916,0-5.004.18l-2.412,2.412c1.008-.288 2.16-.504 3.6-.648 1.44-.18 2.916-.288 4.824-.324 .504-.468 1.044-.936 1.584-1.44z" fill="#e9da6f" fill-rule="evenodd" stroke="#000" stroke-miterlimit="10" stroke-width=".036"/>
 <path d="m13.684,70.812c-.756-.828-1.476-1.512-2.016-2.052-.72-.576-1.296-.612-1.584-1.476-.324-.936-.396-2.376-.216-4.176-1.08,1.044-1.8,2.124-2.016,3.24-.432,1.152-.252,2.088.396,3.348 .72,1.116 1.944,2.34 3.816,3.528 .54-.792 1.08-1.584 1.62-2.412z" fill="#e9da6f" fill-rule="evenodd" stroke="#000" stroke-miterlimit="10" stroke-width=".036"/>
 <path d="m19.48,75.348c1.044-.288 2.016-.144 3.204.144 1.116.252 2.268.936 3.6,1.764-.324.684-1.26,1.152-2.808,1.116-1.656.036-3.924-.432-6.804-1.116 .936-.612 1.872-1.26 2.808-1.908z" fill="#e9da6f" fill-rule="evenodd" stroke="#000" stroke-miterlimit="10" stroke-width=".036"/>
 <path d="m30.28,79.668c.864.072 1.548.396 2.196.973 .54.576 1.008,1.188 1.404,2.23h-4.608c-.036-.395.036-.863-.18-1.115-.252-.287-.396-.648-.828-.791 .648-.434 1.332-.865 2.016-1.297z" fill="#e9da6f" fill-rule="evenodd" stroke="#000" stroke-miterlimit="10" stroke-width=".036"/>
 <path d="m51.088,83.375c-.972-.826-2.304-1.475-3.996-1.943-1.764-.504-3.78-.828-6.192-.971l1.8,3.383c1.26.037 2.592.037 3.996,0 1.44-.108 2.808-.215 4.392-.469z" fill="#e9da6f" fill-rule="evenodd" stroke="#000" stroke-miterlimit="10" stroke-width=".036"/>
 <path d="m25.276,71.316 3.204,3.708-1.584.792-3.6-2.736 1.98-1.764z" fill="#e9da6f" fill-rule="evenodd" stroke="#000" stroke-miterlimit="10" stroke-width=".036"/>
 <path d="m27.868 70.992 1.8 3.204h2.412l-1.8-3.204h-2.412z" fill="#e9da6f" fill-rule="evenodd" stroke="#000" stroke-miterlimit="10" stroke-width=".036"/>
 <path d="m32.476,62.964-.792,1.44 2.592.144 1.404-1.26-3.204-.324z" fill="#e9da6f" fill-rule="evenodd" stroke="#000" stroke-miterlimit="10" stroke-width=".036"/>
 <path d="m14.26,85.465 10.62.971c-3.816.396-6.768.793-9,.793-2.268.035-3.744-.072-4.428-.469-.792-.504-.792-1.367 0-2.592l2.808,1.297z" fill="#e9da6f" fill-rule="evenodd" stroke="#000" stroke-miterlimit="10" stroke-width=".036"/>
 <path d="m31.684,95.58 7.992,3.203-5.004-3.996c-.792-.467-1.548-.684-1.98-.504-.468.072-.9.504-1.008,1.297z" fill="#e9da6f" fill-rule="evenodd" stroke="#000" stroke-miterlimit="10" stroke-width=".036"/>
 <path d="m48.712,92.699c2.052-.252 4.14-.359 6.408-.324 2.196-.035 4.464.072 6.804.324-2.34.576-4.608.938-6.804.938-2.268,0-4.356-.362-6.408-.938z" fill="#e9da6f" fill-rule="evenodd" stroke="#000" stroke-miterlimit="10" stroke-width=".036"/>
 <path d="m12.064,97.02c-.144.396-.144,1.441 0,2.736s.216,3.061.612,5.293l-2.808-3.205c-.216-1.729-.396-3.061-.396-3.996-.144-.936-.468-1.764 0-1.799 .396-.182 1.26.142 2.592.971z" fill="#e9da6f" fill-rule="evenodd" stroke="#000" stroke-miterlimit="10" stroke-width=".036"/>
 <path d="m73.732,119.375c-1.62.182-3.096.361-4.428.145-1.404-.107-2.664-.611-3.78-1.115l1.404-2.088c.648.467 1.548.791 2.988.971 1.404.182 3.096.182 5.22.145-.468.647-.936,1.296-1.404,1.942z" fill="#e9da6f" fill-rule="evenodd" stroke="#000" stroke-miterlimit="10" stroke-width=".036"/>
 <path d="m56.92,129.637c-2.196-1.152-4.14-1.908-5.832-2.412-1.836-.504-3.24-.756-4.608-.613l.828,2.736c1.8-.252 2.952-.252 3.996,0 .9.252 1.476.541 1.584,1.26 1.332-.325 2.664-.647 4.032-.971z" fill="#e9da6f" fill-rule="evenodd" stroke="#000" stroke-miterlimit="10" stroke-width=".036"/>
 <path d="m70.708,142.848-13.608-4.356c2.232.145 4.5.576 6.804,1.295 2.232.721 4.5,1.693 6.804,3.061z" fill="#e9da6f" fill-rule="evenodd" stroke="#000" stroke-miterlimit="10" stroke-width=".036"/>
 <path d="m88.924,142.992 9.828,4.5 4.608-.973c-3.06-.215-5.472-.791-7.632-1.584-2.16-.863-3.78-1.943-5.004-3.383l-3.204-.324c.468.577.936,1.153 1.404,1.764z" fill="#e9da6f" fill-rule="evenodd" stroke="#000" stroke-miterlimit="10" stroke-width=".036"/>
 <path d="m101.344,139.787c.54.289 1.872.576 3.996.469 2.16,0 4.896-.396 8.604-.791-3.96-.182-6.876-.252-8.604-.504-1.8-.182-2.412-.541-1.98-.793-1.296.18-2.052.576-2.412.793-.36.322-.18.467.396.826z" fill="#e9da6f" fill-rule="evenodd" stroke="#000" stroke-miterlimit="10" stroke-width=".036"/>
 <path d="m96.952,135.432c-.504-.396-1.044-.719-1.62-1.115s-1.224-.828-1.8-1.297l-2.412.973 1.404,2.557c1.476-.362 2.952-.722 4.428-1.118z" fill="#e9da6f" fill-rule="evenodd" stroke="#000" stroke-miterlimit="10" stroke-width=".036"/>
 <path d="m88.528,126.287 .396,3.529c1.512.035 2.52-.18 3.42-.648 .756-.539 1.224-1.188 1.404-2.232-1.728-.215-3.456-.432-5.22-.649z" fill="#e9da6f" fill-rule="evenodd" stroke="#000" stroke-miterlimit="10" stroke-width=".036"/>
 <path d="m39.28,124.848c-.144,1.117.108,2.449.612,3.852 .504,1.477 1.26,2.846 2.412,4.645-.144-2.447-.324-4.141-.396-5.615-.144-1.404-.216-2.412-.216-2.881l-2.412-.001z" fill="#e9da6f" fill-rule="evenodd" stroke="#000" stroke-miterlimit="10" stroke-width=".036"/>
 <path d="m24.088 116.96 7.596 1.764h-6.588l-1.008-1.764z" fill="#e9da6f" fill-rule="evenodd" stroke="#000" stroke-miterlimit="10" stroke-width=".036"/>
 <path d="m42.7,109.08c.648.504 1.044,1.26 1.188,2.268 .072,1.008.036,2.053-.396,3.527 .36-.791.9-1.33 1.62-1.619 .684-.396 1.548-.504 2.592-.469-1.656-1.223-3.312-2.447-5.004-3.707z" fill="#e9da6f" fill-rule="evenodd" stroke="#000" stroke-miterlimit="10" stroke-width=".036"/>
 <path d="m166.792,142.02c-.396,1.584.36,2.736 2.412,3.061 2.052.432 5.22.035 9.792-.793-2.304.145-4.32.072-6.192-.504-1.907-.504-3.527-1.512-5.004-2.734-.324.321-.648.645-1.008.97z" fill="#e9da6f" fill-rule="evenodd" stroke="#000" stroke-miterlimit="10" stroke-width=".036"/>
 <path d="m159.808,144.287c-.359.396-.539.828-.396,1.584 .072.686.396,1.549.972,2.594l-3.384-.182-.396-1.584c1.044-.791 2.125-1.584 3.204-2.412z" fill="#e9da6f" fill-rule="evenodd" stroke="#000" stroke-miterlimit="10" stroke-width=".036"/>
 <path d="m145.984,145.871 3.815-4.643-5.004,2.232c-1.368.756-2.016,1.402-1.8,1.799 .217.36 1.117.612 2.989.612z" fill="#e9da6f" fill-rule="evenodd" stroke="#000" stroke-miterlimit="10" stroke-width=".036"/>
 <path d="m139.36,150.553-4.176-2.592c.252.684.252,1.475 0,2.088-.288.684-.828,1.188-1.62,1.799 1.224.469 2.16.721 3.204.469 .936-.18 1.8-.866 2.592-1.764z" fill="#e9da6f" fill-rule="evenodd" stroke="#000" stroke-miterlimit="10" stroke-width=".036"/>
 <path d="m225.868,86.436c-.72,2.377-.9,4.789-.828,7.381 0,2.592.972,6.84 1.404,7.883 .396.865 1.08-.395 1.224-2.412 0-2.158-.756-7.811-.612-10.15 .108-2.377.576-3.709 1.404-3.996l-2.592,1.294z" fill="#e9da6f" fill-rule="evenodd" stroke="#000" stroke-miterlimit="10" stroke-width=".036"/>
 <path d="m228.244,92.375c.612-1.367 1.476-2.34 2.592-2.914 1.08-.648 2.304-.758 3.816-.613l-.396-2.736c-1.62.072-2.952.434-3.996.938s-1.943,1.15-2.412,2.088c.108,1.079.253,2.159.396,3.237z" fill="#e9da6f" fill-rule="evenodd" stroke="#000" stroke-miterlimit="10" stroke-width=".036"/>
 <path d="m243.076,86.76c.144-.287.72-.145 1.584.145 .864.252 2.016.936 3.6,1.764l-1.403,2.881c-.937-1.262-1.729-2.018-2.376-2.412-.685-.396-1.332-.396-1.801,0 .108-.794.252-1.585.396-2.378z" fill="#e9da6f" fill-rule="evenodd" stroke="#000" stroke-miterlimit="10" stroke-width=".036"/>
 <path d="m246.064,93.168c-.072-.324-.288-.828-.792-1.115-.54-.324-1.225-.828-2.196-1.117l-.216,2.701 2.808,1.475 .396-1.944z" fill="#e9da6f" fill-rule="evenodd" stroke="#000" stroke-miterlimit="10" stroke-width=".036"/>
 <path d="m234.256,90.756c-1.188-.035-2.304.18-3.204.648-.972.396-1.728,1.043-2.412,1.943v3.348c1.225-1.512 2.412-2.375 3.421-2.879s1.871-.504 2.592,0c-.109-1.007-.253-2.015-.397-3.06z" fill="#e9da6f" fill-rule="evenodd" stroke="#000" stroke-miterlimit="10" stroke-width=".036"/>
 <path d="m235.048,96.553c-.756-.037-1.188.18-1.584.646-.504.504.216,1.332-.611,2.088-.828.576-2.232,1.152-4.213,1.584l.612-2.088c.828-.107 1.548-.467 2.017-.936 .359-.648.252-1.477.792-2.088 .504-.576 1.367-1.008 2.592-1.295 .107.684.251,1.368.395,2.089z" fill="#e9da6f" fill-rule="evenodd" stroke="#000" stroke-miterlimit="10" stroke-width=".036"/>
 <path d="m245.272,81.611c-.433,2.125-.504,3.564-.217,4.32 .252.684 1.225.648 1.801.18 .468-.432.647-1.584.828-3.059-.792-.468-1.583-.937-2.412-1.441z" fill="#e9da6f" fill-rule="evenodd" stroke="#000" stroke-miterlimit="10" stroke-width=".036"/>
 <path d="m247.468,74.52 .217-1.584 2.771.288-.792,2.268-2.196-.972z" fill="#e9da6f" fill-rule="evenodd" stroke="#000" stroke-miterlimit="10" stroke-width=".036"/>
 <path d="m68.836,31.608c-3.24,1.296-6.048,2.628-8.712,3.996-2.772,1.332-5.184,2.448-7.092,4.032-1.98,1.548-4.032,2.988-4.212,4.86-.18,1.764 1.944,3.708 2.88,5.688 .792,1.944 2.052,3.672 2.124,5.724 0,1.944-2.052,4.14-1.836,5.904 .108,1.656 2.376,3.024 2.628,4.248 .18,1.116-.216,1.728-1.332,2.952-1.224,1.044-6.12,2.376-5.508,3.996 .684,1.62 6.768,3.924 9.216,5.94 2.268,1.98 3.708,3.781 4.464,5.689 2.484-.037 4.284.18 5.256,1.043 .9.793-.036,2.449.54,3.6 .576.973 2.376,1.945 2.88,2.773 .396.863-1.44,1.584-.504,2.303 .828.684 4.608,1.045 5.508,1.908 .756.793-1.584,1.908-.792,2.953 .684.863 2.304,2.123 5.004,2.951 2.628.936 9.36.936 11.052,2.34 1.692,1.26 1.296,3.023-1.044,5.293 2.34.359 4.536.322 6.588.18 1.98-.289 3.816-.684 5.508-1.477 .72,1.439 1.908,2.16 3.708,2.557 1.764.287 3.996.072 6.84-.648 1.368.107 3.168.721 5.256,1.691 2.196.936 4.968,3.529 7.344,4.033 2.052.395 3.852-2.484 5.544-1.693 1.656.648 2.592,4.465 4.752,5.904 2.016,1.404 5.292,2.053 7.884,2.52 2.628.361 5.399.396 7.632-.18 2.16-.648 3.96-2.699 5.256-3.383 1.188-.686.828.07 1.836-.648 .937-.9 2.448-3.096 3.708-4.213 1.08-1.26 2.269-1.512 3.132-2.555 .756-1.117.217-3.277 1.836-3.564 1.62-.324 5.328.359 7.633,1.477 2.088.971 3.743,3.887 5.544,4.428 1.764.395 4.212-.721 5.544-1.693 1.151-1.115-.792-3.096 2.088-4.428 2.771-1.332 12.132-2.088 15.012-3.816 2.772-1.943.685-5.184 2.088-7.199 1.44-2.016 4.752-3.385 6.336-4.645 1.44-1.367.648-1.799 2.628-3.383 1.944-1.801 7.38-4.141 8.929-6.336 1.332-2.197-1.009-4.5-.505-6.336 .433-1.98 1.477-3.42 3.133-4.86 .036-3.672-.036-6.804-.504-9.936-.504-3.168-.792-6.12-2.124-8.424-1.513-2.412-5.148-4.068-6.049-5.508-.936-1.512 1.368-2.196.792-3.168-.756-1.116-3.96-1.728-4.464-2.952-.396-1.296 3.456-3.204 1.836-4.464-1.943-1.296-9.359-2.124-12.384-3.168-2.952-1.188-2.988-2.592-5.256-3.384-2.376-.828-6.516-.396-8.676-1.476-2.305-1.188-2.269-4.284-4.752-5.256-2.628-1.008-7.668-.072-10.26-.648-2.557-.756-3.204-2.556-5.005-3.168-1.943-.648-4.176,0-6.3-.432-2.195-.54-4.428-2.304-6.84-2.52-2.628-.216-5.436.504-8.424,1.044-3.061.36-6.084,1.404-9.756,1.476-3.816-.072-8.532-1.188-12.348-1.26-3.852-.18-6.3.144-10.548.828-4.32.684-10.8,2.124-14.976,3.204-4.212,1.08-6.624,2.016-10.008,2.952-3.564.79-8.316,1.15-10.512,1.906-2.124.648-.612,1.512-2.124,2.304-1.512.684-3.924,1.44-7.092,2.124z" fill="#bd0000" fill-rule="evenodd" stroke="#000" stroke-miterlimit="10" stroke-width=".036"/>
 <path d="m133.492,50.76c-.216-2.124-.18-3.924.252-5.544 .288-1.728 1.26-3.744 1.944-3.96 .576-.216 1.188.72 1.836,2.808 .072-2.232.468-3.636 1.044-4.068 .577-.504 1.404-.036 2.484,1.26 3.349-2.7 5.112-3.672 5.58-3.348 .36.36-.72,2.16-3.24,5.544 3.169-.9 4.645-1.008 4.429-.324-.288.72-2.196,2.016-5.868,4.284 2.52-1.26 4.644-2.16 6.66-2.7 1.979-.648 4.5-1.08 5.076-.756 .396.324-.433,1.152-2.484,2.628 3.168-1.008 5.076-1.548 5.868-1.476 .684,0 .252.612-1.44,1.692 1.8.684 2.628,1.224 2.34,1.764-.323.504-1.619,1.008-4.031,1.368 1.691.648 2.304,1.26 1.548,1.692-.792.396-2.7.756-5.868.936 2.376,1.404 3.672,2.448 3.924,3.132 .216.684-.647.828-2.483.936-1.801.108-1.332.612-4.824-.504-3.456-1.152-9.108-3.996-9.108-3.996l-1.692.54c0,0 .18,1.08 1.296,2.484s1.584,1.692 3.132,3.168c1.548,1.44 3.132,2.7 3.132,2.7 4.248-1.512 7.02-2.412 8.712-2.7 1.656-.36 1.836,0 .937.936-.396,1.08.035,1.584 1.296,1.656 1.224-.036 4.283-1.512 6.12-1.368 1.728.18 4.5,1.584 4.571,2.412 0,.684-1.296,1.476-4.176,2.088 2.016.828 3.096,1.584 3.636,2.412 .504.756.072,1.44-.899,2.196 1.115.9 1.764,1.548 1.943,2.088 .181.504-.216.9-1.044,1.044 1.261,2.016 1.656,3.204 1.044,3.564-.647.36-2.16-.324-4.68-1.656 1.044,1.8 1.08,2.52.108,2.7-1.044.036-2.988-.684-5.977-2.304 .108,1.584-.072,2.52-.54,2.412-.468,0-1.296-1.044-2.34-2.736-.108,1.584-.576,2.34-1.404,2.412-.828-.072-3.168-1.296-3.527-2.304-.433-1.116-.181-2.34.899-3.96-1.403,1.8-2.447,2.556-2.987,2.412-.576-.36-.288-1.872-.54-3.564-.36-1.656-.973-3.78-1.692-6.372-1.224-.864-2.52-1.836-3.888-3.456-1.404-1.584-2.88-3.492-4.428-5.868l-4.176,1.476c-.108,2.484-.108,4.572-.144,6.264-.072,1.656.396,3.42 0,3.78-.396.216-1.26-.468-2.448-2.196 .396,2.124.396,3.42 0,4.176-.468.648-2.268.432-2.628-.108-.468-.612-.468-1.8 0-3.564-.972,2.628-1.62,4.14-2.34,4.392-.756.252-1.188-.72-1.692-2.916-2.124,1.548-3.384,2.304-4.176,2.412-.684.036-.9-.576-.252-1.98-4.464.396-6.804.396-7.164,0-.324-.504 1.188-1.368 4.968-2.736-3.312.252-4.788.18-4.572-.504s2.124-1.836 5.868-3.456c-3.78-.108-5.508-.396-5.616-.864-.072-.54 1.62-1.188 5.22-2.088-1.872-1.476-2.736-2.484-2.592-3.024-.036-.576.396-.792 3.24-.504 2.916.252 7.344.864 13.824,1.98 .072.144.288,0 1.044-.432 .717-.432 1.581-1.368 2.985-2.412z" fill-rule="evenodd" stroke="#000" stroke-miterlimit="10" stroke-width=".036"/>
 <path d="m133.888,50.76c-.216-2.196 0-3.96.252-5.436 .288-1.62.9-3.42 1.548-3.456 .576-.072 1.188,1.008 1.98,3.24 .396-2.628.864-4.104 1.404-4.572 .54-.54 1.008.216 1.691,1.872 3.133-2.844 4.788-4.104 5.112-3.78 .252.324-.972,2.124-3.528,5.544 3.168-1.116 4.465-1.152 4.032-.396-.504.72-2.808,2.52-6.912,5.112 3.853-1.872 6.805-2.988 8.856-3.78 1.908-.792 3.168-1.08 3.384-.72 .18.36-.288,1.224-1.8,2.736 3.42-.972 5.544-1.476 6.228-1.368 .648.036 0,.54-2.088,1.656 2.34-.036 3.168.18 3.024.648-.288.36-1.765,1.152-4.572,1.98 2.412.468 3.276.936 2.592,1.26-.792.324-2.987.648-6.876.828 2.376,1.44 4.284,2.664 4.536,3.348s-.252.72-2.088.828c-1.8.108-1.044.396-4.536-.72s-8.856-4.068-8.856-4.068l-2.628,1.152c0,0 2.664,3.492 3.78,4.896s.937.54 2.484,1.98c1.548,1.476 2.34,2.088 2.34,2.088 3.42-1.332 5.94-2.196 7.416-2.592 1.476-.504 1.908-.54 1.44-.108-.612,1.944-.396,2.808.647,3.132 1.008.108 3.528-1.764 5.472-1.872 1.837-.18 5.328.612 5.616,1.26 .036.648-1.439,1.584-4.824,2.808 2.376.324 3.708.936 4.284,1.692 .504.72.072,1.692-1.151,2.916 1.367.792 2.195,1.584 2.34,1.98 .107.504-.324.612-1.44.72 1.477,2.052 2.088,3.096 1.44,3.276-.648.108-2.34-.648-5.076-2.412 1.152,1.944 1.332,2.988.396,3.132-1.008.072-2.88-.648-6.012-2.304 .396,1.944.576,2.772.145,2.628-.433-.288-1.261-1.332-2.484-3.672-.036,2.052-.432,3.024-1.044,3.348-.684.18-2.556-.9-2.844-1.98-.252-1.116-.036-2.736 1.044-4.716-1.692,2.088-2.916,3.024-3.528,2.808-.684-.216-.216-2.628-.54-4.176-.468-1.692-1.116-3.528-1.944-5.652-1.115-.504-2.376-1.512-3.779-3.024-1.476-1.548-2.988-3.6-4.68-6.156l-4.824,1.872c-.108,2.808-.108,4.932-.144,6.372-.036,1.368.288,2.196 0,2.196-.36,0-1.188-.648-2.34-2.088 .108,2.736.072,4.428-.108,5.22-.324.612-.72-.036-1.044-.828-.324-.756-.684-2.088-.936-3.852-.72,2.664-1.512,4.104-2.088,4.464-.72.216-1.224-.432-1.8-2.484-1.944,1.548-3.204,2.304-3.78,2.412-.684.108-.684-.576 0-1.908-4.752.72-6.912.864-6.912.432 .036-.432 2.376-1.44 7.164-3.024-4.392.54-6.552.504-6.624-.108-.108-.612 2.016-1.8 6.228-3.564-4.068-.108-5.976-.396-6.12-.72-.072-.36 1.62-.9 5.472-1.476-2.16-1.692-3.204-2.808-2.988-3.348 .144-.612 1.116-.468 3.888-.108 2.735.216 6.695.972 12.275,1.872 .936-.612 1.8-1.116 2.592-1.656 .684-.54 1.296-1.116 1.836-1.584z" fill="#108e35" fill-rule="evenodd" stroke="#000" stroke-miterlimit="10" stroke-width=".036"/>
 <path d="m74.092,51.876c.324,3.744 1.332,5.724 3.168,5.94 1.836.144 5.22-3.996 7.632-4.644 2.16-.684 2.232,1.836 6.048.612 3.852-1.332 9.504-4.104 17.1-8.46-3.204,2.628-6.588,5.004-10.008,6.984-3.564,1.98-8.64,4.392-10.8,4.86-2.16.288-.396-2.952-2.088-2.52-1.872.432-6.444,4.536-8.424,5.076-2.016.324-3.06-1.224-3.42-2.556-.504-1.404-.144-3.024.792-5.292z" fill-rule="evenodd" stroke="#000" stroke-miterlimit="10" stroke-width=".036"/>
 <path d="m67.756,67.536c-.792-.864 6.588,4.608 9.504,6.552 2.844,1.8 6.588,3.348 7.632,4.644 .828,1.295-2.988,1.584-1.872,2.952 1.296,1.26 7.344,2.629 8.964,4.645 1.296,1.908-3.564,5.184-.54,6.768 3.06,1.512 15.408,1.584 18.432,2.305 2.844.648 2.088,1.619-1.296,1.512-3.6-.432-16.344-1.584-19.476-3.168-3.132-1.621 2.448-4.104 1.044-5.939-1.584-1.945-8.352-3.637-9.756-5.076-1.26-1.549 3.528-1.08 1.584-3.601-2.16-2.702-13.428-10.73-14.22-11.594z" fill-rule="evenodd" stroke="#000" stroke-miterlimit="10" stroke-width=".036"/>
 <path d="m133.312,33.084c1.008.108 2.88-.036 6.048-.432 3.06-.396 7.128-1.08 12.348-1.908-.432,1.512-2.232,2.304-5.256,2.772-3.168.36-7.416.216-13.14-.432z" fill-rule="evenodd" stroke="#000" stroke-miterlimit="10" stroke-width=".036"/>
 <path d="m170.932,37.296c2.629-.144 14.4.468 16.849,1.692 2.268,1.26-3.276,4.176-2.88,6.12 .432,1.764 2.231,3.312 5.256,5.076 2.88,1.728 12.24,4.968 12.096,5.292-.324.072-10.116-2.448-13.428-4.212-3.313-1.944-5.688-4.644-6.3-6.552-.685-1.908 3.996-3.78 2.376-4.644-1.872-.972-10.296-.684-12.637-1.08-2.411-.576-3.924-1.692-1.332-1.692z" fill-rule="evenodd" stroke="#000" stroke-miterlimit="10" stroke-width=".036"/>
 <path d="m204.88,66.672c-.72,1.224-2.088,7.344-5.508,10.584-3.42,3.023-13.896,7.523-14.76,7.813-.9.145 6.336-3.816 9.468-6.336 3.06-2.628 6.804-6.624 8.712-8.676 1.872-2.161 2.521-4.537 2.088-3.385z" fill-rule="evenodd" stroke="#000" stroke-miterlimit="10" stroke-width=".036"/>
 <path d="m198.58,87.371c-.828.252-3.564,2.27-5.004,4.248-1.404,1.836-4.068,5.148-3.708,7.164 .288,1.98 4.68,4.789 5.004,4.682 .144-.289-4.536-3.709-3.924-5.941 .612-2.375 5.616-5.832 7.092-7.596 1.116-1.799 1.296-2.844.54-2.557z" fill-rule="evenodd" stroke="#000" stroke-miterlimit="10" stroke-width=".036"/>
 <path d="m158.044,102.6c.504-.107 7.236-2.232 6.588-3.168-.936-1.008-8.46-2.951-11.34-2.52-2.88.324-1.764,4.645-5.796,5.039-4.248.396-17.28-2.664-18.684-2.52-1.26.107 6.696,2.412 10.548,3.168 3.744.684 9,1.369 11.592.648 2.376-.9 1.296-5.076 3.132-5.725 1.836-.684 6.84.973 7.632,1.908 .576.83-4.212,3.134-3.672,3.17z" fill-rule="evenodd" stroke="#000" stroke-miterlimit="10" stroke-width=".036"/>
 <path d="m169.348,84.42c-5.472-.252-10.512-.107-15.516.432-5.147.469-9.756,2.771-14.22,2.736-4.5-.107-11.592-2.881-11.844-3.168-.252-.396 6.408,1.512 10.8,1.26 4.356-.396 10.548-2.375 15.264-2.736 4.68-.324 8.604-.035 12.348.865l3.168.611z" fill-rule="evenodd" stroke="#000" stroke-miterlimit="10" stroke-width=".036"/>
 <path d="m107.788,27.36c-.54-.18-7.236,1.512-8.712,2.556-1.368,1.044 3.132,2.304.288,3.384-3.204.9-18.612,2.124-18.18,2.304 .576.036 18.144-.432 21.6-1.26 3.276-.828-2.484-2.484-1.584-3.6 .864-1.296 6.804-3.204 6.588-3.384z" fill-rule="evenodd" stroke="#000" stroke-miterlimit="10" stroke-width=".036"/>
 <path d="m134.608,25.884c-.324.072-7.524,1.728-10.512,1.908-3.024,0-7.704-1.116-7.38-1.26 .252-.072 5.832.612 8.964.648 3.06-.18 9-1.44 8.928-1.296z" fill-rule="evenodd" stroke="#000" stroke-miterlimit="10" stroke-width=".036"/>
 <path d="m139.072,85.213-1.584.936 .72.936 .396-1.08 1.188.107-.72-.899z" fill-rule="evenodd" stroke="#000" stroke-miterlimit="10" stroke-width=".036"/>
 <path d="m129.676,84.852h-1.224l.18.432 .936.434 .108-.866z" fill-rule="evenodd" stroke="#000" stroke-miterlimit="10" stroke-width=".036"/>
 <path d="m72.796,82.871h-1.26l.216.396 .936.469 .108-.865z" fill-rule="evenodd" stroke="#000" stroke-miterlimit="10" stroke-width=".036"/>
 <path d="m135.544,85.787h-1.26l.18.396 .972.432 .108-.828z" fill-rule="evenodd" stroke="#000" stroke-miterlimit="10" stroke-width=".036"/>
 <path d="m201.172,40.464-1.943-.252-.36,1.044 1.26-.504 .72.792 .323-1.08z" fill-rule="evenodd" stroke="#000" stroke-miterlimit="10" stroke-width=".036"/>
 <path d="m142.888,82.225h-1.224l.18.432 .937.432 .107-.864z" fill-rule="evenodd" stroke="#000" stroke-miterlimit="10" stroke-width=".036"/>
 <path d="m147.568,83.916h-1.261l.181.432 .972.432 .108-.864z" fill-rule="evenodd" stroke="#000" stroke-miterlimit="10" stroke-width=".036"/>
 <path d="m146.092,24.408-1.26.036 .216.396 .937.432 .107-.864z" fill-rule="evenodd" stroke="#000" stroke-miterlimit="10" stroke-width=".036"/>
 <path d="m152.788,92.195h-1.26l.18.396 .972.469 .108-.865z" fill-rule="evenodd" stroke="#000" stroke-miterlimit="10" stroke-width=".036"/>
 <path d="m157.18,83.844h-1.26l.18.396 .973.467 .107-.863z" fill-rule="evenodd" stroke="#000" stroke-miterlimit="10" stroke-width=".036"/>
 <path d="m178.96,103.68h-1.26l.18.396 .973.432 .107-.828z" fill-rule="evenodd" stroke="#000" stroke-miterlimit="10" stroke-width=".036"/>
 <path d="m115.852,42.228-1.584.972 .72.9 .396-1.08 1.188.144-.72-.936z" fill-rule="evenodd" stroke="#000" stroke-miterlimit="10" stroke-width=".036"/>
 <path d="m180.94,58.068-1.944-.252-.36,1.044 1.261-.504 .72.792 .323-1.08z" fill-rule="evenodd" stroke="#000" stroke-miterlimit="10" stroke-width=".036"/>
 <path d="m176.584,84.492-1.944-.252-.323,1.08 1.26-.504 .684.756 .323-1.08z" fill-rule="evenodd" stroke="#000" stroke-miterlimit="10" stroke-width=".036"/>
 <path d="m181.336,72.36h-1.26l.18.432 .973.432 .107-.864z" fill-rule="evenodd" stroke="#000" stroke-miterlimit="10" stroke-width=".036"/>
 <path d="m169.204,95.436h-1.26l.216.432 .936.434 .108-.866z" fill-rule="evenodd" stroke="#000" stroke-miterlimit="10" stroke-width=".036"/>
 <path d="m186.521,58.032h-1.261l.181.432 .936.432 .144-.864z" fill-rule="evenodd" stroke="#000" stroke-miterlimit="10" stroke-width=".036"/>
 <path d="m209.74,82.549h-1.26l.18.395 .972.469 .108-.864z" fill-rule="evenodd" stroke="#000" stroke-miterlimit="10" stroke-width=".036"/>
 <path d="m167.836,41.436h-1.26l.18.396 .973.432 .107-.828z" fill-rule="evenodd" stroke="#000" stroke-miterlimit="10" stroke-width=".036"/>
 <path d="m130.036,106.164h-1.26l.18.396 .972.432 .108-.828z" fill-rule="evenodd" stroke="#000" stroke-miterlimit="10" stroke-width=".036"/>
 <path d="m113.368,32.94h-1.26l.18.432 .972.432 .108-.864z" fill-rule="evenodd" stroke="#000" stroke-miterlimit="10" stroke-width=".036"/>
 <path d="m99.292,83.412 .54-.9-.576-.035-.9.504 .936.431z" fill-rule="evenodd" stroke="#000" stroke-miterlimit="10" stroke-width=".036"/>
 <path d="m135.616,68.148 .54-.936-.576-.036-.9.504 .936.468z" fill-rule="evenodd" stroke="#000" stroke-miterlimit="10" stroke-width=".036"/>
 <path d="m156.28,56.664 .54-.9-.54-.036-.9.504 .9.432z" fill-rule="evenodd" stroke="#000" stroke-miterlimit="10" stroke-width=".036"/>
 <path d="m108.688,102.779 .54-.936-.54-.035-.9.504 .9.467z" fill-rule="evenodd" stroke="#000" stroke-miterlimit="10" stroke-width=".036"/>
 <path d="m88.96,44.208 .54-.9-.576-.036-.9.504 .936.432z" fill-rule="evenodd" stroke="#000" stroke-miterlimit="10" stroke-width=".036"/>
 <path d="m145.984,115.633 .54-.938-.54-.035-.937.504 .937.469z" fill-rule="evenodd" stroke="#000" stroke-miterlimit="10" stroke-width=".036"/>
 <path d="m167.512,27.828-1.979-.288-.324,1.08 1.26-.504 .685.756 .358-1.044z" fill-rule="evenodd" stroke="#000" stroke-miterlimit="10" stroke-width=".036"/>
 <path d="m90.724,64.872-1.98-.288-.324,1.08 1.26-.504 .684.756 .36-1.044z" fill-rule="evenodd" stroke="#000" stroke-miterlimit="10" stroke-width=".036"/>
 <path d="m107.464,70.452-1.584.936 .756.936 .396-1.08 1.188.108-.756-.9z" fill-rule="evenodd" stroke="#000" stroke-miterlimit="10" stroke-width=".036"/>
 <path d="m122.368,74.664-.864.54 .396.504 .252-.612 .648.072-.432-.504z" fill-rule="evenodd" stroke="#000" stroke-miterlimit="10" stroke-width=".036"/>
 <path d="m113.728,88.199-.864.504 .396.504 .216-.574 .648.07-.396-.504z" fill-rule="evenodd" stroke="#000" stroke-miterlimit="10" stroke-width=".036"/>
 <path d="m215.464,60.732-.864.504 .396.504 .216-.576 .648.072-.396-.504z" fill-rule="evenodd" stroke="#000" stroke-miterlimit="10" stroke-width=".036"/>
 <path d="m157.145,77.796-.9.504 .432.504 .216-.576 .648.072-.396-.504z" fill-rule="evenodd" stroke="#000" stroke-miterlimit="10" stroke-width=".036"/>
 <path d="m73.336,42.912-.864.504 .396.54 .216-.612 .648.072-.396-.504z" fill-rule="evenodd" stroke="#000" stroke-miterlimit="10" stroke-width=".036"/>
 <path d="m134.68,89.461-.864.539 .432.504 .216-.576 .648.037-.432-.504z" fill-rule="evenodd" stroke="#000" stroke-miterlimit="10" stroke-width=".036"/>
</svg>
